<?xml version="1.0" encoding="utf-8"?>
<!-- Generator: Adobe Illustrator 18.0.0, SVG Export Plug-In . SVG Version: 6.00 Build 0)  -->
<!DOCTYPE svg PUBLIC "-//W3C//DTD SVG 1.1//EN" "http://www.w3.org/Graphics/SVG/1.1/DTD/svg11.dtd">
<svg version="1.1" id="Layer_1" xmlns="http://www.w3.org/2000/svg" xmlns:xlink="http://www.w3.org/1999/xlink" x="0px" y="0px"
	 viewBox="0 0 150 150" enable-background="new 0 0 150 150" xml:space="preserve">
<polygon id="XMLID_22_" fill="#404041" points="19.3,46.7 75,14.4 130.7,46.7 130.7,111 75,143.2 19.3,111 "/>
<polygon id="XMLID_21_" fill="#F05A28" points="74.7,126.5 19.3,111 19.3,46.7 74.7,31.1 "/>
<polygon id="RightShield" fill="#26A9E0" points="130.7,111 74.7,126.5 74.7,31.1 130.7,46.7 "/>
<polygon fill="#FFFFFF" points="64.9,115.4 27,108.2 27,50.6 64.9,44 "/>
<polygon fill="#F05A28" points="34.5,59.1 28.8,59.7 28.8,53 34.5,52.2 "/>
<polygon fill="#F05A28" points="42.7,58.3 36.5,59 36.5,52 42.7,51 "/>
<polygon fill="#F05A28" points="51.8,57.2 44.9,58 44.9,50.7 51.8,49.6 "/>
<polygon fill="#F05A28" points="61.9,56.1 54.2,57 54.2,49.2 61.9,48 "/>
<polygon fill="#F05A28" points="34.6,68.4 28.9,68.7 28.9,62 34.6,61.4 "/>
<polygon fill="#F05A28" points="42.8,68 36.6,68.4 36.6,61.4 42.8,60.7 "/>
<polygon fill="#F05A28" points="51.9,67.5 45,67.9 45,60.5 51.9,59.8 "/>
<polygon fill="#F05A28" points="62,66.9 54.4,67.3 54.4,59.6 62,58.8 "/>
<polygon fill="#F05A28" points="34.6,77.7 28.9,77.7 28.9,71 34.6,70.8 "/>
<polygon fill="#F05A28" points="42.8,77.8 36.6,77.8 36.6,70.8 42.8,70.5 "/>
<polygon fill="#F05A28" points="51.9,77.7 45,77.7 45,70.4 51.9,70.1 "/>
<polygon fill="#F05A28" points="62,77.7 54.4,77.7 54.4,70 62,69.6 "/>
<polygon fill="#F05A28" points="34.6,86.9 28.9,86.6 28.9,80 34.6,80 "/>
<polygon fill="#F05A28" points="42.8,87.5 36.6,87.2 36.6,80.2 42.8,80.3 "/>
<polygon fill="#F05A28" points="51.9,87.9 45,87.6 45,80.2 51.9,80.3 "/>
<polygon fill="#F05A28" points="62,88.5 54.4,88.1 54.4,80.4 62,80.5 "/>
<polygon fill="#F05A28" points="34.6,96.2 28.9,95.6 28.9,88.9 34.6,89.3 "/>
<polygon fill="#F05A28" points="42.8,97.3 36.6,96.6 36.6,89.6 42.8,90 "/>
<polygon fill="#F05A28" points="51.9,98.2 45,97.4 45,90.1 51.9,90.5 "/>
<polygon fill="#F05A28" points="62,99.3 54.4,98.5 54.4,90.8 62,91.3 "/>
<polygon fill="#F05A28" points="34.6,105.5 28.9,104.6 28.9,97.9 34.6,98.6 "/>
<polygon fill="#F05A28" points="47.2,112.1 40.7,110.8 40.7,99.5 47.2,100.3 "/>
<polygon fill="#F05A28" points="62.1,110.2 54.4,108.9 54.4,101.1 62.1,102.1 "/>
<polygon fill="#FFFFFF" points="40.3,49.3 32.9,50.5 32.9,46.8 40.3,45.4 "/>
<polygon fill="#FFFFFF" points="56.3,46.6 47.5,48.1 47.5,44 56.3,42.3 "/>
<g>
	<polygon fill="#FFFFFF" points="129,105.3 119.1,100.8 119.1,61.2 129,56.8 	"/>
	<polygon fill="#FFFFFF" points="120,100.5 88.7,104.9 88.7,56.7 120,61.1 	"/>
	<g>
		<polygon fill="#26A9E0" points="113.1,74.2 96.7,73.4 96.7,62.1 113.1,64 		"/>
		<polygon fill="#26A9E0" points="107.8,77.9 102.8,77.8 102.8,75.2 107.8,75.4 		"/>
		<polygon fill="none" stroke="#26A9E0" stroke-miterlimit="10" points="114.1,75.6 95.4,74.9 95.4,60.4 114.1,62.7 		"/>
		<polygon fill="#26A9E0" points="115.6,80.3 97.8,80.2 95.4,78.7 113.8,79 		"/>
	</g>
	<polygon fill="#26A9E0" points="120.3,85.2 88.9,86.1 88.9,80.9 120.3,80.9 	"/>
	<polygon fill="#FFFFFF" points="88.7,111.9 77.6,106.6 77.6,55.4 88.7,50.1 	"/>
</g>
</svg>
