<?xml version="1.0" encoding="utf-8"?>
<!-- Generator: Adobe Illustrator 18.0.0, SVG Export Plug-In . SVG Version: 6.00 Build 0)  -->
<!DOCTYPE svg PUBLIC "-//W3C//DTD SVG 1.1//EN" "http://www.w3.org/Graphics/SVG/1.1/DTD/svg11.dtd">
<svg version="1.1" id="Layer_1" xmlns="http://www.w3.org/2000/svg" xmlns:xlink="http://www.w3.org/1999/xlink" x="0px" y="0px"
	 viewBox="-50 -50 250 250" enable-background="new -50 -50 250 250" xml:space="preserve">
<polygon id="XMLID_22_" fill="#404041" points="-17.9,21.4 75,-32.3 167.9,21.4 167.9,128.6 75,182.3 -17.9,128.6 "/>
<polygon id="XMLID_21_" fill="#F05A28" points="74.5,154.5 -17.9,128.6 -17.9,21.4 74.5,-4.5 "/>
<polygon id="RightShield" fill="#26A9E0" points="167.9,128.6 74.5,154.5 74.5,-4.5 167.9,21.4 "/>
<g>
	<path fill="#FFFFFF" d="M22.3,29.8L-6.3,58.5l66-5.1L22.3,29.8z M22.3,51.1c-2.7,0.3-4.9-2.2-4.9-5.6s2.2-6.4,4.9-6.8
		c2.8-0.4,5.1,2.1,5.1,5.5C27.4,47.8,25.1,50.8,22.3,51.1z"/>
	<g>
		<g>
			<g>
				<defs>
					<polygon id="SVGID_1_" points="78.9,130.6 79,130.6 47.5,103.3 1.1,98.6 -16.4,113 					"/>
				</defs>
				<clipPath id="SVGID_2_">
					<use xlink:href="#SVGID_1_"  overflow="visible"/>
				</clipPath>
				<g clip-path="url(#SVGID_2_)">
					<polygon fill="#F2F2F2" points="-11.2,108.9 68.6,121.8 68.6,125.4 -11.2,111.5 					"/>
					<polygon fill="#F2F2F2" points="-11.2,106.3 68.6,118.1 68.6,121.8 -11.2,108.9 					"/>
					<polygon fill="#F2F2F2" points="-11.2,103.6 68.6,114.5 68.6,118.1 -11.2,106.3 					"/>
					<polygon fill="#F2F2F2" points="-11.2,101 68.6,110.9 68.6,114.5 -11.2,103.6 					"/>
				</g>
			</g>
		</g>
	</g>
	<polygon fill="#FFFFFF" points="4.8,100.1 -3,99.2 -3,61 4.8,60.6 	"/>
	<polygon fill="#FFFFFF" points="19.2,101.7 10.4,100.7 10.4,60.2 19.2,59.6 	"/>
	<polygon fill="#FFFFFF" points="35.5,103.5 25.5,102.4 25.5,59.2 35.5,58.6 	"/>
	<polygon fill="#FFFFFF" points="54.3,105.6 42.8,104.3 42.8,58.1 54.3,57.4 	"/>
</g>
<g>
	<path fill="#FFFFFF" d="M100.1,100.7c0,8.8-1.4,7.6-3.1,7.8c-1.8,0.2-3.2,1.7-3.2-7.3s0.6-16.3,3.2-16.4
		C99.8,84.9,100.1,91.8,100.1,100.7z"/>
	<g>
		<path fill="#FFFFFF" d="M150.3,96.2c0,7.9-8.9,14.4-21,16.2c-13.4,1.9-25.4-2.6-25.4-12.2s11.9-8.3,25.3-8.6
			C141.2,91.4,150.3,88.3,150.3,96.2z"/>
		<polygon fill="#FFFFFF" points="150.3,78.3 129,87.6 103.9,77.3 103.9,100.2 150.3,96.2 		"/>
	</g>
	<polygon fill="#FFFFFF" points="129.2,82.9 76.7,61.2 129.3,46.9 166,67.5 	"/>
	<path fill="#FFFFFF" d="M100.1,82c0,1.9-1.4,5.4-3.1,5.4c-1.8,0-3.2-3.5-3.2-5.4c0-1.9,1.4-3.4,3.2-3.4
		C98.7,78.7,100.1,80.2,100.1,82z"/>
</g>
<polygon fill="#FFFFFF" points="98.3,82.2 95.5,84.2 95.5,73.2 98.3,71.2 "/>
</svg>
