<?xml version="1.0" encoding="utf-8"?>
<!-- Generator: Adobe Illustrator 18.0.0, SVG Export Plug-In . SVG Version: 6.00 Build 0)  -->
<!DOCTYPE svg PUBLIC "-//W3C//DTD SVG 1.1//EN" "http://www.w3.org/Graphics/SVG/1.1/DTD/svg11.dtd">
<svg version="1.1" id="Layer_1" xmlns="http://www.w3.org/2000/svg" xmlns:xlink="http://www.w3.org/1999/xlink" x="0px" y="0px"
	 viewBox="0 0 128 128" enable-background="new 0 0 128 128" xml:space="preserve">
<g>
	<polygon fill="#FFFFFF" points="11,95.3 11,34.5 64,3.5 117,33.2 117,95.3 64.6,124.6 	"/>
	<path fill="#F15C2B" d="M64.1,6.9l50,28v58.6l-49.5,27.6L14,93.5V36.3L64.1,6.9 M64,0L8,32.8v64.2L64.6,128L120,97.1V31.4L64,0
		L64,0z"/>
</g>
<path fill="#059347" d="M62.2,77.9c-1.6-0.4-4.2-0.8-6.4-1.9c-2.4-1.2-3.8-1-5,1.5c-0.4,0.8-1.6,1.7-2.4,1.7c-0.6,0-1.8-1.3-1.8-2
	c0-1,0.7-2.3,1.5-2.9c1.7-1.4,2.4-2.5,1.9-5c-1.2-5.2,2.1-10.6,7.7-13.7c4-2.2,8.4-2.2,12.7-2.3c3.3-0.1,6.2-0.5,8.7-3
	c1.7-1.7,3.3-1,4.1,1.7c1.9,6,1.1,11.8-2.8,16.8C76.1,74.4,70.1,77.2,62.2,77.9z M74.3,61.9c-1.2-0.8-1.7-1.4-2.4-1.5
	c-4.9-0.9-15,4.1-17.3,8.6c-0.3,0.5-0.2,1.6,0.2,1.9c0.4,0.3,1.3,0.2,1.9,0c0.6-0.2,1-0.8,1.4-1.2c3.7-4,8-6.4,13.6-6.6
	C72.3,63.1,73,62.5,74.3,61.9z"/>
<path d="M87,94.9c-21.7,10.9-41.5,7.5-53.1-8.4c-11.3-15.5-9.9-36.7,3.5-50c13.2-13.3,34-14.9,49.3-4c16.4,11.7,20,31.4,8.7,54.3
	c5.5,5,6.5,5.9,12.5,11.4c3.5,3.2-0.5,1.4-4.4,5.4c-4.1,4.2-2.5,5.8-5.7,2.4C92.3,100.3,92.6,100.7,87,94.9z M64.2,38.8
	c-14.1,0-24.8,10.8-24.7,24.8c0.1,14,10.9,24.5,25.1,24.5c14,0,24.8-10.8,24.7-24.8C89.2,49.4,78.3,38.8,64.2,38.8z"/>
<g>
	<path fill="#F15C2B" d="M64.1,6.9l50,28v58.6l-49.5,27.6L14,93.5V36.3L64.1,6.9 M64,0L8,32.8v64.2L64.6,128L120,97.1V31.4L64,0
		L64,0z"/>
</g>
</svg>
