<?xml version="1.0" encoding="utf-8"?>
<!-- Generator: Adobe Illustrator 19.0.0, SVG Export Plug-In . SVG Version: 6.00 Build 0)  -->
<svg version="1.1" id="Layer_1" xmlns="http://www.w3.org/2000/svg" xmlns:xlink="http://www.w3.org/1999/xlink" x="0px" y="0px"
	 viewBox="-404 206 150 150" style="enable-background:new -404 206 150 150;" xml:space="preserve">
<style type="text/css">
	.st0{fill:#676767;}
	.st1{fill:#404040;}
	.st2{fill:#888888;}
	.st3{fill:#7A7A7A;}
	.st4{fill:#FFFFFF;}
	.st5{opacity:0.5;}
	.st6{fill:#90EE90;}
</style>
<g>
	<g>
		<g id="aGroup_9_">
			<g>
				<polygon class="st0" points="-329.3,213.8 -329.3,348.2 -387.3,314.7 -387.3,247.3 				"/>
				<polygon class="st1" points="-270.7,247.3 -270.7,314.7 -329,348.4 -329.3,348.2 -329.3,213.8 -329,213.6 				"/>
				<g>
					<g>
						<polygon id="XMLID_85_" class="st2" points="-329.3,330.9 -387.3,314.6 -387.3,247.4 -329.3,231.1 						"/>
						<polygon id="RightShield_84_" class="st3" points="-270.7,314.6 -329.3,330.9 -329.3,231.1 -270.7,247.4 						"/>
					</g>
				</g>
				<path class="st4" d="M-355.8,292.2c0-2.9,0-5.4,0-8.3c-1.9,0-3.6-0.1-5.7-0.1c-0.2,2.4,0,5.2-0.1,8.3c-3.7-0.1-7.6-0.3-11.3-0.4
					c0-14.1,0-28.3,0-42.8c9.2-0.6,18.7-1.2,29.1-1.9c0,14.8,0,30,0,45.7C-347.6,292.5-351.3,292.4-355.8,292.2z M-356.1,274.3
					c0-6.5,0-11.9,0-17.9c-2.1,0.2-3.9,0.5-5.5,0.7c0,6.3,0,11.7,0,17.3C-359.6,274.4-358,274.3-356.1,274.3z"/>
				<path class="st4" d="M-284.7,249.2c0,8.6,0,16.9,0,25.4c-1.7,0-3.3,0-5.2,0c0,3.1,0,5.8,0,8.8c1.6,0.1,3.3,0,5.1,0.1
					c0,2.5,0,5.4,0,8.8c-3.4,0.2-6.3,0.2-11,0.2c0-2.9,0-5.2,0-8.2c-2.1,0-3.9,0.1-6,0.1c0,2.7,0.1,5.1,0.1,8
					c-3.8,0.1-8.3,0.3-12.4,0.4c0-15.1,0-30.3,0-45.7C-304.1,247.8-294.5,248.5-284.7,249.2z M-296.2,274.6c0-6.4,0-11.8,0-17.7
					c-2.1,0-3.9,0.1-5.5,0.1c0,6.3,0,11.8,0,17.5C-299.8,274.6-298.1,274.6-296.2,274.6z"/>
				<g>
					<path class="st4" d="M-369.3,311.9l-0.5-2.9l-3.3-0.2l-0.6,2.8l-1.8-0.1l2.7-14.1l2.4,0.1l2.7,14.6L-369.3,311.9z M-371.3,300
						l-1.2,6.6l2.4,0.1L-371.3,300z"/>
					<path class="st4" d="M-365.9,312.1v-14.5l1.8,0.1v12.2l4.1,0.3v2.4L-365.9,312.1z"/>
					<path class="st4" d="M-357.6,312.8V298l6,0.2v2.4l-4.1-0.2v3.8l3.9,0.2v2.3l-3.9-0.2v4.2l4.1,0.3v2.4l-6-0.4V312.8z"/>
					<path class="st4" d="M-343.9,313.8l-2-5.8l-2,5.5l-2.4-0.2l3-7.6l-2.8-7.5l2.3,0.1l1.9,5.4l1.8-5.3l2.3,0.1l-2.8,7.3l3.2,8.1
						L-343.9,313.8z"/>
				</g>
				<g>
					<path class="st4" d="M-317.4,313.5l-1.4-4.5c-0.1-0.4-0.3-0.7-0.6-1c-0.2-0.3-0.5-0.3-0.8-0.2h-0.4v6l-1.9,0.1v-14.4l2.9-0.1
						c0.5,0,1,0,1.5,0.1c0.4,0.1,0.8,0.3,1.1,0.7c0.3,0.3,0.6,0.7,0.7,1.3c0.2,0.4,0.3,1.1,0.3,1.9c0,0.6-0.1,1-0.2,1.5
						c-0.1,0.4-0.3,0.7-0.4,1c-0.2,0.3-0.4,0.6-0.7,0.8c-0.3,0.2-0.6,0.3-0.9,0.5c0.2,0.1,0.5,0.3,0.7,0.5c0.2,0.3,0.4,0.8,0.6,1.4
						l1.6,4.7l-2.1,0.1C-317.4,313.9-317.4,313.5-317.4,313.5z M-317.9,303.5c0-0.7-0.2-1.1-0.5-1.4c-0.3-0.3-0.8-0.4-1.4-0.4h-0.8
						v4.1h0.8c0.3,0,0.6,0,0.8-0.2c0.2-0.2,0.4-0.3,0.6-0.5c0.2-0.2,0.3-0.5,0.4-0.7C-317.9,304-317.9,303.7-317.9,303.5z"/>
					<path class="st4" d="M-313.5,313.3v-14.2l5.8-0.2v2.3l-3.9,0.2v3.6l3.7-0.2v2.1l-3.7,0.2v4l3.9-0.3v2.3l-5.8,0.4V313.3z"/>
					<path class="st4" d="M-305.3,312.7v-14l5.6-0.2v2.2l-3.8,0.2v3.5l3.6-0.2v2.1l-3.6,0.2v3.9l3.8-0.3v2.2L-305.3,312.7
						L-305.3,312.7z"/>
					<path class="st4" d="M-291.6,307.6c0,0.7-0.1,1.4-0.3,1.9c-0.2,0.6-0.4,1-0.7,1.4c-0.4,0.4-0.7,0.7-1.2,0.9
						c-0.5,0.2-0.9,0.3-1.4,0.4c-0.5,0-0.9,0.1-1.4,0c-0.5-0.1-0.9-0.2-1.3-0.3v-2.5c0.2,0.1,0.5,0.2,0.6,0.2
						c0.3,0.1,0.5,0.1,0.7,0.2c0.3,0.1,0.5,0.1,0.7,0.1c0.3,0,0.5,0,0.6,0c0.4,0,0.6,0,0.8-0.2c0.2-0.1,0.5-0.2,0.5-0.4
						c0.1-0.3,0.3-0.3,0.3-0.6c0.1-0.1,0.1-0.4,0.1-0.7s-0.1-0.5-0.2-0.8c-0.1-0.3-0.3-0.4-0.5-0.5c-0.2-0.1-0.5-0.2-0.7-0.4
						c-0.3-0.1-0.5-0.2-0.8-0.4c-0.3-0.1-0.5-0.2-0.8-0.5c-0.3-0.1-0.5-0.4-0.7-0.7c-0.2-0.3-0.4-0.7-0.5-1.1
						c-0.1-0.4-0.2-1-0.2-1.5c0-0.6,0.1-1.1,0.2-1.5c0.1-0.4,0.4-1,0.6-1.3c0.3-0.4,0.6-0.7,1.1-0.9c0.5-0.3,1-0.3,1.5-0.3
						c0.2,0,0.4,0,0.5,0c0.2,0,0.4,0,0.5,0.1c0.2,0.1,0.4,0.1,0.5,0.1c0.2,0,0.4,0.1,0.4,0.1v2.3c-0.2-0.1-0.3-0.1-0.4-0.3
						c-0.2-0.1-0.4-0.1-0.5-0.1c-0.2,0-0.4-0.1-0.5-0.1c-0.2,0-0.4,0-0.5,0c-0.3,0-0.5,0-0.7,0.2c-0.2,0.1-0.4,0.2-0.5,0.3
						c-0.1,0.1-0.3,0.3-0.3,0.4c-0.1,0.1-0.1,0.4-0.1,0.7s0.1,0.5,0.2,0.7c0.1,0.1,0.3,0.4,0.5,0.5c0.2,0.1,0.5,0.3,0.7,0.4
						c0.3,0.1,0.5,0.2,0.8,0.4c0.3,0.1,0.5,0.4,0.8,0.5c0.3,0.3,0.5,0.4,0.7,0.8c0.2,0.3,0.4,0.7,0.5,1.1
						C-291.6,306.6-291.6,307.1-291.6,307.6z"/>
					<path class="st4" d="M-289.7,311.6V298l5.3-0.2v2.2l-3.6,0.2v3.4l3.4-0.2v2l-3.4,0.2v3.8l3.6-0.2v2.2l-5.3,0.4V311.6z"/>
					<path class="st4" d="M-278.2,310.8l-1.2-4.2c-0.1-0.4-0.3-0.7-0.4-0.9c-0.2-0.3-0.4-0.2-0.7-0.2h-0.3v5.5l-1.6,0.1v-13.4
						l2.5-0.1c0.4,0,0.9,0,1.3,0.1c0.3,0.1,0.7,0.2,0.9,0.6c0.3,0.3,0.5,0.6,0.6,1.2c0.2,0.4,0.3,1.1,0.3,1.7c0,0.5-0.1,0.9-0.2,1.3
						c-0.1,0.4-0.3,0.7-0.3,1c-0.2,0.3-0.3,0.6-0.6,0.7c-0.3,0.1-0.5,0.3-0.8,0.4c0.2,0.1,0.4,0.2,0.6,0.5c0.2,0.3,0.3,0.8,0.5,1.3
						l1.3,4.3L-278.2,310.8C-278.2,310.8-278.2,310.8-278.2,310.8z M-278.6,301.5c0-0.7-0.2-1.1-0.4-1.3c-0.3-0.3-0.7-0.4-1.2-0.3
						h-0.7v3.8h0.7c0.3,0,0.5,0,0.7-0.2c0.2-0.1,0.3-0.3,0.5-0.4s0.3-0.4,0.3-0.7C-278.6,302-278.6,301.7-278.6,301.5z"/>
				</g>
			</g>
		</g>
	</g>
	<g class="st5">
		<g id="aGroup_8_">
			<g>
				<polygon class="st6" points="-329.3,213.8 -329.3,348.2 -387.3,314.7 -387.3,247.3 				"/>
				<polygon class="st6" points="-270.7,247.3 -270.7,314.7 -329,348.4 -329.3,348.2 -329.3,213.8 -329,213.6 				"/>
				<g>
					<g>
						<polygon id="XMLID_76_" class="st6" points="-329.3,330.9 -387.3,314.6 -387.3,247.4 -329.3,231.1 						"/>
						<polygon id="RightShield_75_" class="st6" points="-270.7,314.6 -329.3,330.9 -329.3,231.1 -270.7,247.4 						"/>
					</g>
					<g>
						<polygon id="XMLID_75_" class="st6" points="-329.3,330.9 -387.3,314.6 -387.3,247.4 -329.3,231.1 						"/>
						<polygon id="RightShield_74_" class="st6" points="-270.7,314.6 -329.3,330.9 -329.3,231.1 -270.7,247.4 						"/>
					</g>
					<g>
						<polygon id="XMLID_74_" class="st6" points="-329.3,330.9 -387.3,314.6 -387.3,247.4 -329.3,231.1 						"/>
						<polygon id="RightShield_73_" class="st6" points="-270.7,314.6 -329.3,330.9 -329.3,231.1 -270.7,247.4 						"/>
					</g>
				</g>
				<path class="st6" d="M-355.8,292.2c0-2.9,0-5.4,0-8.3c-1.9,0-3.6-0.1-5.7-0.1c-0.2,2.4,0,5.2-0.1,8.3c-3.7-0.1-7.6-0.3-11.3-0.4
					c0-14.1,0-28.3,0-42.8c9.2-0.6,18.7-1.2,29.1-1.9c0,14.8,0,30,0,45.7C-347.6,292.5-351.3,292.4-355.8,292.2z M-356.1,274.3
					c0-6.5,0-11.9,0-17.9c-2.1,0.2-3.9,0.5-5.5,0.7c0,6.3,0,11.7,0,17.3C-359.6,274.4-358,274.3-356.1,274.3z"/>
				<path class="st6" d="M-284.7,249.2c0,8.6,0,16.9,0,25.4c-1.7,0-3.3,0-5.2,0c0,3.1,0,5.8,0,8.8c1.6,0.1,3.3,0,5.1,0.1
					c0,2.5,0,5.4,0,8.8c-3.4,0.2-6.3,0.2-11,0.2c0-2.9,0-5.2,0-8.2c-2.1,0-3.9,0.1-6,0.1c0,2.7,0.1,5.1,0.1,8
					c-3.8,0.1-8.3,0.3-12.4,0.4c0-15.1,0-30.3,0-45.7C-304.1,247.8-294.5,248.5-284.7,249.2z M-296.2,274.6c0-6.4,0-11.8,0-17.7
					c-2.1,0-3.9,0.1-5.5,0.1c0,6.3,0,11.8,0,17.5C-299.8,274.6-298.1,274.6-296.2,274.6z"/>
				<g>
					<path class="st6" d="M-369.3,311.9l-0.5-2.9l-3.3-0.2l-0.6,2.8l-1.8-0.1l2.7-14.1l2.4,0.1l2.7,14.6L-369.3,311.9z M-371.3,300
						l-1.2,6.6l2.4,0.1L-371.3,300z"/>
					<path class="st6" d="M-365.9,312.1v-14.5l1.8,0.1v12.2l4.1,0.3v2.4L-365.9,312.1z"/>
					<path class="st6" d="M-357.6,312.8V298l6,0.2v2.4l-4.1-0.2v3.8l3.9,0.2v2.3l-3.9-0.2v4.2l4.1,0.3v2.4l-6-0.4V312.8z"/>
					<path class="st6" d="M-343.9,313.8l-2-5.8l-2,5.5l-2.4-0.2l3-7.6l-2.8-7.5l2.3,0.1l1.9,5.4l1.8-5.3l2.3,0.1l-2.8,7.3l3.2,8.1
						L-343.9,313.8z"/>
				</g>
				<g>
					<path class="st6" d="M-317.4,313.5l-1.4-4.5c-0.1-0.4-0.3-0.7-0.6-1c-0.2-0.3-0.5-0.3-0.8-0.2h-0.4v6l-1.9,0.1v-14.4l2.9-0.1
						c0.5,0,1,0,1.5,0.1c0.4,0.1,0.8,0.3,1.1,0.7c0.3,0.3,0.6,0.7,0.7,1.3c0.2,0.4,0.3,1.1,0.3,1.9c0,0.6-0.1,1-0.2,1.5
						c-0.1,0.4-0.3,0.7-0.4,1c-0.2,0.3-0.4,0.6-0.7,0.8c-0.3,0.2-0.6,0.3-0.9,0.5c0.2,0.1,0.5,0.3,0.7,0.5c0.2,0.3,0.4,0.8,0.6,1.4
						l1.6,4.7l-2.1,0.1C-317.4,313.9-317.4,313.5-317.4,313.5z M-317.9,303.5c0-0.7-0.2-1.1-0.5-1.4c-0.3-0.3-0.8-0.4-1.4-0.4h-0.8
						v4.1h0.8c0.3,0,0.6,0,0.8-0.2c0.2-0.2,0.4-0.3,0.6-0.5c0.2-0.2,0.3-0.5,0.4-0.7C-317.9,304-317.9,303.7-317.9,303.5z"/>
					<path class="st6" d="M-313.5,313.3v-14.2l5.8-0.2v2.3l-3.9,0.2v3.6l3.7-0.2v2.1l-3.7,0.2v4l3.9-0.3v2.3l-5.8,0.4V313.3z"/>
					<path class="st6" d="M-305.3,312.7v-14l5.6-0.2v2.2l-3.8,0.2v3.5l3.6-0.2v2.1l-3.6,0.2v3.9l3.8-0.3v2.2L-305.3,312.7
						L-305.3,312.7z"/>
					<path class="st6" d="M-291.6,307.6c0,0.7-0.1,1.4-0.3,1.9c-0.2,0.6-0.4,1-0.7,1.4c-0.4,0.4-0.7,0.7-1.2,0.9
						c-0.5,0.2-0.9,0.3-1.4,0.4c-0.5,0-0.9,0.1-1.4,0c-0.5-0.1-0.9-0.2-1.3-0.3v-2.5c0.2,0.1,0.5,0.2,0.6,0.2
						c0.3,0.1,0.5,0.1,0.7,0.2c0.3,0.1,0.5,0.1,0.7,0.1c0.3,0,0.5,0,0.6,0c0.4,0,0.6,0,0.8-0.2c0.2-0.1,0.5-0.2,0.5-0.4
						c0.1-0.3,0.3-0.3,0.3-0.6c0.1-0.1,0.1-0.4,0.1-0.7s-0.1-0.5-0.2-0.8c-0.1-0.3-0.3-0.4-0.5-0.5c-0.2-0.1-0.5-0.2-0.7-0.4
						c-0.3-0.1-0.5-0.2-0.8-0.4c-0.3-0.1-0.5-0.2-0.8-0.5c-0.3-0.1-0.5-0.4-0.7-0.7c-0.2-0.3-0.4-0.7-0.5-1.1
						c-0.1-0.4-0.2-1-0.2-1.5c0-0.6,0.1-1.1,0.2-1.5c0.1-0.4,0.4-1,0.6-1.3c0.3-0.4,0.6-0.7,1.1-0.9c0.5-0.3,1-0.3,1.5-0.3
						c0.2,0,0.4,0,0.5,0c0.2,0,0.4,0,0.5,0.1c0.2,0.1,0.4,0.1,0.5,0.1c0.2,0,0.4,0.1,0.4,0.1v2.3c-0.2-0.1-0.3-0.1-0.4-0.3
						c-0.2-0.1-0.4-0.1-0.5-0.1c-0.2,0-0.4-0.1-0.5-0.1c-0.2,0-0.4,0-0.5,0c-0.3,0-0.5,0-0.7,0.2c-0.2,0.1-0.4,0.2-0.5,0.3
						c-0.1,0.1-0.3,0.3-0.3,0.4c-0.1,0.1-0.1,0.4-0.1,0.7s0.1,0.5,0.2,0.7c0.1,0.1,0.3,0.4,0.5,0.5c0.2,0.1,0.5,0.3,0.7,0.4
						c0.3,0.1,0.5,0.2,0.8,0.4c0.3,0.1,0.5,0.4,0.8,0.5c0.3,0.3,0.5,0.4,0.7,0.8c0.2,0.3,0.4,0.7,0.5,1.1
						C-291.6,306.6-291.6,307.1-291.6,307.6z"/>
					<path class="st6" d="M-289.7,311.6V298l5.3-0.2v2.2l-3.6,0.2v3.4l3.4-0.2v2l-3.4,0.2v3.8l3.6-0.2v2.2l-5.3,0.4V311.6z"/>
					<path class="st6" d="M-278.2,310.8l-1.2-4.2c-0.1-0.4-0.3-0.7-0.4-0.9c-0.2-0.3-0.4-0.2-0.7-0.2h-0.3v5.5l-1.6,0.1v-13.4
						l2.5-0.1c0.4,0,0.9,0,1.3,0.1c0.3,0.1,0.7,0.2,0.9,0.6c0.3,0.3,0.5,0.6,0.6,1.2c0.2,0.4,0.3,1.1,0.3,1.7c0,0.5-0.1,0.9-0.2,1.3
						c-0.1,0.4-0.3,0.7-0.3,1c-0.2,0.3-0.3,0.6-0.6,0.7c-0.3,0.1-0.5,0.3-0.8,0.4c0.2,0.1,0.4,0.2,0.6,0.5c0.2,0.3,0.3,0.8,0.5,1.3
						l1.3,4.3L-278.2,310.8C-278.2,310.8-278.2,310.8-278.2,310.8z M-278.6,301.5c0-0.7-0.2-1.1-0.4-1.3c-0.3-0.3-0.7-0.4-1.2-0.3
						h-0.7v3.8h0.7c0.3,0,0.5,0,0.7-0.2c0.2-0.1,0.3-0.3,0.5-0.4s0.3-0.4,0.3-0.7C-278.6,302-278.6,301.7-278.6,301.5z"/>
				</g>
			</g>
			<g>
				<polygon class="st6" points="-329.3,213.8 -329.3,348.2 -387.3,314.7 -387.3,247.3 				"/>
				<polygon class="st6" points="-270.7,247.3 -270.7,314.7 -329,348.4 -329.3,348.2 -329.3,213.8 -329,213.6 				"/>
				<g>
					<g>
						<polygon id="XMLID_73_" class="st6" points="-329.3,330.9 -387.3,314.6 -387.3,247.4 -329.3,231.1 						"/>
						<polygon id="RightShield_72_" class="st6" points="-270.7,314.6 -329.3,330.9 -329.3,231.1 -270.7,247.4 						"/>
					</g>
					<g>
						<polygon id="XMLID_72_" class="st6" points="-329.3,330.9 -387.3,314.6 -387.3,247.4 -329.3,231.1 						"/>
						<polygon id="RightShield_71_" class="st6" points="-270.7,314.6 -329.3,330.9 -329.3,231.1 -270.7,247.4 						"/>
					</g>
					<g>
						<polygon id="XMLID_71_" class="st6" points="-329.3,330.9 -387.3,314.6 -387.3,247.4 -329.3,231.1 						"/>
						<polygon id="RightShield_70_" class="st6" points="-270.7,314.6 -329.3,330.9 -329.3,231.1 -270.7,247.4 						"/>
					</g>
				</g>
				<path class="st6" d="M-355.8,292.2c0-2.9,0-5.4,0-8.3c-1.9,0-3.6-0.1-5.7-0.1c-0.2,2.4,0,5.2-0.1,8.3c-3.7-0.1-7.6-0.3-11.3-0.4
					c0-14.1,0-28.3,0-42.8c9.2-0.6,18.7-1.2,29.1-1.9c0,14.8,0,30,0,45.7C-347.6,292.5-351.3,292.4-355.8,292.2z M-356.1,274.3
					c0-6.5,0-11.9,0-17.9c-2.1,0.2-3.9,0.5-5.5,0.7c0,6.3,0,11.7,0,17.3C-359.6,274.4-358,274.3-356.1,274.3z"/>
				<path class="st6" d="M-284.7,249.2c0,8.6,0,16.9,0,25.4c-1.7,0-3.3,0-5.2,0c0,3.1,0,5.8,0,8.8c1.6,0.1,3.3,0,5.1,0.1
					c0,2.5,0,5.4,0,8.8c-3.4,0.2-6.3,0.2-11,0.2c0-2.9,0-5.2,0-8.2c-2.1,0-3.9,0.1-6,0.1c0,2.7,0.1,5.1,0.1,8
					c-3.8,0.1-8.3,0.3-12.4,0.4c0-15.1,0-30.3,0-45.7C-304.1,247.8-294.5,248.5-284.7,249.2z M-296.2,274.6c0-6.4,0-11.8,0-17.7
					c-2.1,0-3.9,0.1-5.5,0.1c0,6.3,0,11.8,0,17.5C-299.8,274.6-298.1,274.6-296.2,274.6z"/>
				<g>
					<path class="st6" d="M-369.3,311.9l-0.5-2.9l-3.3-0.2l-0.6,2.8l-1.8-0.1l2.7-14.1l2.4,0.1l2.7,14.6L-369.3,311.9z M-371.3,300
						l-1.2,6.6l2.4,0.1L-371.3,300z"/>
					<path class="st6" d="M-365.9,312.1v-14.5l1.8,0.1v12.2l4.1,0.3v2.4L-365.9,312.1z"/>
					<path class="st6" d="M-357.6,312.8V298l6,0.2v2.4l-4.1-0.2v3.8l3.9,0.2v2.3l-3.9-0.2v4.2l4.1,0.3v2.4l-6-0.4V312.8z"/>
					<path class="st6" d="M-343.9,313.8l-2-5.8l-2,5.5l-2.4-0.2l3-7.6l-2.8-7.5l2.3,0.1l1.9,5.4l1.8-5.3l2.3,0.1l-2.8,7.3l3.2,8.1
						L-343.9,313.8z"/>
				</g>
				<g>
					<path class="st6" d="M-317.4,313.5l-1.4-4.5c-0.1-0.4-0.3-0.7-0.6-1c-0.2-0.3-0.5-0.3-0.8-0.2h-0.4v6l-1.9,0.1v-14.4l2.9-0.1
						c0.5,0,1,0,1.5,0.1c0.4,0.1,0.8,0.3,1.1,0.7c0.3,0.3,0.6,0.7,0.7,1.3c0.2,0.4,0.3,1.1,0.3,1.9c0,0.6-0.1,1-0.2,1.5
						c-0.1,0.4-0.3,0.7-0.4,1c-0.2,0.3-0.4,0.6-0.7,0.8c-0.3,0.2-0.6,0.3-0.9,0.5c0.2,0.1,0.5,0.3,0.7,0.5c0.2,0.3,0.4,0.8,0.6,1.4
						l1.6,4.7l-2.1,0.1C-317.4,313.9-317.4,313.5-317.4,313.5z M-317.9,303.5c0-0.7-0.2-1.1-0.5-1.4c-0.3-0.3-0.8-0.4-1.4-0.4h-0.8
						v4.1h0.8c0.3,0,0.6,0,0.8-0.2c0.2-0.2,0.4-0.3,0.6-0.5c0.2-0.2,0.3-0.5,0.4-0.7C-317.9,304-317.9,303.7-317.9,303.5z"/>
					<path class="st6" d="M-313.5,313.3v-14.2l5.8-0.2v2.3l-3.9,0.2v3.6l3.7-0.2v2.1l-3.7,0.2v4l3.9-0.3v2.3l-5.8,0.4V313.3z"/>
					<path class="st6" d="M-305.3,312.7v-14l5.6-0.2v2.2l-3.8,0.2v3.5l3.6-0.2v2.1l-3.6,0.2v3.9l3.8-0.3v2.2L-305.3,312.7
						L-305.3,312.7z"/>
					<path class="st6" d="M-291.6,307.6c0,0.7-0.1,1.4-0.3,1.9c-0.2,0.6-0.4,1-0.7,1.4c-0.4,0.4-0.7,0.7-1.2,0.9
						c-0.5,0.2-0.9,0.3-1.4,0.4c-0.5,0-0.9,0.1-1.4,0c-0.5-0.1-0.9-0.2-1.3-0.3v-2.5c0.2,0.1,0.5,0.2,0.6,0.2
						c0.3,0.1,0.5,0.1,0.7,0.2c0.3,0.1,0.5,0.1,0.7,0.1c0.3,0,0.5,0,0.6,0c0.4,0,0.6,0,0.8-0.2c0.2-0.1,0.5-0.2,0.5-0.4
						c0.1-0.3,0.3-0.3,0.3-0.6c0.1-0.1,0.1-0.4,0.1-0.7s-0.1-0.5-0.2-0.8c-0.1-0.3-0.3-0.4-0.5-0.5c-0.2-0.1-0.5-0.2-0.7-0.4
						c-0.3-0.1-0.5-0.2-0.8-0.4c-0.3-0.1-0.5-0.2-0.8-0.5c-0.3-0.1-0.5-0.4-0.7-0.7c-0.2-0.3-0.4-0.7-0.5-1.1
						c-0.1-0.4-0.2-1-0.2-1.5c0-0.6,0.1-1.1,0.2-1.5c0.1-0.4,0.4-1,0.6-1.3c0.3-0.4,0.6-0.7,1.1-0.9c0.5-0.3,1-0.3,1.5-0.3
						c0.2,0,0.4,0,0.5,0c0.2,0,0.4,0,0.5,0.1c0.2,0.1,0.4,0.1,0.5,0.1c0.2,0,0.4,0.1,0.4,0.1v2.3c-0.2-0.1-0.3-0.1-0.4-0.3
						c-0.2-0.1-0.4-0.1-0.5-0.1c-0.2,0-0.4-0.1-0.5-0.1c-0.2,0-0.4,0-0.5,0c-0.3,0-0.5,0-0.7,0.2c-0.2,0.1-0.4,0.2-0.5,0.3
						c-0.1,0.1-0.3,0.3-0.3,0.4c-0.1,0.1-0.1,0.4-0.1,0.7s0.1,0.5,0.2,0.7c0.1,0.1,0.3,0.4,0.5,0.5c0.2,0.1,0.5,0.3,0.7,0.4
						c0.3,0.1,0.5,0.2,0.8,0.4c0.3,0.1,0.5,0.4,0.8,0.5c0.3,0.3,0.5,0.4,0.7,0.8c0.2,0.3,0.4,0.7,0.5,1.1
						C-291.6,306.6-291.6,307.1-291.6,307.6z"/>
					<path class="st6" d="M-289.7,311.6V298l5.3-0.2v2.2l-3.6,0.2v3.4l3.4-0.2v2l-3.4,0.2v3.8l3.6-0.2v2.2l-5.3,0.4V311.6z"/>
					<path class="st6" d="M-278.2,310.8l-1.2-4.2c-0.1-0.4-0.3-0.7-0.4-0.9c-0.2-0.3-0.4-0.2-0.7-0.2h-0.3v5.5l-1.6,0.1v-13.4
						l2.5-0.1c0.4,0,0.9,0,1.3,0.1c0.3,0.1,0.7,0.2,0.9,0.6c0.3,0.3,0.5,0.6,0.6,1.2c0.2,0.4,0.3,1.1,0.3,1.7c0,0.5-0.1,0.9-0.2,1.3
						c-0.1,0.4-0.3,0.7-0.3,1c-0.2,0.3-0.3,0.6-0.6,0.7c-0.3,0.1-0.5,0.3-0.8,0.4c0.2,0.1,0.4,0.2,0.6,0.5c0.2,0.3,0.3,0.8,0.5,1.3
						l1.3,4.3L-278.2,310.8C-278.2,310.8-278.2,310.8-278.2,310.8z M-278.6,301.5c0-0.7-0.2-1.1-0.4-1.3c-0.3-0.3-0.7-0.4-1.2-0.3
						h-0.7v3.8h0.7c0.3,0,0.5,0,0.7-0.2c0.2-0.1,0.3-0.3,0.5-0.4s0.3-0.4,0.3-0.7C-278.6,302-278.6,301.7-278.6,301.5z"/>
				</g>
			</g>
			<g>
				<polygon class="st6" points="-329.3,213.8 -329.3,348.2 -387.3,314.7 -387.3,247.3 				"/>
				<polygon class="st6" points="-270.7,247.3 -270.7,314.7 -329,348.4 -329.3,348.2 -329.3,213.8 -329,213.6 				"/>
				<g>
					<g>
						<polygon id="XMLID_70_" class="st6" points="-329.3,330.9 -387.3,314.6 -387.3,247.4 -329.3,231.1 						"/>
						<polygon id="RightShield_69_" class="st6" points="-270.7,314.6 -329.3,330.9 -329.3,231.1 -270.7,247.4 						"/>
					</g>
					<g>
						<polygon id="XMLID_69_" class="st6" points="-329.3,330.9 -387.3,314.6 -387.3,247.4 -329.3,231.1 						"/>
						<polygon id="RightShield_68_" class="st6" points="-270.7,314.6 -329.3,330.9 -329.3,231.1 -270.7,247.4 						"/>
					</g>
					<g>
						<polygon id="XMLID_68_" class="st6" points="-329.3,330.9 -387.3,314.6 -387.3,247.4 -329.3,231.1 						"/>
						<polygon id="RightShield_67_" class="st6" points="-270.7,314.6 -329.3,330.9 -329.3,231.1 -270.7,247.4 						"/>
					</g>
				</g>
				<path class="st6" d="M-355.8,292.2c0-2.9,0-5.4,0-8.3c-1.9,0-3.6-0.1-5.7-0.1c-0.2,2.4,0,5.2-0.1,8.3c-3.7-0.1-7.6-0.3-11.3-0.4
					c0-14.1,0-28.3,0-42.8c9.2-0.6,18.7-1.2,29.1-1.9c0,14.8,0,30,0,45.7C-347.6,292.5-351.3,292.4-355.8,292.2z M-356.1,274.3
					c0-6.5,0-11.9,0-17.9c-2.1,0.2-3.9,0.5-5.5,0.7c0,6.3,0,11.7,0,17.3C-359.6,274.4-358,274.3-356.1,274.3z"/>
				<path class="st6" d="M-284.7,249.2c0,8.6,0,16.9,0,25.4c-1.7,0-3.3,0-5.2,0c0,3.1,0,5.8,0,8.8c1.6,0.1,3.3,0,5.1,0.1
					c0,2.5,0,5.4,0,8.8c-3.4,0.2-6.3,0.2-11,0.2c0-2.9,0-5.2,0-8.2c-2.1,0-3.9,0.1-6,0.1c0,2.7,0.1,5.1,0.1,8
					c-3.8,0.1-8.3,0.3-12.4,0.4c0-15.1,0-30.3,0-45.7C-304.1,247.8-294.5,248.5-284.7,249.2z M-296.2,274.6c0-6.4,0-11.8,0-17.7
					c-2.1,0-3.9,0.1-5.5,0.1c0,6.3,0,11.8,0,17.5C-299.8,274.6-298.1,274.6-296.2,274.6z"/>
				<g>
					<path class="st6" d="M-369.3,311.9l-0.5-2.9l-3.3-0.2l-0.6,2.8l-1.8-0.1l2.7-14.1l2.4,0.1l2.7,14.6L-369.3,311.9z M-371.3,300
						l-1.2,6.6l2.4,0.1L-371.3,300z"/>
					<path class="st6" d="M-365.9,312.1v-14.5l1.8,0.1v12.2l4.1,0.3v2.4L-365.9,312.1z"/>
					<path class="st6" d="M-357.6,312.8V298l6,0.2v2.4l-4.1-0.2v3.8l3.9,0.2v2.3l-3.9-0.2v4.2l4.1,0.3v2.4l-6-0.4V312.8z"/>
					<path class="st6" d="M-343.9,313.8l-2-5.8l-2,5.5l-2.4-0.2l3-7.6l-2.8-7.5l2.3,0.1l1.9,5.4l1.8-5.3l2.3,0.1l-2.8,7.3l3.2,8.1
						L-343.9,313.8z"/>
				</g>
				<g>
					<path class="st6" d="M-317.4,313.5l-1.4-4.5c-0.1-0.4-0.3-0.7-0.6-1c-0.2-0.3-0.5-0.3-0.8-0.2h-0.4v6l-1.9,0.1v-14.4l2.9-0.1
						c0.5,0,1,0,1.5,0.1c0.4,0.1,0.8,0.3,1.1,0.7c0.3,0.3,0.6,0.7,0.7,1.3c0.2,0.4,0.3,1.1,0.3,1.9c0,0.6-0.1,1-0.2,1.5
						c-0.1,0.4-0.3,0.7-0.4,1c-0.2,0.3-0.4,0.6-0.7,0.8c-0.3,0.2-0.6,0.3-0.9,0.5c0.2,0.1,0.5,0.3,0.7,0.5c0.2,0.3,0.4,0.8,0.6,1.4
						l1.6,4.7l-2.1,0.1C-317.4,313.9-317.4,313.5-317.4,313.5z M-317.9,303.5c0-0.7-0.2-1.1-0.5-1.4c-0.3-0.3-0.8-0.4-1.4-0.4h-0.8
						v4.1h0.8c0.3,0,0.6,0,0.8-0.2c0.2-0.2,0.4-0.3,0.6-0.5c0.2-0.2,0.3-0.5,0.4-0.7C-317.9,304-317.9,303.7-317.9,303.5z"/>
					<path class="st6" d="M-313.5,313.3v-14.2l5.8-0.2v2.3l-3.9,0.2v3.6l3.7-0.2v2.1l-3.7,0.2v4l3.9-0.3v2.3l-5.8,0.4V313.3z"/>
					<path class="st6" d="M-305.3,312.7v-14l5.6-0.2v2.2l-3.8,0.2v3.5l3.6-0.2v2.1l-3.6,0.2v3.9l3.8-0.3v2.2L-305.3,312.7
						L-305.3,312.7z"/>
					<path class="st6" d="M-291.6,307.6c0,0.7-0.1,1.4-0.3,1.9c-0.2,0.6-0.4,1-0.7,1.4c-0.4,0.4-0.7,0.7-1.2,0.9
						c-0.5,0.2-0.9,0.3-1.4,0.4c-0.5,0-0.9,0.1-1.4,0c-0.5-0.1-0.9-0.2-1.3-0.3v-2.5c0.2,0.1,0.5,0.2,0.6,0.2
						c0.3,0.1,0.5,0.1,0.7,0.2c0.3,0.1,0.5,0.1,0.7,0.1c0.3,0,0.5,0,0.6,0c0.4,0,0.6,0,0.8-0.2c0.2-0.1,0.5-0.2,0.5-0.4
						c0.1-0.3,0.3-0.3,0.3-0.6c0.1-0.1,0.1-0.4,0.1-0.7s-0.1-0.5-0.2-0.8c-0.1-0.3-0.3-0.4-0.5-0.5c-0.2-0.1-0.5-0.2-0.7-0.4
						c-0.3-0.1-0.5-0.2-0.8-0.4c-0.3-0.1-0.5-0.2-0.8-0.5c-0.3-0.1-0.5-0.4-0.7-0.7c-0.2-0.3-0.4-0.7-0.5-1.1
						c-0.1-0.4-0.2-1-0.2-1.5c0-0.6,0.1-1.1,0.2-1.5c0.1-0.4,0.4-1,0.6-1.3c0.3-0.4,0.6-0.7,1.1-0.9c0.5-0.3,1-0.3,1.5-0.3
						c0.2,0,0.4,0,0.5,0c0.2,0,0.4,0,0.5,0.1c0.2,0.1,0.4,0.1,0.5,0.1c0.2,0,0.4,0.1,0.4,0.1v2.3c-0.2-0.1-0.3-0.1-0.4-0.3
						c-0.2-0.1-0.4-0.1-0.5-0.1c-0.2,0-0.4-0.1-0.5-0.1c-0.2,0-0.4,0-0.5,0c-0.3,0-0.5,0-0.7,0.2c-0.2,0.1-0.4,0.2-0.5,0.3
						c-0.1,0.1-0.3,0.3-0.3,0.4c-0.1,0.1-0.1,0.4-0.1,0.7s0.1,0.5,0.2,0.7c0.1,0.1,0.3,0.4,0.5,0.5c0.2,0.1,0.5,0.3,0.7,0.4
						c0.3,0.1,0.5,0.2,0.8,0.4c0.3,0.1,0.5,0.4,0.8,0.5c0.3,0.3,0.5,0.4,0.7,0.8c0.2,0.3,0.4,0.7,0.5,1.1
						C-291.6,306.6-291.6,307.1-291.6,307.6z"/>
					<path class="st6" d="M-289.7,311.6V298l5.3-0.2v2.2l-3.6,0.2v3.4l3.4-0.2v2l-3.4,0.2v3.8l3.6-0.2v2.2l-5.3,0.4V311.6z"/>
					<path class="st6" d="M-278.2,310.8l-1.2-4.2c-0.1-0.4-0.3-0.7-0.4-0.9c-0.2-0.3-0.4-0.2-0.7-0.2h-0.3v5.5l-1.6,0.1v-13.4
						l2.5-0.1c0.4,0,0.9,0,1.3,0.1c0.3,0.1,0.7,0.2,0.9,0.6c0.3,0.3,0.5,0.6,0.6,1.2c0.2,0.4,0.3,1.1,0.3,1.7c0,0.5-0.1,0.9-0.2,1.3
						c-0.1,0.4-0.3,0.7-0.3,1c-0.2,0.3-0.3,0.6-0.6,0.7c-0.3,0.1-0.5,0.3-0.8,0.4c0.2,0.1,0.4,0.2,0.6,0.5c0.2,0.3,0.3,0.8,0.5,1.3
						l1.3,4.3L-278.2,310.8C-278.2,310.8-278.2,310.8-278.2,310.8z M-278.6,301.5c0-0.7-0.2-1.1-0.4-1.3c-0.3-0.3-0.7-0.4-1.2-0.3
						h-0.7v3.8h0.7c0.3,0,0.5,0,0.7-0.2c0.2-0.1,0.3-0.3,0.5-0.4s0.3-0.4,0.3-0.7C-278.6,302-278.6,301.7-278.6,301.5z"/>
				</g>
			</g>
		</g>
	</g>
</g>
</svg>
