<?xml version="1.0" encoding="utf-8"?>
<!-- Generator: Adobe Illustrator 18.0.0, SVG Export Plug-In . SVG Version: 6.00 Build 0)  -->
<!DOCTYPE svg PUBLIC "-//W3C//DTD SVG 1.1//EN" "http://www.w3.org/Graphics/SVG/1.1/DTD/svg11.dtd">
<svg version="1.1" id="Layer_1" xmlns="http://www.w3.org/2000/svg" xmlns:xlink="http://www.w3.org/1999/xlink" x="0px" y="0px"
	 viewBox="0 0 150 150" enable-background="new 0 0 150 150" xml:space="preserve">
<polygon fill="#666766" points="74.7,7.8 74.7,142.2 16.7,108.7 16.7,41.3 "/>
<polygon fill="#404041" points="133.3,41.3 133.3,108.7 75,142.4 74.7,142.2 74.7,7.8 75,7.6 "/>
<polygon id="XMLID_21_" fill="#F05A28" points="74.7,124.9 16.7,108.6 16.7,41.4 74.7,25.1 "/>
<polygon id="RightShield" fill="#26A9E0" points="133.3,108.6 74.7,124.9 74.7,25.1 133.3,41.4 "/>
<path fill="#FFFFFF" d="M48.2,86.2c0-2.9,0-5.4,0-8.3c-1.9,0-3.6-0.1-5.7-0.1c-0.2,2.4,0,5.2-0.1,8.3c-3.7-0.1-7.6-0.3-11.3-0.4
	c0-14.1,0-28.3,0-42.8c9.2-0.6,18.7-1.2,29.1-1.9c0,14.8,0,30,0,45.7C56.4,86.5,52.7,86.4,48.2,86.2z M47.9,68.3
	c0-6.5,0-11.9,0-17.9c-2.1,0.2-3.9,0.5-5.5,0.7c0,6.3,0,11.7,0,17.3C44.4,68.4,46,68.3,47.9,68.3z"/>
<path fill="#FFFFFF" d="M119.3,43.2c0,8.6,0,16.9,0,25.4c-1.7,0-3.3,0-5.2,0c0,3.1,0,5.8,0,8.8c1.6,0.1,3.3,0,5.1,0.1
	c0,2.5,0,5.4,0,8.8c-3.4,0.2-6.3,0.2-11,0.2c0-2.9,0-5.2,0-8.2c-2.1,0-3.9,0.1-6,0.1c0,2.7,0.1,5.1,0.1,8c-3.8,0.1-8.3,0.3-12.4,0.4
	c0-15.1,0-30.3,0-45.7C99.9,41.8,109.5,42.5,119.3,43.2z M107.8,68.6c0-6.4,0-11.8,0-17.7c-2.1,0-3.9,0.1-5.5,0.1
	c0,6.3,0,11.8,0,17.5C104.2,68.6,105.9,68.6,107.8,68.6z"/>
<g>
	<path fill="#FFFFFF" d="M34.7,105.9l-0.5-2.9l-3.3-0.2l-0.6,2.8l-1.8-0.1l2.7-14.1l2.4,0.1l2.7,14.6L34.7,105.9z M32.7,94l-1.2,6.6
		l2.4,0.1L32.7,94z"/>
	<path fill="#FFFFFF" d="M38.1,106.1V91.6l1.8,0.1v12.2l4.1,0.3v2.4L38.1,106.1z"/>
	<path fill="#FFFFFF" d="M46.4,106.8V92l6,0.2v2.4l-4.1-0.2v3.8l3.9,0.2v2.3l-3.9-0.2v4.2l4.1,0.3v2.4l-6-0.4V106.8z"/>
	<path fill="#FFFFFF" d="M60.1,107.8l-2-5.8l-2,5.5l-2.4-0.2l3-7.6l-2.8-7.5l2.3,0.1l1.9,5.4l1.8-5.3l2.3,0.1l-2.8,7.3l3.2,8.1
		L60.1,107.8z"/>
</g>
<g>
	<path fill="#FFFFFF" d="M86.6,107.5l-1.4-4.5c-0.1-0.4-0.3-0.7-0.6-1c-0.2-0.3-0.5-0.3-0.8-0.2l-0.4,0v6l-1.9,0.1V93.5l2.9-0.1
		c0.5,0,1,0,1.5,0.1c0.4,0.1,0.8,0.3,1.1,0.7c0.3,0.3,0.6,0.7,0.7,1.3c0.2,0.4,0.3,1.1,0.3,1.9c0,0.6-0.1,1-0.2,1.5
		c-0.1,0.4-0.3,0.7-0.4,1c-0.2,0.3-0.4,0.6-0.7,0.8c-0.3,0.2-0.6,0.3-0.9,0.5c0.2,0.1,0.5,0.3,0.7,0.5c0.2,0.3,0.4,0.8,0.6,1.4
		l1.6,4.7l-2.1,0.1V107.5z M86.1,97.5c0-0.7-0.2-1.1-0.5-1.4c-0.3-0.3-0.8-0.4-1.4-0.4l-0.8,0v4.1l0.8,0c0.3,0,0.6,0,0.8-0.2
		c0.2-0.2,0.4-0.3,0.6-0.5c0.2-0.2,0.3-0.5,0.4-0.7C86.1,98,86.1,97.7,86.1,97.5z"/>
	<path fill="#FFFFFF" d="M90.5,107.3V93.1l5.8-0.2v2.3l-3.9,0.2v3.6l3.7-0.2v2.1l-3.7,0.2v4l3.9-0.3v2.3l-5.8,0.4V107.3z"/>
	<path fill="#FFFFFF" d="M98.7,106.7v-14l5.6-0.2v2.2l-3.8,0.2v3.5l3.6-0.2v2.1l-3.6,0.2v3.9l3.8-0.3v2.2l-5.6,0.4V106.7z"/>
	<path fill="#FFFFFF" d="M112.4,101.6c0,0.7-0.1,1.4-0.3,1.9c-0.2,0.6-0.4,1-0.7,1.4c-0.4,0.4-0.7,0.7-1.2,0.9
		c-0.5,0.2-0.9,0.3-1.4,0.4c-0.5,0-0.9,0.1-1.4,0c-0.5-0.1-0.9-0.2-1.3-0.3v-2.5c0.2,0.1,0.5,0.2,0.6,0.2c0.3,0.1,0.5,0.1,0.7,0.2
		c0.3,0.1,0.5,0.1,0.7,0.1c0.3,0,0.5,0,0.6,0c0.4,0,0.6,0,0.8-0.2c0.2-0.1,0.5-0.2,0.5-0.4c0.1-0.3,0.3-0.3,0.3-0.6
		c0.1-0.1,0.1-0.4,0.1-0.7c0-0.3-0.1-0.5-0.2-0.8c-0.1-0.3-0.3-0.4-0.5-0.5c-0.2-0.1-0.5-0.2-0.7-0.4c-0.3-0.1-0.5-0.2-0.8-0.4
		c-0.3-0.1-0.5-0.2-0.8-0.5c-0.3-0.1-0.5-0.4-0.7-0.7c-0.2-0.3-0.4-0.7-0.5-1.1c-0.1-0.4-0.2-1-0.2-1.5c0-0.6,0.1-1.1,0.2-1.5
		c0.1-0.4,0.4-1,0.6-1.3c0.3-0.4,0.6-0.7,1.1-0.9c0.5-0.3,1-0.3,1.5-0.3c0.2,0,0.4,0,0.5,0c0.2,0,0.4,0,0.5,0.1
		c0.2,0.1,0.4,0.1,0.5,0.1c0.2,0,0.4,0.1,0.4,0.1v2.3c-0.2-0.1-0.3-0.1-0.4-0.3c-0.2-0.1-0.4-0.1-0.5-0.1c-0.2,0-0.4-0.1-0.5-0.1
		c-0.2,0-0.4,0-0.5,0c-0.3,0-0.5,0-0.7,0.2c-0.2,0.1-0.4,0.2-0.5,0.3c-0.1,0.1-0.3,0.3-0.3,0.4c-0.1,0.1-0.1,0.4-0.1,0.7
		c0,0.3,0.1,0.5,0.2,0.7c0.1,0.1,0.3,0.4,0.5,0.5c0.2,0.1,0.5,0.3,0.7,0.4c0.3,0.1,0.5,0.2,0.8,0.4c0.3,0.1,0.5,0.4,0.8,0.5
		c0.3,0.3,0.5,0.4,0.7,0.8c0.2,0.3,0.4,0.7,0.5,1.1C112.4,100.6,112.4,101.1,112.4,101.6z"/>
	<path fill="#FFFFFF" d="M114.3,105.6V92l5.3-0.2V94l-3.6,0.2v3.4l3.4-0.2v2l-3.4,0.2v3.8l3.6-0.2v2.2l-5.3,0.4V105.6z"/>
	<path fill="#FFFFFF" d="M125.8,104.8l-1.2-4.2c-0.1-0.4-0.3-0.7-0.4-0.9c-0.2-0.3-0.4-0.2-0.7-0.2l-0.3,0v5.5l-1.6,0.1V91.7
		l2.5-0.1c0.4,0,0.9,0,1.3,0.1c0.3,0.1,0.7,0.2,0.9,0.6c0.3,0.3,0.5,0.6,0.6,1.2c0.2,0.4,0.3,1.1,0.3,1.7c0,0.5-0.1,0.9-0.2,1.3
		c-0.1,0.4-0.3,0.7-0.3,1c-0.2,0.3-0.3,0.6-0.6,0.7c-0.3,0.1-0.5,0.3-0.8,0.4c0.2,0.1,0.4,0.2,0.6,0.5c0.2,0.3,0.3,0.8,0.5,1.3
		l1.3,4.3l-1.9,0.1V104.8z M125.4,95.5c0-0.7-0.2-1.1-0.4-1.3c-0.3-0.3-0.7-0.4-1.2-0.3l-0.7,0v3.8l0.7,0c0.3,0,0.5,0,0.7-0.2
		c0.2-0.1,0.3-0.3,0.5-0.4c0.2-0.1,0.3-0.4,0.3-0.7C125.4,96,125.4,95.7,125.4,95.5z"/>
</g>
</svg>
