<?xml version="1.0" encoding="utf-8"?>
<!-- Generator: Adobe Illustrator 19.0.0, SVG Export Plug-In . SVG Version: 6.00 Build 0)  -->
<svg version="1.1" id="Layer_1" xmlns="http://www.w3.org/2000/svg" xmlns:xlink="http://www.w3.org/1999/xlink" x="0px" y="0px"
	 viewBox="0 0 144 144" enable-background="new 0 0 144 144" xml:space="preserve">
<polygon id="XMLID_22_" fill-rule="evenodd" clip-rule="evenodd" fill="#404041" points="16,39.7 72,7.3 128,39.7 128,104.3 
	72,136.7 16,104.3 "/>
<polygon id="XMLID_21_" fill-rule="evenodd" clip-rule="evenodd" fill="#F05A28" points="71.7,119.9 16,104.3 16,39.7 71.7,24.1 "/>
<polygon id="RightShield" fill-rule="evenodd" clip-rule="evenodd" fill="#26A9E0" points="128,104.3 71.7,119.9 71.7,24.1 
	128,39.7 "/>
<path fill-rule="evenodd" clip-rule="evenodd" fill="#FFFFFF" d="M47.6,81.5c0-2.4,0-4.4,0-6.8c-2.4,0-4.4,0-7.1,0
	c-0.2,2,0,4.3-0.1,6.9c-4.7,0-9.7,0-14.6,0c0-12,0-24.1,0-36.5c11.9,0,23.8,0,36.2,0c0,11.8,0,24,0,36.5
	C57.6,81.5,53.1,81.5,47.6,81.5z M47.3,66.8c0-5.3,0-9.8,0-14.7c-2.6,0.1-4.9,0.3-6.8,0.4c0,5.2,0,9.7,0,14.4
	C42.9,66.8,44.9,66.8,47.3,66.8z"/>
<path fill-rule="evenodd" clip-rule="evenodd" fill="#FFFFFF" d="M118.2,45.1c0,7.3,0,14.4,0,21.7c-2.3,0-4.3,0-6.8,0
	c0,2.6,0,4.9,0,7.4c2.1,0.1,4.3,0,6.7,0.1c0,2.1,0,4.6,0,7.5c-4.5,0.1-8.3,0-14.2-0.1c0-2.4,0-4.3,0-6.8c-2.6,0-4.9,0-7.5,0
	c0,2.2,0.1,4.2,0.1,6.6c-4.7,0-10,0-14.9,0c0-12.1,0-24.2,0-36.5C93.6,45,105.5,45.1,118.2,45.1z M103.3,66.9c0-5.3,0-9.8,0-14.7
	c-2.6,0.1-4.9,0.2-6.8,0.3c0,5.2,0,9.7,0,14.4C98.8,66.9,100.9,66.9,103.3,66.9z"/>
<rect id="XMLID_15_" x="40.5" y="52.1" fill-rule="evenodd" clip-rule="evenodd" fill="#F05A28" width="6.8" height="14.7"/>
<g>
	<path fill="#FFFFFF" d="M33.2,101.2l-0.5-2h-3.5l-0.6,2h-1.9l2.9-9.9h2.6l2.9,9.9H33.2z M31,93.1l-1.3,4.6h2.6L31,93.1z"/>
	<path fill="#FFFFFF" d="M36.8,101.2v-9.9h1.9v8.3h4.2v1.6H36.8z"/>
	<path fill="#FFFFFF" d="M45.3,101.2v-9.9h6v1.6h-4.1v2.5h3.9v1.5h-3.9v2.8h4.1v1.6H45.3z"/>
	<path fill="#FFFFFF" d="M58.6,101.2l-1.9-3.7l-1.9,3.7h-2.3l2.9-5.1l-2.7-4.8h2.2l1.8,3.5l1.7-3.5h2.2L58,96.1l3,5.1H58.6z"/>
</g>
<g>
	<path fill="#FFFFFF" d="M80.2,101.2L78.8,98c-0.1-0.3-0.3-0.5-0.6-0.7c-0.2-0.2-0.5-0.2-0.8-0.2h-0.4v4.1h-1.9v-9.9h2.9
		c0.5,0,1,0,1.5,0.1c0.4,0.1,0.8,0.2,1.1,0.5c0.3,0.2,0.6,0.5,0.7,0.9c0.2,0.3,0.3,0.8,0.3,1.3c0,0.4-0.1,0.7-0.2,1
		c-0.1,0.3-0.3,0.5-0.4,0.7c-0.2,0.2-0.4,0.4-0.7,0.5c-0.3,0.1-0.6,0.2-0.9,0.3c0.2,0.1,0.5,0.2,0.7,0.4c0.2,0.2,0.4,0.6,0.6,1
		l1.6,3.3H80.2z M79.7,94.2c0-0.5-0.2-0.8-0.5-1c-0.3-0.2-0.8-0.3-1.4-0.3h-0.8v2.8h0.8c0.3,0,0.6,0,0.8-0.1
		c0.2-0.1,0.4-0.2,0.6-0.3c0.2-0.1,0.3-0.3,0.4-0.5C79.7,94.6,79.7,94.4,79.7,94.2z"/>
	<path fill="#FFFFFF" d="M84.2,101.2v-9.9h6v1.6h-4.1v2.5H90v1.5h-3.9v2.8h4.1v1.6H84.2z"/>
	<path fill="#FFFFFF" d="M92.7,101.2v-9.9h6v1.6h-4.1v2.5h3.9v1.5h-3.9v2.8h4.1v1.6H92.7z"/>
	<path fill="#FFFFFF" d="M107.6,98.2c0,0.5-0.1,1-0.3,1.4c-0.2,0.4-0.5,0.7-0.8,1c-0.4,0.3-0.8,0.5-1.3,0.6c-0.5,0.1-1,0.2-1.6,0.2
		c-0.5,0-1,0-1.5-0.1c-0.5-0.1-1-0.2-1.4-0.3v-1.8c0.2,0.1,0.5,0.2,0.7,0.2c0.3,0.1,0.5,0.1,0.8,0.2c0.3,0.1,0.5,0.1,0.8,0.1
		c0.3,0,0.5,0,0.7,0c0.4,0,0.7,0,0.9-0.1c0.2-0.1,0.5-0.1,0.6-0.3s0.3-0.2,0.3-0.4c0.1-0.1,0.1-0.3,0.1-0.5c0-0.2-0.1-0.4-0.2-0.6
		c-0.1-0.2-0.3-0.3-0.5-0.4c-0.2-0.1-0.5-0.2-0.8-0.3c-0.3-0.1-0.6-0.2-0.9-0.3c-0.3-0.1-0.6-0.2-0.9-0.4c-0.3-0.1-0.6-0.3-0.8-0.5
		c-0.2-0.2-0.4-0.5-0.6-0.8c-0.1-0.3-0.2-0.7-0.2-1.1c0-0.4,0.1-0.8,0.2-1.1c0.1-0.3,0.4-0.7,0.7-0.9c0.3-0.3,0.7-0.5,1.2-0.6
		c0.5-0.2,1.1-0.2,1.7-0.2c0.2,0,0.4,0,0.6,0c0.2,0,0.4,0,0.6,0.1s0.4,0.1,0.6,0.1c0.2,0,0.4,0.1,0.5,0.1v1.7
		c-0.2-0.1-0.3-0.1-0.5-0.2c-0.2-0.1-0.4-0.1-0.6-0.1c-0.2,0-0.4-0.1-0.6-0.1c-0.2,0-0.4,0-0.6,0c-0.3,0-0.6,0-0.8,0.1
		c-0.2,0.1-0.4,0.1-0.6,0.2c-0.1,0.1-0.3,0.2-0.3,0.3c-0.1,0.1-0.1,0.3-0.1,0.5c0,0.2,0.1,0.4,0.2,0.5c0.1,0.1,0.3,0.3,0.6,0.4
		c0.2,0.1,0.5,0.2,0.8,0.3c0.3,0.1,0.6,0.2,0.9,0.3c0.3,0.1,0.6,0.3,0.9,0.4c0.3,0.2,0.6,0.3,0.8,0.6c0.2,0.2,0.4,0.5,0.6,0.8
		C107.6,97.5,107.6,97.8,107.6,98.2z"/>
	<path fill="#FFFFFF" d="M109.8,101.2v-9.9h6v1.6h-4.1v2.5h3.9v1.5h-3.9v2.8h4.1v1.6H109.8z"/>
	<path fill="#FFFFFF" d="M123,101.2l-1.4-3.2c-0.1-0.3-0.3-0.5-0.5-0.7c-0.2-0.2-0.5-0.2-0.8-0.2h-0.4v4.1H118v-9.9h2.9
		c0.5,0,1,0,1.5,0.1c0.4,0.1,0.8,0.2,1.1,0.5c0.3,0.2,0.6,0.5,0.7,0.9c0.2,0.3,0.3,0.8,0.3,1.3c0,0.4-0.1,0.7-0.2,1
		c-0.1,0.3-0.3,0.5-0.4,0.7c-0.2,0.2-0.4,0.4-0.7,0.5c-0.3,0.1-0.6,0.2-0.9,0.3c0.2,0.1,0.5,0.2,0.7,0.4c0.2,0.2,0.4,0.6,0.6,1
		l1.6,3.3H123z M122.5,94.2c0-0.5-0.2-0.8-0.5-1c-0.3-0.2-0.8-0.3-1.4-0.3h-0.8v2.8h0.8c0.3,0,0.6,0,0.8-0.1
		c0.2-0.1,0.4-0.2,0.6-0.3c0.2-0.1,0.3-0.3,0.4-0.5C122.5,94.6,122.5,94.4,122.5,94.2z"/>
</g>
</svg>
