<?xml version="1.0" encoding="utf-8"?>
<!-- Generator: Adobe Illustrator 18.0.0, SVG Export Plug-In . SVG Version: 6.00 Build 0)  -->
<!DOCTYPE svg PUBLIC "-//W3C//DTD SVG 1.1//EN" "http://www.w3.org/Graphics/SVG/1.1/DTD/svg11.dtd">
<svg version="1.1" id="Layer_1" xmlns="http://www.w3.org/2000/svg" xmlns:xlink="http://www.w3.org/1999/xlink" x="0px" y="0px"
	 viewBox="-384 -384 800 800" enable-background="new -384 -384 800 800" xml:space="preserve">
<g>
	<g>
		<g>
			
				<radialGradient id="SVGID_1_" cx="432.4634" cy="38.9659" r="12.1771" gradientTransform="matrix(1.5809 0 0 0.18 -508.5518 31.9521)" gradientUnits="userSpaceOnUse">
				<stop  offset="0" style="stop-color:#FFFFFF"/>
				<stop  offset="0.2704" style="stop-color:#FDFDFE"/>
				<stop  offset="0.4159" style="stop-color:#F5F5FA"/>
				<stop  offset="0.5318" style="stop-color:#E7E7F2"/>
				<stop  offset="0.632" style="stop-color:#D4D4E8"/>
				<stop  offset="0.7221" style="stop-color:#BBBCDB"/>
				<stop  offset="0.8049" style="stop-color:#9C9DCB"/>
				<stop  offset="0.8823" style="stop-color:#7779B7"/>
				<stop  offset="0.9533" style="stop-color:#4E50A2"/>
				<stop  offset="1" style="stop-color:#2E3191"/>
			</radialGradient>
			<path fill="url(#SVGID_1_)" d="M199.2,41.7H151c-1.5,0-2.8-1.2-2.8-2.7v0c0-1.5,1.2-2.7,2.8-2.7h48.3c1.5,0,2.8,1.2,2.8,2.7v0
				C202,40.5,200.8,41.7,199.2,41.7z"/>
			
				<radialGradient id="SVGID_2_" cx="363.5131" cy="47.3826" r="12.1771" gradientTransform="matrix(1.3659 0 0 0.18 -321.3841 38.8537)" gradientUnits="userSpaceOnUse">
				<stop  offset="0" style="stop-color:#FFFFFF"/>
				<stop  offset="0.2704" style="stop-color:#FDFDFE"/>
				<stop  offset="0.4159" style="stop-color:#F5F5FA"/>
				<stop  offset="0.5318" style="stop-color:#E7E7F2"/>
				<stop  offset="0.632" style="stop-color:#D4D4E8"/>
				<stop  offset="0.7221" style="stop-color:#BBBCDB"/>
				<stop  offset="0.8049" style="stop-color:#9C9DCB"/>
				<stop  offset="0.8823" style="stop-color:#7779B7"/>
				<stop  offset="0.9533" style="stop-color:#4E50A2"/>
				<stop  offset="1" style="stop-color:#2E3191"/>
			</radialGradient>
			<path fill="url(#SVGID_2_)" d="M195.6,50.1h-40.9c-1.5,0-2.8-1.2-2.8-2.7v0c0-1.5,1.2-2.7,2.8-2.7h40.9c1.5,0,2.7,1.2,2.7,2.7v0
				C198.3,48.9,197.1,50.1,195.6,50.1z"/>
			
				<radialGradient id="SVGID_3_" cx="363.5131" cy="30.5493" r="12.1771" gradientTransform="matrix(1.3659 0 0 0.18 -321.3841 25.0504)" gradientUnits="userSpaceOnUse">
				<stop  offset="0" style="stop-color:#FFFFFF"/>
				<stop  offset="0.2704" style="stop-color:#FDFDFE"/>
				<stop  offset="0.4159" style="stop-color:#F5F5FA"/>
				<stop  offset="0.5318" style="stop-color:#E7E7F2"/>
				<stop  offset="0.632" style="stop-color:#D4D4E8"/>
				<stop  offset="0.7221" style="stop-color:#BBBCDB"/>
				<stop  offset="0.8049" style="stop-color:#9C9DCB"/>
				<stop  offset="0.8823" style="stop-color:#7779B7"/>
				<stop  offset="0.9533" style="stop-color:#4E50A2"/>
				<stop  offset="1" style="stop-color:#2E3191"/>
			</radialGradient>
			<path fill="url(#SVGID_3_)" d="M195.6,33.3h-40.9c-1.5,0-2.8-1.2-2.8-2.7v0c0-1.5,1.2-2.7,2.8-2.7h40.9c1.5,0,2.7,1.2,2.7,2.7v0
				C198.3,32.1,197.1,33.3,195.6,33.3z"/>
			
				<radialGradient id="SVGID_4_" cx="186.8112" cy="22.1326" r="12.1771" gradientTransform="matrix(1.0142 0 0 0.18 -14.3398 18.1487)" gradientUnits="userSpaceOnUse">
				<stop  offset="0" style="stop-color:#FFFFFF"/>
				<stop  offset="0.2704" style="stop-color:#FDFDFE"/>
				<stop  offset="0.4159" style="stop-color:#F5F5FA"/>
				<stop  offset="0.5318" style="stop-color:#E7E7F2"/>
				<stop  offset="0.632" style="stop-color:#D4D4E8"/>
				<stop  offset="0.7221" style="stop-color:#BBBCDB"/>
				<stop  offset="0.8049" style="stop-color:#9C9DCB"/>
				<stop  offset="0.8823" style="stop-color:#7779B7"/>
				<stop  offset="0.9533" style="stop-color:#4E50A2"/>
				<stop  offset="1" style="stop-color:#2E3191"/>
			</radialGradient>
			<path fill="url(#SVGID_4_)" d="M189.6,24.9h-29c-1.5,0-2.8-1.2-2.8-2.7v0c0-1.5,1.2-2.7,2.8-2.7h29c1.5,0,2.8,1.2,2.8,2.7v0
				C192.4,23.7,191.1,24.9,189.6,24.9z"/>
			
				<radialGradient id="SVGID_5_" cx="186.8112" cy="55.7993" r="12.1771" gradientTransform="matrix(1.0142 0 0 0.18 -14.3398 45.7554)" gradientUnits="userSpaceOnUse">
				<stop  offset="0" style="stop-color:#FFFFFF"/>
				<stop  offset="0.2704" style="stop-color:#FDFDFE"/>
				<stop  offset="0.4159" style="stop-color:#F5F5FA"/>
				<stop  offset="0.5318" style="stop-color:#E7E7F2"/>
				<stop  offset="0.632" style="stop-color:#D4D4E8"/>
				<stop  offset="0.7221" style="stop-color:#BBBCDB"/>
				<stop  offset="0.8049" style="stop-color:#9C9DCB"/>
				<stop  offset="0.8823" style="stop-color:#7779B7"/>
				<stop  offset="0.9533" style="stop-color:#4E50A2"/>
				<stop  offset="1" style="stop-color:#2E3191"/>
			</radialGradient>
			<path fill="url(#SVGID_5_)" d="M189.6,58.5h-29c-1.5,0-2.8-1.2-2.8-2.8v0c0-1.5,1.2-2.7,2.8-2.7h29c1.5,0,2.8,1.2,2.8,2.7v0
				C192.4,57.3,191.1,58.5,189.6,58.5z"/>
		</g>
		<g>
			
				<radialGradient id="SVGID_6_" cx="432.4634" cy="-12.0341" r="12.1771" gradientTransform="matrix(1.5809 0 0 0.18 -508.5518 -9.8679)" gradientUnits="userSpaceOnUse">
				<stop  offset="0" style="stop-color:#FFFFFF"/>
				<stop  offset="0.2704" style="stop-color:#FDFDFE"/>
				<stop  offset="0.4159" style="stop-color:#F5F5FA"/>
				<stop  offset="0.5318" style="stop-color:#E7E7F2"/>
				<stop  offset="0.632" style="stop-color:#D4D4E8"/>
				<stop  offset="0.7221" style="stop-color:#BBBCDB"/>
				<stop  offset="0.8049" style="stop-color:#9C9DCB"/>
				<stop  offset="0.8823" style="stop-color:#7779B7"/>
				<stop  offset="0.9533" style="stop-color:#4E50A2"/>
				<stop  offset="1" style="stop-color:#2E3191"/>
			</radialGradient>
			<path fill="url(#SVGID_6_)" d="M199.2-9.3H151c-1.5,0-2.8-1.2-2.8-2.7v0c0-1.5,1.2-2.7,2.8-2.7h48.3c1.5,0,2.8,1.2,2.8,2.7v0
				C202-10.5,200.8-9.3,199.2-9.3z"/>
			
				<radialGradient id="SVGID_7_" cx="363.5131" cy="-3.6174" r="12.1771" gradientTransform="matrix(1.3659 0 0 0.18 -321.3841 -2.9663)" gradientUnits="userSpaceOnUse">
				<stop  offset="0" style="stop-color:#FFFFFF"/>
				<stop  offset="0.2704" style="stop-color:#FDFDFE"/>
				<stop  offset="0.4159" style="stop-color:#F5F5FA"/>
				<stop  offset="0.5318" style="stop-color:#E7E7F2"/>
				<stop  offset="0.632" style="stop-color:#D4D4E8"/>
				<stop  offset="0.7221" style="stop-color:#BBBCDB"/>
				<stop  offset="0.8049" style="stop-color:#9C9DCB"/>
				<stop  offset="0.8823" style="stop-color:#7779B7"/>
				<stop  offset="0.9533" style="stop-color:#4E50A2"/>
				<stop  offset="1" style="stop-color:#2E3191"/>
			</radialGradient>
			<path fill="url(#SVGID_7_)" d="M195.6-0.9h-40.9c-1.5,0-2.8-1.2-2.8-2.7v0c0-1.5,1.2-2.7,2.8-2.7h40.9c1.5,0,2.7,1.2,2.7,2.7v0
				C198.3-2.1,197.1-0.9,195.6-0.9z"/>
			
				<radialGradient id="SVGID_8_" cx="363.5131" cy="-20.4507" r="12.1771" gradientTransform="matrix(1.3659 0 0 0.18 -321.3841 -16.7696)" gradientUnits="userSpaceOnUse">
				<stop  offset="0" style="stop-color:#FFFFFF"/>
				<stop  offset="0.2704" style="stop-color:#FDFDFE"/>
				<stop  offset="0.4159" style="stop-color:#F5F5FA"/>
				<stop  offset="0.5318" style="stop-color:#E7E7F2"/>
				<stop  offset="0.632" style="stop-color:#D4D4E8"/>
				<stop  offset="0.7221" style="stop-color:#BBBCDB"/>
				<stop  offset="0.8049" style="stop-color:#9C9DCB"/>
				<stop  offset="0.8823" style="stop-color:#7779B7"/>
				<stop  offset="0.9533" style="stop-color:#4E50A2"/>
				<stop  offset="1" style="stop-color:#2E3191"/>
			</radialGradient>
			<path fill="url(#SVGID_8_)" d="M195.6-17.7h-40.9c-1.5,0-2.8-1.2-2.8-2.7v0c0-1.5,1.2-2.7,2.8-2.7h40.9c1.5,0,2.7,1.2,2.7,2.7v0
				C198.3-18.9,197.1-17.7,195.6-17.7z"/>
			
				<radialGradient id="SVGID_9_" cx="186.8112" cy="-28.8674" r="12.1771" gradientTransform="matrix(1.0142 0 0 0.18 -14.3398 -23.6713)" gradientUnits="userSpaceOnUse">
				<stop  offset="0" style="stop-color:#FFFFFF"/>
				<stop  offset="0.2704" style="stop-color:#FDFDFE"/>
				<stop  offset="0.4159" style="stop-color:#F5F5FA"/>
				<stop  offset="0.5318" style="stop-color:#E7E7F2"/>
				<stop  offset="0.632" style="stop-color:#D4D4E8"/>
				<stop  offset="0.7221" style="stop-color:#BBBCDB"/>
				<stop  offset="0.8049" style="stop-color:#9C9DCB"/>
				<stop  offset="0.8823" style="stop-color:#7779B7"/>
				<stop  offset="0.9533" style="stop-color:#4E50A2"/>
				<stop  offset="1" style="stop-color:#2E3191"/>
			</radialGradient>
			<path fill="url(#SVGID_9_)" d="M189.6-26.1h-29c-1.5,0-2.8-1.2-2.8-2.7v0c0-1.5,1.2-2.7,2.8-2.7h29c1.5,0,2.8,1.2,2.8,2.7v0
				C192.4-27.3,191.1-26.1,189.6-26.1z"/>
			
				<radialGradient id="SVGID_10_" cx="186.8112" cy="4.7993" r="12.1771" gradientTransform="matrix(1.0142 0 0 0.18 -14.3398 3.9354)" gradientUnits="userSpaceOnUse">
				<stop  offset="0" style="stop-color:#FFFFFF"/>
				<stop  offset="0.2704" style="stop-color:#FDFDFE"/>
				<stop  offset="0.4159" style="stop-color:#F5F5FA"/>
				<stop  offset="0.5318" style="stop-color:#E7E7F2"/>
				<stop  offset="0.632" style="stop-color:#D4D4E8"/>
				<stop  offset="0.7221" style="stop-color:#BBBCDB"/>
				<stop  offset="0.8049" style="stop-color:#9C9DCB"/>
				<stop  offset="0.8823" style="stop-color:#7779B7"/>
				<stop  offset="0.9533" style="stop-color:#4E50A2"/>
				<stop  offset="1" style="stop-color:#2E3191"/>
			</radialGradient>
			<path fill="url(#SVGID_10_)" d="M189.6,7.5h-29c-1.5,0-2.8-1.2-2.8-2.7v0c0-1.5,1.2-2.7,2.8-2.7h29c1.5,0,2.8,1.2,2.8,2.7v0
				C192.4,6.3,191.1,7.5,189.6,7.5z"/>
		</g>
		<path fill="#2E3191" stroke="#2E3191" stroke-miterlimit="10" d="M151.5,39h-6c0-14.6,14.4-21.5,28.4-28.2
			c12.8-6.1,25-11.9,25-22.8h6c0,14.6-14.4,21.5-28.4,28.2C163.6,22.3,151.5,28.1,151.5,39z"/>
		<path fill="#2E3191" stroke="#2E3191" stroke-miterlimit="10" d="M151.5-12h-6c0-14.6,14.4-21.5,28.4-28.2
			c12.8-6.1,25-11.9,25-22.8h6c0,14.6-14.4,21.5-28.4,28.2C163.6-28.7,151.5-22.9,151.5-12z"/>
		
			<linearGradient id="SVGID_11_" gradientUnits="userSpaceOnUse" x1="145.4555" y1="1685.2975" x2="204.7885" y2="1685.2975" gradientTransform="matrix(1 0 0 -1 0 1647.7649)">
			<stop  offset="9.139785e-002" style="stop-color:#2E3191"/>
			<stop  offset="0.2802" style="stop-color:#9395C6"/>
			<stop  offset="0.4892" style="stop-color:#FFFFFF"/>
			<stop  offset="0.5495" style="stop-color:#FBFBFD"/>
			<stop  offset="0.6092" style="stop-color:#EFEFF7"/>
			<stop  offset="0.6686" style="stop-color:#DBDCEC"/>
			<stop  offset="0.728" style="stop-color:#BFC0DD"/>
			<stop  offset="0.7873" style="stop-color:#9B9DCB"/>
			<stop  offset="0.8466" style="stop-color:#6F71B3"/>
			<stop  offset="0.9048" style="stop-color:#3C3F98"/>
			<stop  offset="0.9194" style="stop-color:#2E3191"/>
		</linearGradient>
		<path fill="url(#SVGID_11_)" stroke="#2E3191" stroke-miterlimit="10" d="M204.8-12h-6c0-10.9-12.1-16.7-25-22.8
			c-14-6.7-28.4-13.6-28.4-28.2h6c0,10.9,12.1,16.7,25,22.8C190.4-33.6,204.8-26.7,204.8-12z"/>
		<path fill="#2E3191" stroke="#2E3191" stroke-miterlimit="10" d="M151.5,90h-6c0-14.6,14.4-21.5,28.4-28.2
			c12.8-6.1,25-11.9,25-22.8h6c0,14.6-14.4,21.5-28.4,28.2C163.6,73.3,151.5,79.1,151.5,90z"/>
		
			<linearGradient id="SVGID_12_" gradientUnits="userSpaceOnUse" x1="145.4555" y1="1583.3033" x2="204.7885" y2="1583.3033" gradientTransform="matrix(1 0 0 -1 0 1647.7649)">
			<stop  offset="9.139785e-002" style="stop-color:#2E3191"/>
			<stop  offset="0.2802" style="stop-color:#9395C6"/>
			<stop  offset="0.4892" style="stop-color:#FFFFFF"/>
			<stop  offset="0.5495" style="stop-color:#FBFBFD"/>
			<stop  offset="0.6092" style="stop-color:#EFEFF7"/>
			<stop  offset="0.6686" style="stop-color:#DBDCEC"/>
			<stop  offset="0.728" style="stop-color:#BFC0DD"/>
			<stop  offset="0.7873" style="stop-color:#9B9DCB"/>
			<stop  offset="0.8466" style="stop-color:#6F71B3"/>
			<stop  offset="0.9048" style="stop-color:#3C3F98"/>
			<stop  offset="0.9194" style="stop-color:#2E3191"/>
		</linearGradient>
		<path fill="url(#SVGID_12_)" stroke="#2E3191" stroke-miterlimit="10" d="M204.8,90h-6c0-10.9-12.1-16.7-25-22.8
			c-14-6.7-28.4-13.6-28.4-28.2h6c0,10.9,12.1,16.7,25,22.8C190.4,68.4,204.8,75.3,204.8,90z"/>
		
			<linearGradient id="SVGID_13_" gradientUnits="userSpaceOnUse" x1="145.4555" y1="1634.3004" x2="204.7885" y2="1634.3004" gradientTransform="matrix(1 0 0 -1 0 1647.7649)">
			<stop  offset="9.139785e-002" style="stop-color:#2E3191"/>
			<stop  offset="0.2802" style="stop-color:#9395C6"/>
			<stop  offset="0.4892" style="stop-color:#FFFFFF"/>
			<stop  offset="0.5495" style="stop-color:#FBFBFD"/>
			<stop  offset="0.6092" style="stop-color:#EFEFF7"/>
			<stop  offset="0.6686" style="stop-color:#DBDCEC"/>
			<stop  offset="0.728" style="stop-color:#BFC0DD"/>
			<stop  offset="0.7873" style="stop-color:#9B9DCB"/>
			<stop  offset="0.8466" style="stop-color:#6F71B3"/>
			<stop  offset="0.9048" style="stop-color:#3C3F98"/>
			<stop  offset="0.9194" style="stop-color:#2E3191"/>
		</linearGradient>
		<path fill="url(#SVGID_13_)" stroke="#2E3191" stroke-miterlimit="10" d="M204.8,39h-6c0-10.9-12.1-16.7-25-22.8
			c-14-6.7-28.4-13.6-28.4-28.2h6c0,10.9,12.1,16.7,25,22.8C190.4,17.4,204.8,24.3,204.8,39z"/>
	</g>
	<polygon fill="#231F20" points="-64.5,-28.4 -64.5,62.9 16,106.9 94.8,62.9 94.8,-30.4 15.2,-75.1 	"/>
	<circle fill="#25A8E0" cx="16" cy="15.9" r="32.3"/>
	<circle fill="#929497" cx="69.8" cy="11.2" r="8.3"/>
	<polygon fill="#009345" points="-2.8,-5.1 -10.2,2.9 -14.8,6.1 -2.8,2.9 -1.6,8.1 -0.5,13.9 1.5,19.6 4.2,26.9 8.8,32.9 8.8,25.2 
		11.8,30.6 11.8,35.9 11.8,42.6 16,45.6 19.5,48.2 25.9,46.7 29.8,41.6 29.8,34.6 24.5,31.2 18.5,31.2 15.2,25.9 18.2,24.2 
		24.7,25.8 23,20.1 24.7,15.2 27.1,11.2 24.3,10.2 27.3,8.6 28.1,11.2 29.8,10.7 27.8,4.9 23,5.7 21.3,11.2 17.5,8.4 19.7,5.2 
		25.5,1.8 23,-1.1 23,-5.1 29.8,-1.4 32.5,6.9 35.2,2.9 31.8,-5.1 30.8,-7.4 31.6,-12.4 16,-7.8 	"/>
	<path fill="#E6E7E8" d="M31.4-11.1c0,3.1-9.4,5.8-16,5.8S-6.5-3.4-6.5-6.5s11.2-9.9,21.9-9.9C22-16.4,31.4-14.2,31.4-11.1z"/>
	<circle fill="#E6E7E8" cx="16.1" cy="-48.5" r="2.2"/>
	<circle fill="#E6E7E8" cx="-33.2" cy="-22.4" r="2.2"/>
	<circle fill="#E6E7E8" cx="-46.2" cy="57.6" r="2.2"/>
	<circle fill="#E6E7E8" cx="-21.8" cy="46" r="2.2"/>
	<circle fill="#E6E7E8" cx="6.5" cy="72.9" r="2.2"/>
	<circle fill="#E6E7E8" cx="44.7" cy="75.1" r="2.2"/>
	<circle fill="#E6E7E8" cx="42.5" cy="46" r="2.2"/>
	<circle fill="#E6E7E8" cx="72.1" cy="48.2" r="2.2"/>
	<circle fill="#E6E7E8" cx="48.3" cy="-10.6" r="2.2"/>
	<circle fill="#E6E7E8" cx="48.3" cy="-35.8" r="2.2"/>
	<circle fill="#E6E7E8" cx="74.3" cy="-12.4" r="2.2"/>
	<circle fill="#E6E7E8" cx="-37.9" cy="11.2" r="2.2"/>
	<g>
		<path fill="#009345" d="M-144.8,32.1c-1.9-0.5-5-0.9-7.6-2.2c-2.9-1.4-4.5-1.1-5.9,1.7c-0.5,1-1.9,2-2.9,2c-0.7,0-2.2-1.5-2.2-2.3
			c0-1.2,0.9-2.7,1.8-3.4c2.1-1.6,2.9-3,2.2-5.9c-1.5-6.2,2.5-12.5,9.2-16.3c4.7-2.7,9.9-2.6,15.1-2.7c3.9-0.1,7.4-0.6,10.4-3.5
			c2.1-2,3.9-1.2,4.9,2c2.2,7.2,1.3,14-3.3,19.9C-128.3,28-135.4,31.3-144.8,32.1z M-130.4,13.1c-1.4-0.9-2-1.7-2.8-1.8
			c-5.9-1.1-17.8,4.8-20.6,10.3c-0.3,0.6-0.2,1.9,0.2,2.2c0.5,0.4,1.6,0.3,2.3,0c0.7-0.2,1.2-0.9,1.7-1.5c4.3-4.7,9.5-7.6,16.1-7.8
			C-132.7,14.5-132,13.8-130.4,13.1z"/>
		<path d="M-115.3,52.4c-25.7,13-49.3,8.9-63.1-10c-13.5-18.4-11.7-43.6,4.1-59.5c15.7-15.8,40.4-17.7,58.6-4.7
			c19.5,13.9,23.7,37.3,10.4,64.6c6.6,6,13.7,12.5,20.8,19c4.1,3.8,6.3,8.2,1.7,12.9c-4.8,5-8.9,2.1-12.7-1.9
			C-102,66-108.6,59.3-115.3,52.4z M-142.4-14.3c-16.7,0-29.5,12.9-29.4,29.5c0.1,16.6,13,29.2,29.8,29.1
			c16.7,0,29.4-12.9,29.4-29.5C-112.7-1.7-125.6-14.3-142.4-14.3z"/>
	</g>
	<g>
		<g>
			<rect x="88" y="128" fill="#F05B26" width="58" height="58"/>
		</g>
		<g>
			<path d="M31.5,138.7h4.8v32.9H52v4H31.5V138.7z"/>
			<path d="M63.3,164l-3.8,11.6h-4.9L67,138.7h5.7l12.6,36.8h-5.1L76.3,164H63.3z M75.3,160.3l-3.6-10.6c-0.8-2.4-1.4-4.6-1.9-6.7
				h-0.1c-0.5,2.2-1.1,4.4-1.9,6.7l-3.6,10.7H75.3z"/>
			<path fill="#FFFFFF" d="M90.7,139.2c2.4-0.5,5.8-0.8,9.1-0.8c5.1,0,8.4,0.9,10.7,3c1.9,1.6,2.9,4.2,2.9,7c0,4.9-3.1,8.1-6.9,9.4
				v0.2c2.8,1,4.5,3.6,5.4,7.4c1.2,5.1,2.1,8.7,2.8,10.1h-4.9c-0.6-1-1.4-4.2-2.5-8.8c-1.1-5.1-3.1-7-7.4-7.2h-4.5v16h-4.8V139.2z
				 M95.5,156h4.9c5.1,0,8.3-2.8,8.3-7c0-4.8-3.4-6.8-8.5-6.9c-2.3,0-3.9,0.2-4.7,0.4V156z"/>
			<path fill="#FFFFFF" d="M120.2,139.2c2.3-0.4,5.3-0.7,9.1-0.7c4.7,0,8.1,1.1,10.3,3.1c2,1.7,3.2,4.4,3.2,7.7c0,3.3-1,6-2.8,7.9
				c-2.5,2.7-6.6,4-11.3,4c-1.4,0-2.7-0.1-3.8-0.3v14.8h-4.8V139.2z M124.9,156.9c1,0.3,2.4,0.4,3.9,0.4c5.7,0,9.2-2.8,9.2-7.9
				c0-4.9-3.4-7.2-8.7-7.2c-2.1,0-3.7,0.2-4.5,0.4V156.9z"/>
			<path d="M148.2,157.4c0-3.1-0.1-5.8-0.2-8.3h4.2l0.2,5.2h0.2c1.2-3.6,4.1-5.8,7.3-5.8c0.5,0,0.9,0.1,1.4,0.2v4.5
				c-0.5-0.1-1-0.2-1.6-0.2c-3.4,0-5.8,2.6-6.5,6.2c-0.1,0.7-0.2,1.4-0.2,2.2v14.1h-4.8V157.4z"/>
		</g>
	</g>
	<radialGradient id="SVGID_14_" cx="-61.7628" cy="155.5159" r="56.1854" gradientUnits="userSpaceOnUse">
		<stop  offset="0" style="stop-color:#86C440;stop-opacity:0.7"/>
		<stop  offset="0.151" style="stop-color:#81C240;stop-opacity:0.7453"/>
		<stop  offset="0.3297" style="stop-color:#73BD41;stop-opacity:0.7989"/>
		<stop  offset="0.5224" style="stop-color:#5BB442;stop-opacity:0.8567"/>
		<stop  offset="0.725" style="stop-color:#3AA843;stop-opacity:0.9175"/>
		<stop  offset="0.9333" style="stop-color:#0F9944;stop-opacity:0.98"/>
		<stop  offset="1" style="stop-color:#009345"/>
	</radialGradient>
	<circle fill="url(#SVGID_14_)" cx="-61.8" cy="155.5" r="56.2"/>
	<path fill="#FFF100" d="M-5.6,155.3c0,29.2-22.3,53.2-50.8,55.9c0,0,0,0,0,0c-1.8,0.2-3.6,0.3-5.4,0.3v-1.3
		c29.7-0.7,53.6-25,53.6-54.9c0-29.9-23.9-54.2-53.6-54.9v-1.3C-30.7,99.1-5.6,124.3-5.6,155.3z"/>
	<radialGradient id="SVGID_15_" cx="-61.7653" cy="155.3278" r="39.7291" gradientUnits="userSpaceOnUse">
		<stop  offset="0" style="stop-color:#86C440;stop-opacity:0.7"/>
		<stop  offset="0.151" style="stop-color:#81C240;stop-opacity:0.7453"/>
		<stop  offset="0.3297" style="stop-color:#73BD41;stop-opacity:0.7989"/>
		<stop  offset="0.5224" style="stop-color:#5BB442;stop-opacity:0.8567"/>
		<stop  offset="0.725" style="stop-color:#3AA843;stop-opacity:0.9175"/>
		<stop  offset="0.9333" style="stop-color:#0F9944;stop-opacity:0.98"/>
		<stop  offset="1" style="stop-color:#009345"/>
	</radialGradient>
	<path fill="url(#SVGID_15_)" d="M-61.8,211.5V99.1"/>
	<radialGradient id="SVGID_16_" cx="-46.6188" cy="155.3225" r="25.0463" gradientUnits="userSpaceOnUse">
		<stop  offset="0" style="stop-color:#006838"/>
		<stop  offset="0.7634" style="stop-color:#009345"/>
	</radialGradient>
	<polygon fill="url(#SVGID_16_)" points="-31.2,161.6 -47.4,160.4 -33.6,168.9 -49,163.9 -37.6,175.4 -51.4,166.9 -43.1,180.8 
		-54.4,169.3 -49.8,184.7 -58,170.8 -57.1,187 -61.8,171.4 -62.5,175.6 -62.5,135.4 -60.3,123.7 -59.5,139.9 -52.8,125.1 -55.9,141 
		-45.8,128.4 -52.6,143.1 -39.8,133.2 -49.9,145.8 -35.1,139.3 -47.9,149.1 -32,146.3 -46.8,152.8 -30.7,153.9 -46.6,156.6 	"/>
	<polygon fill="#EC1C24" points="-64.1,153.9 -64.3,153.8 -64.1,153.6 	"/>
	<g>
		<g>
			<g>
				<rect x="-58.6" y="166" fill="none" width="3.7" height="3.7"/>
				<circle fill="#231F20" cx="-56.7" cy="167.9" r="1.9"/>
			</g>
			<g>
				<rect x="-57.7" y="161.2" fill="none" width="3.7" height="3.7"/>
				<circle fill="#231F20" cx="-55.8" cy="163.1" r="1.9"/>
			</g>
			<g>
				<rect x="-52.2" y="162.1" fill="none" width="3.7" height="3.7"/>
				<circle fill="#231F20" cx="-50.3" cy="163.9" r="1.9"/>
			</g>
			<g>
				<rect x="-51.6" y="156" fill="none" width="3.7" height="3.7"/>
				<circle fill="#231F20" cx="-49.8" cy="157.8" r="1.9"/>
			</g>
			<g>
				<rect x="-54.5" y="151.9" fill="none" width="3.7" height="3.7"/>
				<circle fill="#231F20" cx="-52.7" cy="153.8" r="1.9"/>
			</g>
			<g>
				<rect x="-54.8" y="149.1" fill="none" width="3.7" height="3.7"/>
				<circle fill="#231F20" cx="-52.9" cy="151" r="1.9"/>
			</g>
			<g>
				<rect x="-53.1" y="143.4" fill="none" width="3.7" height="3.7"/>
				<circle fill="#231F20" cx="-51.2" cy="145.2" r="1.9"/>
			</g>
			<g>
				<rect x="-58.5" y="141.3" fill="none" width="3.7" height="3.7"/>
				<circle fill="#231F20" cx="-56.7" cy="143.1" r="1.9"/>
			</g>
			<g>
				<rect x="-63.5" y="144.4" fill="none" width="3.7" height="3.7"/>
				<circle fill="#231F20" cx="-61.6" cy="146.3" r="1.9"/>
			</g>
			<g>
				<rect x="-64.4" y="145.4" fill="none" width="3.7" height="3.7"/>
				<circle fill="#231F20" cx="-62.6" cy="147.2" r="1.9"/>
			</g>
			<g>
				<rect x="-65.4" y="149.1" fill="none" width="3.7" height="3.7"/>
				<circle fill="#231F20" cx="-63.6" cy="151" r="1.9"/>
			</g>
			<g>
				<rect x="-62" y="152.8" fill="none" width="3.7" height="3.7"/>
				<circle fill="#231F20" cx="-60.1" cy="154.7" r="1.9"/>
			</g>
			<g>
				<rect x="-67.3" y="156.6" fill="none" width="3.7" height="3.7"/>
				<circle fill="#231F20" cx="-65.5" cy="158.4" r="1.9"/>
			</g>
			<g>
				<rect x="-63.4" y="160.3" fill="none" width="3.7" height="3.7"/>
				<circle fill="#231F20" cx="-61.5" cy="162.2" r="1.9"/>
			</g>
			<g>
				<rect x="-64.3" y="164" fill="none" width="3.7" height="3.7"/>
				<circle fill="#231F20" cx="-62.4" cy="165.9" r="1.9"/>
			</g>
			<g>
				<rect x="-60.3" y="165.1" fill="none" width="3.7" height="3.7"/>
				<circle fill="#231F20" cx="-58.4" cy="166.9" r="1.9"/>
			</g>
		</g>
	</g>
	<path fill="#E6EB9F" d="M-53,155.3c0,4.8-3.9,8.8-8.8,8.8v-17.5C-56.9,146.6-53,150.5-53,155.3z"/>
	<rect x="-124.2" y="95.4" fill="#FFFFFF" width="62.4" height="120.2"/>
	<circle fill="none" cx="-62.7" cy="155.5" r="56.2"/>
	<path fill="#C4984E" d="M-4.8,155.5c0,29.7-22.2,54.3-51.6,57.4l-0.7,0.1c-1.7,0.2-2.7,0.2-4.6,0.2c0,0,0.1-2.5,0.1-3.1
		c8.8-0.2,16.9-2.3,24.3-6.2c0.4-0.2,0.9-0.5,1.3-0.7c5.4-3,10-6.8,14.1-11.3c8.7-9.7,13.9-22.3,13.9-36.3
		c0-17.3-7.7-32.5-20.3-42.5c-0.2-0.2-0.8-0.6-0.9-0.7c-0.3-0.3-0.9-0.6-1.3-0.9c-8.8-6.6-19.3-10.2-31.1-10.5c0-1,0-3.2,0-3.2
		C-29.9,97.8-4.8,123.7-4.8,155.5z"/>
	<path fill="#BE1E2D" d="M-112,122.5c32.8,18.7,43.5,24.7,43.5,24.7l0,0v0L-112,122.5l43.5,24.7V97.7
		C-88.3,97.7-104.6,108.6-112,122.5z"/>
	<path fill="#1B75BB" d="M-68.2,211.3c-0.2-37.7-0.3-50.1-0.3-50.1l0,0l0,0L-68.2,211.3l-0.3-50.1l-43.2,25.3
		C-101.8,203.7-84,211.8-68.2,211.3z"/>
	<path fill="#F6921E" d="M-115.4,179.1c32.6-19.1,43.2-25.3,43.2-25.3l0,0l0,0L-115.4,179.1l43.2-25.3l-43.5-24.7
		C-125.7,146.1-123.7,165.6-115.4,179.1z"/>
	<g>
		
			<radialGradient id="SVGID_17_" cx="16" cy="16" r="384.3835" gradientTransform="matrix(1 0 0 0.75 0 4)" gradientUnits="userSpaceOnUse">
			<stop  offset="0.2512" style="stop-color:#F05A29"/>
			<stop  offset="0.4979" style="stop-color:#F69879"/>
			<stop  offset="0.7402" style="stop-color:#FBCFC1"/>
			<stop  offset="0.913" style="stop-color:#FEF2EE"/>
			<stop  offset="1" style="stop-color:#FFFFFF"/>
		</radialGradient>
		<path fill="url(#SVGID_17_)" d="M336-75v-91.7L256-213l0.3-0.5v-92.3l-80-46.3l-80,46.3l-80-46.3l-80,46.3l-80-46.3l-80,46.3v92.3
			l-0.3,0.2l-80,46.3v91.7l-80,46.3v92.3l80,46.3v91.1l80,46.3v91l80,46.3l80-46.3l80,46.3l80-46.3l80,46.3l80-46.3v-90.6l80-46.3
			v-91l80-46.3v-92.3L336-75z M105.3-300.6l71-41.1l71,41.1v81.9l-71,41.1l-71-41.1V-300.6z M-54.7-300.6l71-41.1l71,41.1v81.9
			l-71,41.1l-71-41.1V-300.6z M185-161.5l71-41.1l71,41.1v81.9l-71,41.1l-71-41.1V-161.5z M247-23.5v81.9l-71,41.1l-71-41.1v-81.9
			l71-41.1L247-23.5z M25-161.5l71-41.1l71,41.1v81.9L96-38.5L25-79.6V-161.5z M87-23.9V58L16,99.1L-55,58v-81.9L16-65L87-23.9z
			 M7-161.9V-80l-71,41.1L-135-80v-81.9l71-41.1L7-161.9z M-214.7-218.7v-81.9l71-41.1l71,41.1v81.9l-71,41.1L-214.7-218.7z
			 M-73-23.9V58l-71,41.1L-215,58v-81.9l71-41.1L-73-23.9z M-295-161.9l71-41.1l71,41.1V-80l-71,41.1L-295-80V-161.9z M-375,58
			v-81.9l71-41.1l71,41.1V58l-71,41.1L-375,58z M-295,195.4v-81.9l71-41.1l71,41.1v81.9l-71,41.1L-295,195.4z M-73,332.6l-71,41.1
			l-71-41.1v-81.9l71-41.1l71,41.1V332.6z M-135,195.4v-81.9l71-41.1l71,41.1v81.9l-71,41.1L-135,195.4z M87,332.6l-71,41.1
			l-71-41.1v-81.9l71-41.1l71,41.1V332.6z M25,195.7v-81.9l71-41.1l71,41.1v81.9l-71,41.1L25,195.7z M247,332.6l-71,41.1l-71-41.1
			v-81.9l71-41.1l71,41.1V332.6z M327,195.7l-71,41.1l-71-41.1v-81.9l71-41.1l71,41.1V195.7z M407,58.4l-71,41.1l-71-41.1v-81.9
			l71-41.1l71,41.1V58.4z"/>
	</g>
	<g>
		<radialGradient id="SVGID_18_" cx="94.8537" cy="-121.2047" r="59.0428" gradientUnits="userSpaceOnUse">
			<stop  offset="0" style="stop-color:#F6B7D3;stop-opacity:0.6"/>
			<stop  offset="0.1498" style="stop-color:#F3B2D1;stop-opacity:0.6599"/>
			<stop  offset="0.3196" style="stop-color:#E9A5CA;stop-opacity:0.7279"/>
			<stop  offset="0.4992" style="stop-color:#D98EBF;stop-opacity:0.7997"/>
			<stop  offset="0.6855" style="stop-color:#C26EB0;stop-opacity:0.8742"/>
			<stop  offset="0.8751" style="stop-color:#A6469D;stop-opacity:0.95"/>
			<stop  offset="1" style="stop-color:#90278E"/>
		</radialGradient>
		<circle fill="url(#SVGID_18_)" cx="94.9" cy="-121.2" r="59"/>
		<path fill="none" stroke="#F6B7D3" stroke-miterlimit="10" d="M57.8-75.3c0,0,86-27.4,81.9-84.4"/>
		<path fill="none" stroke="#F6B7D3" stroke-miterlimit="10" d="M150.6-111.6c0,0-72.9,4.9-100.6-48.1c0,0-0.2,77.2,86.8,79.9"/>
		<path fill="none" stroke="#F6B7D3" stroke-miterlimit="10" d="M36-126.2c0,0,53.4-52.6,117.8,2.4"/>
		<linearGradient id="SVGID_19_" gradientUnits="userSpaceOnUse" x1="136.8551" y1="-79.187" x2="52.836" y2="-163.2061">
			<stop  offset="0" style="stop-color:#231F20"/>
			<stop  offset="0.1748" style="stop-color:#272425"/>
			<stop  offset="0.3723" style="stop-color:#333132"/>
			<stop  offset="0.5161" style="stop-color:#404041"/>
		</linearGradient>
		<path fill="url(#SVGID_19_)" d="M148.4-121.2c-0.3,33.3-31.2,59-64.1,52.5c-15.5-3.1-28.8-13.1-36.5-26.9
			c-8-14.2-8.3-31.5-2.4-46.5c9.3-23.3,35.7-36.5,59.9-31.7C130.3-168.8,148.2-146.4,148.4-121.2c0.1,7.1,11.1,7.1,11,0
			c-0.3-35-28.6-63.7-63.5-64.5c-35-0.9-64.1,28-65.6,62.5c-1.5,35.1,27,64.5,61.5,66.5c17,1,33.6-5.4,46.3-16.5
			c12.6-11.1,19.9-27.2,21.2-43.9c0.1-1.4,0.1-2.7,0.1-4.1C159.5-128.3,148.4-128.3,148.4-121.2z"/>
		<g>
			<g>
				<g>
					<path fill="#58595B" d="M113.4-119.3c0,0,0,0.4,0,1.2c0,0.2,0,0.4,0,0.7c0,0.3-0.1,0.6-0.1,0.9c0,0.3-0.1,0.7-0.1,1
						c-0.1,0.3-0.2,0.7-0.2,1.1c-0.4,1.6-0.9,3.5-2.1,5.5c-1.1,2-2.7,4.1-5,5.9c-2.3,1.8-5.3,3.2-8.7,3.6c-0.4,0.1-0.8,0.1-1.3,0.1
						l-0.6,0l-0.3,0l-0.2,0l0,0l-0.1,0l-0.1,0c-0.7-0.1-1.4,0-2.4-0.3c-0.5-0.1-1-0.2-1.4-0.3c-0.4-0.1-0.9-0.3-1.3-0.4
						c-0.4-0.1-0.8-0.3-1.3-0.5c-0.4-0.2-0.8-0.3-1.2-0.6c-1.6-0.9-3.1-2-4.4-3.3c-1.3-1.3-2.3-2.8-3.2-4.4
						c-0.9-1.6-1.5-3.3-1.9-5.1c-0.4-1.8-0.6-3.5-0.6-5.3c0-1,0-1.6,0.2-2.6c0.1-0.9,0.3-1.8,0.5-2.7c0.5-1.7,1.1-3.5,1.9-5.1
						c0.9-1.6,1.9-3.1,3.2-4.4c1.3-1.3,2.8-2.4,4.4-3.3c1.6-0.8,3.3-1.5,5.1-1.8c0.9-0.2,1.8-0.2,2.6-0.3l0.2,0l0.1,0l0,0l0.2,0
						l0.3,0l0.5,0c0.4,0,0.7,0,1.1,0.1c0.9,0.1,1.9,0.3,2.6,0.5c0.4,0.1,0.8,0.2,1.2,0.3c0.4,0.1,0.8,0.3,1.1,0.5
						c1.5,0.6,2.8,1.5,3.9,2.3c2.3,1.8,3.9,4,5,6c1.1,2,1.7,3.9,2.1,5.5c0.2,0.8,0.3,1.5,0.4,2.1c0.1,0.6,0.1,1.1,0.2,1.6
						C113.4-119.9,113.5-119.4,113.4-119.3L113.4-119.3z M109.6-119.4c0,0,0-0.4-0.1-1c0-0.3-0.1-0.8-0.2-1.2c0-0.2-0.1-0.5-0.2-0.8
						c-0.1-0.3-0.2-0.6-0.3-0.9c-0.4-1.2-1.1-2.6-2.2-3.9c-1.1-1.3-2.6-2.6-4.4-3.5c-0.9-0.5-1.9-0.9-2.9-1.1
						c-0.3-0.1-0.5-0.2-0.8-0.2c-0.3-0.1-0.5-0.1-0.8-0.2c-0.6-0.2-1-0.1-1.5-0.2c-0.1,0-0.3,0-0.5,0l-0.5,0l-0.5,0l-0.3,0
						c-0.2,0,0.2,0,0.1,0l0,0l-0.1,0l-0.1,0c-0.6,0-1.2,0-1.7,0.1c-1.2,0.1-2.4,0.4-3.6,0.7c-1.2,0.3-2.4,0.9-3.5,1.6
						c-1.1,0.7-2.2,1.6-3.2,2.7c-0.9,1.1-1.7,2.3-2.2,3.7l-0.3,1.1c-0.1,0.4-0.1,0.7-0.2,1c-0.2,0.6-0.2,1.6-0.2,2.3
						c0.1,1.5,0.3,3,0.8,4.4c0.5,1.4,1.3,2.6,2.2,3.7c1,1.1,2,2,3.2,2.7c1.2,0.7,2.3,1.3,3.5,1.6c0.3,0.1,0.6,0.2,0.9,0.3
						c0.3,0.1,0.6,0.2,0.9,0.2l0.9,0.2c0.3,0.1,0.5,0.1,0.8,0.1c0.4,0.1,1.3,0.1,2,0.1l0.1,0l0.1,0l0,0c0.1,0-0.3,0-0.1,0l0.2,0
						l0.4,0c0.3,0,0.6,0,0.8-0.1c2.2-0.2,4.3-0.8,6.1-1.8c1.8-0.9,3.3-2.2,4.4-3.5c1.1-1.3,1.8-2.7,2.2-3.9c0.1-0.3,0.2-0.6,0.3-0.9
						c0.1-0.3,0.1-0.5,0.1-0.7c0-0.2,0.1-0.4,0.1-0.6c0-0.2,0-0.4,0-0.6C109.6-119.1,109.6-119.5,109.6-119.4L109.6-119.4z"/>
				</g>
				<g>
					<path fill="#F6B7D3" d="M94.9-110.1c-5.2,0-9.4-4.2-9.4-9.4s4.2-9.4,9.4-9.4c5.2,0,9.4,4.2,9.4,9.4S100-110.1,94.9-110.1z"/>
					<path fill="#A1798D" d="M94.9-128.3c4.9,0,8.9,4,8.9,8.9s-4,8.9-8.9,8.9s-8.9-4-8.9-8.9S90-128.3,94.9-128.3 M94.9-129.3
						c-5.4,0-9.9,4.4-9.9,9.9s4.4,9.9,9.9,9.9s9.9-4.4,9.9-9.9S100.3-129.3,94.9-129.3L94.9-129.3z"/>
				</g>
			</g>
			<g>
				<path fill="#58595B" d="M86.3-133c0,0,0.7-0.6,1.7-1.6c0.5-0.5,1.2-1.2,1.9-2c0.3-0.4,0.7-0.8,1.1-1.2c0.4-0.4,0.6-1.2,1-1.5
					c1-0.6,2.1-1.2,3.2-2c1.1-0.7,2.2-1.5,3.3-2.4c2.2-1.8,4.3-3.9,5.3-6.6c0.2-0.7,0.4-1.3,0.4-2c0-0.7,0.1-1.4-0.2-2
					c-0.1-0.2-0.1-0.3-0.2-0.5c0,0-0.2-0.4-0.2-0.4c-0.1-0.2-0.3-0.5-0.5-0.6c-0.4-0.4-0.8-0.7-1.3-1.1c-1-0.7-2.3-1.1-3.6-1.3
					c-1.3-0.2-2.6-0.3-3.8-0.3c-2.4,0-4.5,0.3-5.9,0.4c-1.4,0.2-2.3,0.3-2.3,0.3s0.7-0.4,2.1-0.9c1.4-0.5,3.4-1.2,5.9-1.7
					c1.3-0.3,2.7-0.4,4.2-0.4c1.5,0,3.2,0.1,5,0.9c0.9,0.4,1.7,1.1,2.3,1.9c0.3,0.4,0.6,0.9,0.8,1.4c0.1,0.3,0.1,0.3,0.2,0.7
					c0.1,0.2,0.1,0.5,0.2,0.7c0.1,0.5,0.2,0.9,0.3,1.4c0.1,0.5,0.2,0.9,0.2,1.4c0.1,1,0,1.9-0.1,2.9c-0.3,1.9-1.1,3.7-2,5.3
					c-0.9,1.6-2,3-3.1,4.3c-1.1,1.3-2.3,2.4-3.5,3.3c-1.2,0.9-2.3,1.8-3.5,2.5c-0.6,0.3-1.4,0.2-2,0.3c-0.6,0.1-1.2,0.2-1.7,0.3
					c-1.1,0.2-2,0.3-2.8,0.4C87.2-133,86.3-133,86.3-133z"/>
			</g>
			<g>
				<path fill="#58595B" d="M105.2-103.3c0,0-0.2,0.2-0.4,0.5c-0.3,0.3-0.7,0.7-1.2,1.2c-1.1,1-2.7,2.2-4.6,3.4
					c-1,0.6-2,1.3-3.1,2.1c-1.1,0.8-2.2,1.6-3.3,2.5c-1.1,0.9-2.2,1.9-3.1,3c-1,1.1-1.7,2.3-2.2,3.6c-0.2,0.7-0.4,1.3-0.5,2
					c-0.1,0.7-0.1,1.4,0.1,2.1c0.1,0.2,0.1,0.3,0.2,0.5c0,0.1,0.1,0.2,0.1,0.2l0.1,0.3c0.1,0.2,0.3,0.5,0.4,0.6
					c0.4,0.4,0.8,0.7,1.3,1.1c1,0.7,2.3,1.1,3.6,1.3c1.3,0.2,2.6,0.3,3.8,0.3c2.4,0,4.5-0.3,5.9-0.4c1.4-0.2,2.3-0.3,2.3-0.3
					s-0.8,0.4-2.1,0.9c-1.4,0.5-3.4,1.2-5.9,1.7c-1.3,0.3-2.7,0.4-4.2,0.4c-1.5,0-3.2-0.1-5-1c-0.9-0.4-1.7-1.1-2.3-2
					c-0.3-0.4-0.5-0.9-0.8-1.4l-0.1-0.3c-0.1-0.2-0.1-0.2-0.1-0.4C84-81.8,84-82,83.9-82.2c-0.1-0.5-0.2-0.9-0.3-1.4
					c-0.1-0.5-0.2-0.9-0.2-1.4c-0.1-1,0-1.9,0.1-2.9c0.3-1.9,1-3.7,1.9-5.3c0.9-1.6,2-3.1,3.1-4.3c1.1-1.3,2.3-2.4,3.5-3.4
					c1.2-1,2.4-1.8,3.5-2.5c2.3-1.4,4.4-2.1,5.9-2.4c0.8-0.1,1.4-0.2,1.8-0.2c0.4,0,0.7,0,0.7,0L105.2-103.3z"/>
			</g>
		</g>
	</g>
	<g>
		<g>
			<rect x="-133" y="-122.1" fill="#231F20" width="18.2" height="8.1"/>
			<rect x="-95.5" y="-159.5" fill="#231F20" width="8.1" height="18.2"/>
			<rect x="-95.5" y="-93.6" fill="#231F20" width="8.1" height="18.2"/>
			
				<rect x="-109.5" y="-97.8" transform="matrix(0.866 0.5 -0.5 0.866 -58.7572 41.9461)" fill="#231F20" width="3.7" height="18.2"/>
			
				<rect x="-121.4" y="-109.8" transform="matrix(0.5 0.866 -0.866 0.5 -147.0082 53.1645)" fill="#231F20" width="3.7" height="18.2"/>
			
				<rect x="-121.7" y="-142.3" transform="matrix(-0.5 0.866 -0.866 -0.5 -295.1477 -95.9877)" fill="#231F20" width="3.7" height="18.2"/>
			
				<rect x="-109.5" y="-154.3" transform="matrix(-0.866 0.5 -0.5 -0.866 -273.4935 -217.1725)" fill="#231F20" width="3.7" height="18.2"/>
			
				<rect x="-74" y="-97.8" transform="matrix(-0.866 0.5 -0.5 -0.866 -178.9789 -129.4109)" fill="#231F20" width="3.7" height="18.2"/>
			<rect x="-74" y="-154.3" transform="matrix(0.866 0.5 -0.5 0.866 -82.2876 16.6171)" fill="#231F20" width="3.7" height="18.2"/>
		</g>
		<g>
			<rect x="-109.3" y="-131.1" fill="#231F20" width="101.6" height="27.7"/>
			<g>
				<path fill="#FFFFFF" d="M-105.1-125.5h10v2.2H-99v14.1h-2.2v-14.1h-3.9V-125.5z"/>
				<path fill="#FFFFFF" d="M-93.3-123.2c0-0.5,0.2-0.9,0.5-1.2c0.3-0.3,0.7-0.5,1.2-0.5c0.5,0,0.9,0.2,1.2,0.5
					c0.3,0.3,0.5,0.7,0.5,1.2c0,0.5-0.2,0.9-0.5,1.2s-0.7,0.5-1.2,0.5c-0.5,0-0.9-0.2-1.2-0.5C-93.1-122.4-93.3-122.8-93.3-123.2z
					 M-92.6-119.8h2.2v10.6h-2.2V-119.8z"/>
				<path fill="#FFFFFF" d="M-87.3-109.2v-10.6h2.2v1.6c0.5-0.7,1-1.2,1.5-1.5c0.5-0.3,1-0.5,1.6-0.5c0.8,0,1.4,0.2,1.9,0.5
					c0.5,0.4,0.8,0.9,1.2,1.7c0.6-0.8,1.1-1.3,1.6-1.7c0.5-0.3,1.1-0.5,1.8-0.5c0.8,0,1.6,0.3,2.2,0.9c0.6,0.6,0.9,1.4,0.9,2.2v7.7
					h-2.2v-7.1c0-1.2-0.6-1.8-1.7-1.8c-0.7,0-1.2,0.3-1.7,0.9c-0.5,0.6-0.7,1.3-0.7,2.2v5.7H-81v-6.8c0-1.4-0.6-2.1-1.7-2.1
					c-0.7,0-1.2,0.3-1.7,0.8c-0.5,0.6-0.7,1.3-0.7,2.1v6H-87.3z"/>
				<path fill="#FFFFFF" d="M-59.1-114h-9c0.2,1.1,0.6,1.9,1.3,2.4c0.7,0.5,1.5,0.7,2.3,0.7c1.3,0,2.3-0.5,3.2-1.6l1.6,1.2
					c-1.2,1.6-2.9,2.4-4.9,2.4c-1.6,0-2.9-0.5-3.9-1.6s-1.6-2.4-1.6-4c0-1.5,0.5-2.8,1.6-3.9c1.1-1.1,2.4-1.6,3.9-1.6
					c1.5,0,2.8,0.6,3.9,1.7C-59.6-117.3-59.1-115.8-59.1-114z M-67.9-115.8h6.5c-0.7-1.5-1.8-2.2-3.2-2.2
					C-66.1-118-67.2-117.3-67.9-115.8z"/>
			</g>
			<polygon fill="#FAAF40" points="-7.8,-103.4 -60,-103.4 -49,-131.1 3.3,-131.1 			"/>
			<g>
				<path fill="#FFFFFF" d="M-38.2-123.4l-2.1,1.3c-0.6-1.1-1.5-1.6-2.7-1.6c-0.7,0-1.5,0.3-2.1,0.8c-0.7,0.5-1.1,1.1-1.2,1.7
					c-0.1,0.5,0,1,0.4,1.4c0.3,0.4,1.1,0.9,2.2,1.5c1.2,0.6,2,1.3,2.5,2c0.5,0.7,0.6,1.6,0.4,2.7c-0.2,1.3-1,2.5-2.3,3.5
					c-1.3,1-2.7,1.5-4.1,1.5c-1.2,0-2.2-0.3-3.2-1c-0.9-0.6-1.5-1.5-1.8-2.6l2.2-1c0.6,1.4,1.7,2.2,3.1,2.2c0.8,0,1.6-0.3,2.4-0.8
					c0.7-0.5,1.2-1.2,1.3-1.8c0.1-0.5,0-1-0.4-1.4c-0.4-0.4-1.1-0.9-2.2-1.5c-1.1-0.6-2-1.2-2.4-2c-0.5-0.7-0.6-1.6-0.4-2.7
					c0.2-1.3,0.9-2.5,2.1-3.4c1.2-0.9,2.5-1.4,3.9-1.4C-40.5-126.1-39-125.2-38.2-123.4z"/>
				<path fill="#FFFFFF" d="M-33.8-126.2h2.2l-5.5,17h-2.2L-33.8-126.2z"/>
				<path fill="#FFFFFF" d="M-30.2-119.5h2.2l-3.3,10.3h-2.2L-30.2-119.5z M-29-124.1c0.1-0.4,0.3-0.7,0.6-1
					c0.3-0.3,0.7-0.4,1.1-0.4s0.7,0.1,0.9,0.4c0.2,0.3,0.3,0.6,0.2,1c-0.1,0.4-0.3,0.7-0.6,1c-0.3,0.3-0.7,0.4-1.1,0.4
					c-0.4,0-0.7-0.1-0.9-0.4C-29-123.3-29.1-123.7-29-124.1z"/>
				<path fill="#FFFFFF" d="M-19.2-112.1l-0.8,2.6c-1.2,0.4-2,0.6-2.6,0.6c-1.4,0-2.5-0.5-3.2-1.6c-0.8-1-1-2.3-0.7-3.9
					c0.3-1.5,1-2.8,2.2-3.8c1.2-1,2.6-1.6,4-1.6c1.1,0,2.1,0.3,3.1,0.9l-0.8,2.3c-1.1-0.7-2-1.1-2.7-1.1c-0.9,0-1.7,0.3-2.4,1
					c-0.7,0.6-1.2,1.4-1.3,2.3c-0.2,0.9,0,1.6,0.4,2.2c0.4,0.6,1,0.9,1.8,0.9C-21.5-111.1-20.5-111.4-19.2-112.1z"/>
				<path fill="#FFFFFF" d="M-7-113.8h-8.1c-0.1,1,0.1,1.8,0.6,2.4c0.5,0.5,1.1,0.8,2,0.8c0.9,0,2-0.5,3.2-1.6l1,1.3
					c-1.3,1.4-2.9,2-4.6,2c-1.5,0-2.7-0.5-3.5-1.5c-0.8-1-1.1-2.2-0.8-3.7c0.3-1.6,1-2.9,2.3-4c1.3-1.1,2.7-1.6,4.2-1.6
					c1.3,0,2.3,0.5,3.1,1.4c0.8,1,1,2.1,0.8,3.5C-6.9-114.4-7-114.1-7-113.8z M-14.7-115.4h6c0-1.7-0.8-2.5-2.4-2.5
					c-0.8,0-1.5,0.2-2.1,0.7S-14.4-116.2-14.7-115.4z"/>
			</g>
			<polygon fill="#FAAF40" points="-46.9,-136.2 5.3,-136.2 4.1,-133.3 -48.1,-133.3 			"/>
			<polygon fill="#FAAF40" points="-45.6,-139.5 6.6,-139.5 5.9,-137.6 -46.4,-137.6 			"/>
			<polygon fill="#FAAF40" points="-44.7,-141.8 7.5,-141.8 7.2,-140.9 -45.1,-140.9 			"/>
			<polygon fill="#FAAF40" points="-9.6,-98.7 -61.8,-98.7 -60.7,-101.6 -8.5,-101.6 			"/>
			<polygon fill="#FAAF40" points="-10.9,-95.4 -63.1,-95.4 -62.4,-97.3 -10.2,-97.3 			"/>
			<polygon fill="#FAAF40" points="-11.8,-93.1 -64.1,-93.1 -63.7,-94 -11.5,-94 			"/>
		</g>
	</g>
</g>
</svg>
