<?xml version="1.0" encoding="utf-8"?>
<!-- Generator: Adobe Illustrator 18.0.0, SVG Export Plug-In . SVG Version: 6.00 Build 0)  -->
<!DOCTYPE svg PUBLIC "-//W3C//DTD SVG 1.1//EN" "http://www.w3.org/Graphics/SVG/1.1/DTD/svg11.dtd">
<svg version="1.1" id="Layer_1" xmlns="http://www.w3.org/2000/svg" xmlns:xlink="http://www.w3.org/1999/xlink" x="0px" y="0px"
	 viewBox="0 0 800 736" enable-background="new 0 0 800 736" xml:space="preserve">
<g>
	
		<radialGradient id="SVGID_1_" cx="399.8067" cy="367.7473" r="384.3835" gradientTransform="matrix(1 0 0 0.75 0 91.9368)" gradientUnits="userSpaceOnUse">
		<stop  offset="0.2512" style="stop-color:#F15B2A"/>
		<stop  offset="0.4959" style="stop-color:#F69879"/>
		<stop  offset="0.7392" style="stop-color:#FBCFC1"/>
		<stop  offset="0.9126" style="stop-color:#FEF2EE"/>
		<stop  offset="1" style="stop-color:#FFFFFF"/>
	</radialGradient>
	<path fill="url(#SVGID_1_)" d="M719.8,276.7V185l-80-46.3l0.3-0.5V45.9l-80-46.3l-80,46.3l-80-46.3l-80,46.3l-80-46.3l-80,46.3
		v92.3l-0.3,0.2l-80,46.3v91.7l-80,46.3V415l80,46.3v91.1l80,46.3v91l80,46.3l80-46.3l80,46.3l80-46.3l80,46.3l80-46.3v-90.6
		l80-46.3v-91l80-46.3V323L719.8,276.7z M489.1,51.1l71-41.1l71,41.1V133l-71,41.1l-71-41.1V51.1z M329.1,51.1l71-41.1l71,41.1V133
		l-71,41.1l-71-41.1V51.1z M568.8,190.2l71-41.1l71,41.1v81.9l-71,41.1l-71-41.1V190.2z M630.8,328.2v81.9l-71,41.1l-71-41.1v-81.9
		l71-41.1L630.8,328.2z M408.8,190.2l71-41.1l71,41.1v81.9l-71,41.1l-71-41.1V190.2z M470.8,327.9v81.9l-71,41.1l-71-41.1v-81.9
		l71-41.1L470.8,327.9z M390.8,189.9v81.9l-71,41.1l-71-41.1v-81.9l71-41.1L390.8,189.9z M169.1,133V51.1l71-41.1l71,41.1V133
		l-71,41.1L169.1,133z M310.8,327.9v81.9l-71,41.1l-71-41.1v-81.9l71-41.1L310.8,327.9z M88.8,189.9l71-41.1l71,41.1v81.9l-71,41.1
		l-71-41.1V189.9z M8.8,409.8v-81.9l71-41.1l71,41.1v81.9l-71,41.1L8.8,409.8z M88.8,547.1v-81.9l71-41.1l71,41.1v81.9l-71,41.1
		L88.8,547.1z M310.8,684.4l-71,41.1l-71-41.1v-81.9l71-41.1l71,41.1V684.4z M248.8,547.1v-81.9l71-41.1l71,41.1v81.9l-71,41.1
		L248.8,547.1z M470.8,684.4l-71,41.1l-71-41.1v-81.9l71-41.1l71,41.1V684.4z M408.8,547.5v-81.9l71-41.1l71,41.1v81.9l-71,41.1
		L408.8,547.5z M630.8,684.4l-71,41.1l-71-41.1v-81.9l71-41.1l71,41.1V684.4z M710.8,547.5l-71,41.1l-71-41.1v-81.9l71-41.1l71,41.1
		V547.5z M790.8,410.1l-71,41.1l-71-41.1v-81.9l71-41.1l71,41.1V410.1z"/>
</g>
</svg>
