<?xml version="1.0" encoding="utf-8"?>
<!-- Generator: Adobe Illustrator 18.0.0, SVG Export Plug-In . SVG Version: 6.00 Build 0)  -->
<!DOCTYPE svg PUBLIC "-//W3C//DTD SVG 1.1//EN" "http://www.w3.org/Graphics/SVG/1.1/DTD/svg11.dtd">
<svg version="1.1" id="Layer_1" xmlns="http://www.w3.org/2000/svg" xmlns:xlink="http://www.w3.org/1999/xlink" x="0px" y="0px"
	 viewBox="0 0 480 460" enable-background="new 0 0 480 460" xml:space="preserve">
<polygon points="169,189.7 231.1,153.8 231.1,307.6 169,271.6 "/>
<radialGradient id="SVGID_1_" cx="240.25" cy="230.7807" r="234.9745" gradientUnits="userSpaceOnUse">
	<stop  offset="0.3892" style="stop-color:#F15C2C"/>
	<stop  offset="0.457" style="stop-color:#F58052"/>
	<stop  offset="0.5293" style="stop-color:#F89F77"/>
	<stop  offset="0.6036" style="stop-color:#FBBB9B"/>
	<stop  offset="0.6787" style="stop-color:#FDD2BB"/>
	<stop  offset="0.755" style="stop-color:#FEE4D5"/>
	<stop  offset="0.8328" style="stop-color:#FFF1EA"/>
	<stop  offset="0.9132" style="stop-color:#FFFAF8"/>
	<stop  offset="1" style="stop-color:#FFFFFF"/>
</radialGradient>
<path fill="url(#SVGID_1_)" d="M480,184.3l-79.5-46l-0.3-0.2l0.3-0.1V47l-80-46.3l-80,46.3l-80-46.3L80.5,47v91l-80,46.3v92.3
	l80,46.3v91.7l80,46.3l80-46.3l80,46.3l80-46.3v-91.7l-0.3-0.1l79.8-46.2V184.3z M249.5,52.2l71-41.1l71,41.1v81.9l-71,41.1
	l-71-41.1V52.2z M169,189.7l71-41.1l71,41.1v81.9l-71,41.1l-71-41.1V189.7z M89.5,52.2l71-41.1l71,41.1v81.9l-71,41.1l-71-41.1V52.2
	z M9.5,271.4v-81.9l71-41.1l71,41.1v81.9l-71,41.1L9.5,271.4z M231.5,409.4l-71,41.1l-71-41.1v-81.9l71-41.1l71,41.1V409.4z
	 M391.5,409.4l-71,41.1l-71-41.1v-81.9l71-41.1l71,41.1V409.4z M471,271.4l-71,41.1l-71-41.1v-81.9l71-41.1l71,41.1V271.4z"/>
<rect x="231.1" y="143.8" fill="#F15B2A" width="18.3" height="174.3"/>
<g>
	<g>
		<g>
			<path fill="#F15B2A" d="M203.9,266.2c0,2.2-0.2,4.1-0.5,5.8c-0.4,1.7-0.9,3-1.6,4c-0.7,1-1.6,1.6-2.6,1.9c-1,0.3-2.2,0.2-3.5-0.4
				c-1.1-0.4-2.1-1.1-3-2c-0.9-0.9-1.6-1.9-2.2-3.2c-0.6-1.3-1.1-2.8-1.4-4.5c-0.3-1.7-0.5-3.7-0.5-5.9c0-1.9,0.1-3.6,0.4-5.2
				c0.3-1.5,0.7-2.8,1.3-3.8c0.6-1,1.4-1.8,2.3-2.3c0.9-0.5,2-0.6,3.3-0.4c1.1,0.2,2.2,0.6,3.2,1.4c1,0.7,1.8,1.7,2.6,3.1
				c0.7,1.3,1.3,2.9,1.7,4.9C203.7,261.4,203.9,263.6,203.9,266.2z M191.1,262.5c0,0.4,0,0.8,0,1.2c0,0.4,0,0.8,0.1,1.2l8.9-6
				c-0.2-0.8-0.4-1.5-0.7-2.1c-0.3-0.6-0.6-1.2-0.9-1.7c-0.4-0.5-0.8-0.9-1.2-1.2c-0.5-0.3-1-0.5-1.5-0.6c-0.7-0.1-1.4,0-2,0.3
				c-0.6,0.3-1.1,0.9-1.5,1.7c-0.4,0.8-0.7,1.8-0.9,3C191.2,259.4,191.1,260.8,191.1,262.5z M200.7,265.4c0-0.5,0-1,0-1.4
				c0-0.5-0.1-1-0.1-1.4l-9,5.8c0.2,0.7,0.3,1.4,0.6,2.1c0.2,0.7,0.5,1.3,0.9,1.8c0.3,0.5,0.7,1,1.2,1.4c0.4,0.4,0.9,0.7,1.5,0.9
				c0.7,0.3,1.4,0.3,2,0.1c0.6-0.2,1.2-0.7,1.6-1.5c0.4-0.8,0.8-1.8,1-3.1C200.6,268.7,200.7,267.2,200.7,265.4z"/>
		</g>
		<g>
			<path fill="#F15B2A" d="M185.4,273.3l-10.1-3.9v-2.8l3.9,1.4v-16.9l-3.7,2.2l-0.7-2.7l4.9-2.9l1.9,0.3v20.8l3.8,1.4V273.3z"/>
		</g>
		<g>
			<path fill="#F15B2A" d="M227.3,289.5l-18.4-7.1v-3.7l7,2.5v-22.6l-6.5,2.5l-1.3-3.6l8.6-3.4l3.5,0.6v28.1l7.1,2.5V289.5z"/>
		</g>
	</g>
	<g>
		<g>
			<path fill="#F15B2A" d="M186,229.7c0,1.9-0.1,3.6-0.4,5.1c-0.3,1.5-0.7,2.8-1.2,3.9c-0.5,1-1.2,1.8-2,2.3
				c-0.8,0.5-1.7,0.7-2.7,0.6c-0.9-0.1-1.6-0.4-2.3-0.9c-0.7-0.5-1.2-1.3-1.7-2.3c-0.5-1-0.8-2.2-1.1-3.6c-0.2-1.4-0.4-3.1-0.4-5.1
				c0-1.7,0.1-3.2,0.3-4.6c0.2-1.4,0.6-2.6,1-3.7c0.5-1,1-1.9,1.7-2.5c0.7-0.6,1.6-1,2.5-1.1c0.9-0.1,1.7,0.1,2.4,0.5
				c0.7,0.4,1.4,1.1,1.9,2.1c0.5,1,1,2.3,1.3,3.8C185.8,225.7,186,227.5,186,229.7z M176.3,229.6c0,0.4,0,0.7,0,1.1c0,0.4,0,0.7,0,1
				l6.8-7.3c-0.1-0.6-0.3-1.2-0.5-1.7c-0.2-0.5-0.4-0.9-0.7-1.3c-0.3-0.3-0.6-0.6-0.9-0.8c-0.3-0.2-0.7-0.2-1.1-0.2
				c-0.6,0-1.1,0.3-1.5,0.7c-0.4,0.4-0.8,1-1.1,1.8c-0.3,0.8-0.5,1.7-0.7,2.8C176.3,226.8,176.3,228.1,176.3,229.6z M183.6,229.8
				c0-0.4,0-0.8,0-1.2c0-0.4,0-0.8-0.1-1.2l-6.8,7.2c0.1,0.6,0.3,1.2,0.4,1.7c0.2,0.5,0.4,1,0.7,1.4c0.3,0.4,0.6,0.7,0.9,0.9
				c0.3,0.2,0.7,0.4,1.1,0.4c0.6,0,1.1-0.1,1.5-0.5c0.5-0.4,0.9-0.9,1.2-1.7c0.3-0.8,0.6-1.7,0.8-2.9
				C183.5,232.8,183.6,231.4,183.6,229.8z"/>
		</g>
		<g>
			<path fill="#F15B2A" d="M228.4,228.8c0,2.6-0.3,4.9-0.8,7c-0.5,2.1-1.3,3.8-2.3,5.3c-1,1.4-2.2,2.4-3.7,3.1
				c-1.4,0.7-3,0.9-4.9,0.7c-1.5-0.2-2.9-0.6-4.1-1.4c-1.2-0.7-2.2-1.7-3-3.1c-0.8-1.3-1.4-2.9-1.9-4.8c-0.4-1.9-0.6-4.2-0.6-6.7
				c0-2.2,0.2-4.3,0.6-6.1c0.4-1.9,1-3.5,1.8-4.9c0.8-1.4,1.8-2.6,3.1-3.4c1.3-0.9,2.8-1.4,4.6-1.6c1.6-0.2,3,0,4.4,0.5
				c1.4,0.5,2.6,1.4,3.6,2.7c1,1.3,1.8,3,2.4,5.2C228.1,223.2,228.4,225.8,228.4,228.8z M210.7,228.7c0,0.5,0,0.9,0,1.4
				c0,0.5,0,0.9,0.1,1.4l12.2-10c-0.2-0.8-0.5-1.6-0.9-2.3c-0.4-0.7-0.8-1.2-1.3-1.7c-0.5-0.5-1.1-0.8-1.7-1
				c-0.6-0.2-1.3-0.3-2.1-0.2c-1,0.1-1.9,0.4-2.7,1c-0.8,0.6-1.4,1.4-2,2.4c-0.5,1-0.9,2.3-1.2,3.8
				C210.9,225.1,210.7,226.8,210.7,228.7z M224,228.9c0-0.6,0-1.1-0.1-1.7c0-0.6-0.1-1.1-0.1-1.6l-12.3,9.7c0.2,0.8,0.5,1.6,0.8,2.3
				c0.3,0.7,0.7,1.3,1.2,1.8c0.5,0.5,1,0.9,1.6,1.3c0.6,0.3,1.3,0.5,2.1,0.6c1,0.1,1.9-0.1,2.8-0.6c0.9-0.5,1.6-1.2,2.2-2.3
				c0.6-1,1.1-2.4,1.4-3.9C223.8,232.9,224,231.1,224,228.9z"/>
		</g>
		<g>
			<path fill="#F15B2A" d="M203.1,243.5l-13.4-1.4v-3.1l5.1,0.4V220l-4.8,3.7l-0.9-2.8l6.3-4.9l2.5-0.3v23.9l5.1,0.4V243.5z"/>
		</g>
	</g>
	<g>
		<g>
			<path fill="#F15B2A" d="M203.9,192.5c0,2.2-0.2,4.2-0.5,6.1c-0.4,1.9-0.9,3.5-1.6,4.9c-0.7,1.4-1.6,2.5-2.6,3.4
				c-1,0.9-2.2,1.4-3.5,1.6c-1.1,0.2-2.1,0.1-3-0.3c-0.9-0.4-1.6-1-2.2-2c-0.6-0.9-1.1-2.2-1.4-3.8c-0.3-1.6-0.5-3.4-0.5-5.7
				c0-1.9,0.1-3.7,0.4-5.4c0.3-1.7,0.7-3.2,1.3-4.6c0.6-1.4,1.4-2.5,2.3-3.5c0.9-1,2-1.8,3.3-2.3c1.1-0.4,2.2-0.6,3.2-0.4
				c1,0.2,1.8,0.7,2.6,1.6c0.7,0.9,1.3,2.2,1.7,3.9C203.7,187.9,203.9,190,203.9,192.5z M191.1,195.9c0,0.4,0,0.8,0,1.2
				c0,0.4,0,0.8,0.1,1.2l8.9-10.9c-0.2-0.7-0.4-1.2-0.7-1.7c-0.3-0.5-0.6-0.9-0.9-1.2c-0.4-0.3-0.8-0.5-1.2-0.5
				c-0.5-0.1-1,0-1.5,0.2c-0.7,0.3-1.4,0.7-2,1.4c-0.6,0.6-1.1,1.5-1.5,2.5c-0.4,1-0.7,2.2-0.9,3.5
				C191.2,192.8,191.1,194.3,191.1,195.9z M200.7,193.5c0-0.5,0-1,0-1.4c0-0.5-0.1-0.9-0.1-1.4l-9,10.8c0.2,0.6,0.3,1.2,0.6,1.8
				c0.2,0.5,0.5,1,0.9,1.3c0.3,0.4,0.7,0.6,1.2,0.8c0.4,0.2,0.9,0.2,1.5,0.1c0.7-0.1,1.4-0.5,2-1.1c0.6-0.6,1.2-1.4,1.6-2.4
				c0.4-1,0.8-2.2,1-3.6C200.6,196.9,200.7,195.3,200.7,193.5z"/>
		</g>
		<g>
			<path fill="#F15B2A" d="M185.7,209.9l-10.2,1.7v-2.8l3.9-0.8v-16.9l-3.7,4.2l-0.7-2.3l4.9-5.6l1.9-0.7v20.9l3.8-0.8V209.9z"/>
		</g>
		<g>
			<path fill="#F15B2A" d="M226.7,202.9l-18.3,3.1v-3.6l6.9-1.4v-22.5l-6.5,6.1l-1.3-2.9l8.6-8.2l3.5-1.3v28l7-1.4V202.9z"/>
		</g>
	</g>
</g>
<polygon fill="#26A8E0" points="249.4,153.9 279.2,171.2 279.2,210.9 249.4,205.1 "/>
<polygon fill="#B1D5F1" points="279.2,171.2 298,182.2 298,214.6 279.2,210.9 "/>
<polygon fill="#3EA7BD" points="298,182.2 311,189.7 311,217.1 298,214.6 "/>
<polygon fill="#B1D5F1" points="249.4,205.1 279.2,210.9 279.2,250.6 249.4,256.3 "/>
<polygon fill="#26A8E0" points="279.2,210.9 298,214.6 298,246.9 279.2,250.6 "/>
<polygon fill="#5271B0" points="298,214.6 311,217.1 311,244.4 298,246.9 "/>
<polygon fill="#3EA7BD" points="249.4,256.3 279.2,250.6 279.2,290.3 249.4,307.6 "/>
<polygon fill="#5271B0" points="279.2,250.6 298,246.9 298,279.3 279.2,290.3 "/>
<polygon fill="#26A8E0" points="298,246.9 311,244.4 311,271.8 298,279.3 "/>
</svg>
