<?xml version="1.0" encoding="utf-8"?>
<!-- Generator: Adobe Illustrator 18.0.0, SVG Export Plug-In . SVG Version: 6.00 Build 0)  -->
<!DOCTYPE svg PUBLIC "-//W3C//DTD SVG 1.1//EN" "http://www.w3.org/Graphics/SVG/1.1/DTD/svg11.dtd">
<svg version="1.1" id="Layer_1" xmlns="http://www.w3.org/2000/svg" xmlns:xlink="http://www.w3.org/1999/xlink" x="0px" y="0px"
	 viewBox="0 0 560 600" enable-background="new 0 0 560 600" xml:space="preserve">
<g>
	<g id="layer2">
		<path id="rect2223" fill="#CB2026" d="M164.7,186l79.7-45.7l79.4,49.9l-2.8,88.5l-76.8,45.8l-79.6-49.2L164.7,186L164.7,186z"/>
	</g>
	<path id="rect6194-4" fill="#1A1851" d="M196.3,180.1c0,22.4-0.1,43.2,0.1,65.7c0.7,20.1,16.1,38.5,35.8,42.7
		c18.2,4.4,38.6-3.6,48.8-19.3c6.2-8.8,8.4-19.6,7.9-30.2v-58.9H196.3z"/>
	<g>
		<g>
			<defs>
				<path id="SVGID_1_" d="M195.8,235.2c0,22.4,0.5-10.7,0.6,11.7c0.7,20.1,16.1,38.5,35.8,42.7c18.2,4.4,38.6-3.6,48.8-19.3
					c6.2-8.8,8.4-19.6,7.9-30.2v-5.2L195.8,235.2L195.8,235.2z"/>
			</defs>
			<clipPath id="SVGID_2_">
				<use xlink:href="#SVGID_1_"  overflow="visible"/>
			</clipPath>
			<rect id="rect6180" x="196.7" y="236.7" clip-path="url(#SVGID_2_)" fill="#1A1851" width="92.9" height="54.1"/>
		</g>
	</g>
	<g>
		<g>
			<defs>
				<path id="SVGID_3_" d="M195.8,235.2c0.2,1.7,0.5-10.7,0.6,11.7c0.7,20.1,16.1,38.5,35.8,42.7c18.2,4.4,38.6-3.6,48.8-19.3
					c6.2-8.8,8.4-19.6,7.9-30.2l-0.6-5L195.8,235.2L195.8,235.2z"/>
			</defs>
			<clipPath id="SVGID_4_">
				<use xlink:href="#SVGID_3_"  overflow="visible"/>
			</clipPath>
			<path id="path6182" clip-path="url(#SVGID_4_)" fill="#010101" stroke="#FFFFFF" stroke-width="12" d="M289.5,290.8l-93.4-54.3
				 M196.7,290.8l92.9-54.1"/>
		</g>
	</g>
	<g>
		<g>
			<defs>
				<path id="SVGID_5_" d="M195.8,235.2c-2.2,5.4,0.5-10.7,0.6,11.7c0.7,20.1,16.1,38.5,35.8,42.7c18.2,4.4,38.6-3.6,48.8-19.3
					c6.2-8.8,8.4-19.6,7.9-30.2l-0.6-5L195.8,235.2L195.8,235.2z"/>
			</defs>
			<clipPath id="SVGID_6_">
				<use xlink:href="#SVGID_5_"  overflow="visible"/>
			</clipPath>
			<path id="path6186" clip-path="url(#SVGID_6_)" fill="#CB2026" stroke="#FFFFFF" stroke-width="17" d="M243.1,290.8v-58.1
				 M289.5,263.8l-92.9-0.1"/>
		</g>
		<g>
			<defs>
				<path id="SVGID_7_" d="M195.8,235.2c-1.7-0.1,0.5-10.7,0.6,11.7c0.7,20.1,16.1,38.5,35.8,42.7c18.2,4.4,38.6-3.6,48.8-19.3
					c6.2-8.8,8.4-19.6,7.9-30.2l-0.6-5L195.8,235.2L195.8,235.2z"/>
			</defs>
			<clipPath id="SVGID_8_">
				<use xlink:href="#SVGID_7_"  overflow="visible"/>
			</clipPath>
			<path id="path6186_1_" clip-path="url(#SVGID_8_)" fill="#CB2026" stroke="#CB2026" stroke-width="13" d="M243.1,290.9v-58.1
				 M289.5,263.8l-92.9-0.1"/>
		</g>
	</g>
	<path id="path15487" fill="#FFFFFF" stroke="#1A1851" d="M268.7,193.1h8.6c-0.3,1.5-0.2,12,0,14.1h-8.6
		C269,204.9,269.2,195.6,268.7,193.1z"/>
	<path id="path15489" fill="#FFFFFF" stroke="#1A1851" d="M271.8,190.8v1.4h-1.6v-1.3h-2.1v1.3l0,0v1h9.7v-2.5h-2.2v1.4h-1.7v-1.4
		h-2.1V190.8z"/>
	<g id="g15513" transform="matrix(0.3646049,0,0,0.396623,-423.40232,443.91982)">
		<path id="path15525" fill="#1A1851" stroke="#1A1851" stroke-linecap="round" stroke-linejoin="bevel" d="M1906.2-619.2
			c0,0,0.1-2.7-0.1-5c-0.1-2.4,1.8-2.9,3.3-2.9c1.6,0,3.2,0.4,3.1,3c0,2.4-0.1,4.9-0.1,4.9H1906.2z"/>
	</g>
	<path id="path15529" fill="#FFFFFF" stroke="#1A1851" d="M268.9,202.8l8.3-0.2"/>
	<path id="path15531" fill="#FFFFFF" stroke="#1A1851" d="M270.8,202.8v2.7"/>
	<path id="path15533" fill="#FFFFFF" stroke="#1A1851" d="M275.2,202.6v2.9"/>
	<path id="path15539" fill="#FFFFFF" stroke="#1A1851" stroke-miterlimit="10" d="M258.8,189.5h8.6c-0.3,1.5-0.2,12,0,14.1h-8.6
		C259.1,201.3,259.3,192,258.8,189.5z"/>
	<path id="path15541" fill="#FFFFFF" stroke="#1A1851" stroke-miterlimit="10" d="M261.9,187.2v1.4h-1.6v-1.3h-2.1v1.3l0,0v1h9.7
		v-2.5h-2.2v1.4H264v-1.4h-2.1V187.2z"/>
	<g id="g15565" transform="matrix(0.3646049,0,0,0.396623,-423.40232,443.91982)">
		<path id="path15577" fill="#1A1851" stroke="#1A1851" stroke-miterlimit="10" d="M1879.1-628.2c0,0,0.1-2.7-0.1-5
			c-0.1-2.4,1.8-2.9,3.3-2.9s3.2,0.4,3.1,3c0,2.4-0.1,4.9-0.1,4.9H1879.1z"/>
	</g>
	<path id="path15589" fill="#FFFFFF" stroke="#1A1851" d="M248.2,192.9h8.6c-0.3,1.5-0.2,12,0,14.1h-8.6
		C248.6,204.7,248.7,195.4,248.2,192.9z"/>
	<path id="path15591" fill="#FFFFFF" stroke="#1A1851" d="M251.3,190.6v1.4h-1.6v-1.3h-2.1v1.3l0,0v1h9.7v-2.5h-2.2v1.4h-1.7v-1.4
		h-2.1V190.6z"/>
	<g id="g15615" transform="matrix(0.3646049,0,0,0.396623,-423.40232,443.91982)">
		<path id="path15627" fill="#1A1851" stroke="#1A1851" stroke-linecap="round" stroke-linejoin="bevel" d="M1850.1-619.6
			c0,0,0.1-2.7-0.1-5c-0.1-2.4,1.8-2.9,3.3-2.9c1.6,0,3.2,0.4,3.1,3c0,2.4-0.1,4.9-0.1,4.9H1850.1z"/>
	</g>
	<path id="path15631" fill="#FFFFFF" stroke="#1A1851" d="M247.1,203.7h32.4c-1.3,2.3-0.6,17.5,0,20.7h-32.4
		C248.3,221,249,207.3,247.1,203.7z"/>
	<path id="path15633" fill="#FFFFFF" stroke="#1A1851" d="M275.8,200.4v2.3h-25.1v-2.1h-3.9v2.4l0,0v1.3h32.9v-1.5l0,0v-2.4H275.8
		L275.8,200.4z"/>
	<g id="g15687" transform="matrix(0.07286305,0,0,0.06246221,130.55155,73.115053)">
		<path id="path15699" fill="#1A1851" d="M1980.5,2221.5c0,0,0.3-17.4-0.3-31.6c-0.6-15,8.8-18.7,16.7-18.4
			c7.9,0.2,15.8,2.6,15.7,18.8c-0.1,15.1-0.7,31.3-0.7,31.3L1980.5,2221.5z"/>
	</g>
	<g id="g15701" transform="matrix(0.07286305,0,0,0.06246221,105.22691,73.197861)">
		<path id="path15713" fill="#1A1851" d="M1985.8,2221.5c0,0,0.3-17.4-0.3-31.6c-0.6-15,8.8-18.7,16.7-18.4s15.8,2.6,15.7,18.8
			c-0.1,15.1-0.7,31.3-0.7,31.3L1985.8,2221.5z"/>
	</g>
	<path id="path15719" fill="#FFFFFF" stroke="#1A1851" stroke-width="1.4015" d="M253.2,203.2h20.5c-0.8,2.5-0.4,19.1,0,22.6h-20.5
		C254,222,254.5,207.2,253.2,203.2z"/>
	<path id="path15723" fill="#FFFFFF" stroke="#1A1851" stroke-width="1.4015" d="M258,199.9v2.3h-2.8v-2.1h-3.6v2.1v0.3v1.3h23.2
		v-1.6v-2.3h-3.6v2.3h-3v-2.3h-3.6v2.3h-3v-2.3H258z"/>
	<path id="path15753" fill="#FFFFFF" stroke="#1A1851" stroke-width="1.4015" d="M257.5,206.6v2.4"/>
	<path id="path15755" fill="#FFFFFF" stroke="#1A1851" stroke-width="1.4015" d="M268.9,206.5c0,0.3,0.2,2.5,0.2,2.5"/>
	<g id="g15759" transform="matrix(0.3646049,0,0,0.396623,-397.11105,515.43208)">
		<path id="path15771" fill="#1A1851" d="M1792.2-771.9c0,0,0.1-2.7-0.1-5c-0.1-2.4,1.8-2.9,3.3-2.9c1.6,0,3.2,0.4,3.1,3
			c0,2.4-0.1,4.9-0.1,4.9H1792.2z"/>
	</g>
	<g id="g15773" transform="matrix(0.3646049,0,0,0.396623,-338.21861,515.43207)">
		<path id="path15785" fill="#1A1851" d="M1662.5-771.9c0,0,0.1-2.7-0.1-5c-0.1-2.4,1.8-2.9,3.3-2.9s3.2,0.4,3.1,3
			c0,2.4-0.1,4.9-0.1,4.9H1662.5z"/>
	</g>
	<g id="g15839" transform="matrix(1,0,0,1.1812375,-646.76517,-198.64139)">
		<path id="path15861" fill="#1A1851" stroke="#1A1851" stroke-width="1.2895" stroke-linecap="round" stroke-linejoin="bevel" d="
			M906.8,357.8c0,0,0.1-2.3-0.1-4.2c-0.1-2,1.8-2.5,3.3-2.5c1.6,0,3.2,0.3,3.1,2.5c0,2-0.1,4.2-0.1,4.2H906.8L906.8,357.8z"/>
	</g>
	<rect id="rect15863" x="246.2" y="224" fill="#FFFFFF" stroke="#1A1851" stroke-width="0.2486" width="33.5" height="2"/>
	<g id="g3952" transform="matrix(0.19814666,0,0,0.19814666,33.715294,93.310675)">
		<g id="g3954" transform="translate(-551.4445,-446.3059)">
		</g>
		<g id="g3956" transform="translate(-551.4445,-446.3059)">
		</g>
		<g id="g3958" transform="translate(-495.01578,-522.94625)">
		</g>
		<g id="g3960" transform="translate(-495.01578,-522.94625)">
		</g>
		<g id="g3962" transform="translate(-495.01578,-522.94625)">
		</g>
		<g id="g3964" transform="translate(-495.01578,-522.94625)">
			<g id="g3966" transform="translate(132.0638,371.22924)">
			</g>
			<g id="g3968" transform="translate(132.0638,371.22924)">
			</g>
			<g id="g3970" transform="translate(188.49252,294.58889)">
			</g>
			<g id="g3972" transform="translate(188.49252,294.58889)">
			</g>
			<g id="g3974" transform="translate(188.49252,294.58889)">
			</g>
			<g id="g3976" transform="matrix(0.5869493,0,0,0.5869493,610.3503,952.94676)">
				<path id="path3978" fill="#FFFFFF" stroke="#1A1851" stroke-miterlimit="10" d="M1393.3,51.8c29,31.4,46.1,48.7,49.1,97.3
					c2.8,45-27.2,82.7-33.7,126.3c-1.2,8.3-2.3,25.1-1.2,32c0.8,5.1,3.3,20.5,6.1,1.4c0.6-3.9,1-23.7,2.7-33.7
					c3.2-18.3,13.3-50.4,30.9-68.2c17.6-17.8,45.4-29.4,70.2-20c22.5,10.4,24.6,39.7,18.2,61.1c-8,26.8-38.7,45.4-66.1,47.2
					c5.4-10.8,18.5-41.5,4.3-40.3c-16.4,1.4-35.9,29.2-41,48.3c-1.9,7.2-1.1,18.3-11.4,17.9c6.8,22.9,25.9,38,42.6,54
					c-17.5,1.5-34.7-6.8-50-14.6c0.6,15.7-2.4,48.8-20.8,66.9c-17.1-18.6-18.7-41.4-19-66.9c-15.2,7.8-32.5,16-50,14.6
					c16.7-16,35.9-31.1,42.6-54c-10.3,0.5-10.9-10-12.8-17.2c-5.1-19.1-23.3-47.6-39.6-49c-14.1-1.2-1.1,29.5,4.3,40.3
					c-27.5-1.8-58.1-20.4-66.1-47.2c-6.4-21.4-4.3-50.8,18.2-61.1c24.8-9.3,52.7,2.2,70.2,20c17.6,17.8,27.7,50,30.9,68.2
					c1.7,10,1.4,28.4,2,32.3c2.8,19.1,6,5.1,6.8,0c1.1-6.8,0.1-23.7-1.2-32c-6.5-43.6-33.6-82.8-33.7-126.3
					C1346,109.8,1365.8,79.9,1393.3,51.8z"/>
				<path id="rect3980" fill="#FFFFFF" stroke="#1A1851" stroke-miterlimit="10" d="M1454.3,303.8h-120.1c-3.8,0-6.9,3.1-6.9,6.9
					v7.9c0,3.8,3.1,6.9,6.9,6.9h120.1c3.8,0,6.9-3.1,6.9-6.9v-7.9C1461.2,306.9,1458.1,303.8,1454.3,303.8z"/>
			</g>
		</g>
	</g>
	<rect x="196.3" y="229.7" fill="#1A1851" width="92.9" height="6.1"/>
</g>
<g>
	<polygon fill="#8BC4EB" points="252.6,411 259.7,397.7 283.9,397.7 322.3,389 348.8,372.5 365.4,367.3 391,366.3 391,408.9 
		320,450 	"/>
	<polygon fill="#96AE97" points="283.9,397.7 265.5,403.5 250.7,414.6 237.3,389 241.7,340.3 247.3,314.7 277.7,297.3 319,275.7 
		345.3,290 376.4,306.7 392.5,317.5 399.7,350.3 394.3,388.3 368,388.7 343.3,377 290.7,377.3 294,392.4 	"/>
	<polygon fill="#006838" points="280.2,317.5 280.2,342.4 287.1,354.8 289.4,363.2 290.4,367.3 286.2,382.1 286.4,391.3 
		283.9,397.7 314.7,402.6 320.7,397.4 325.8,397.2 334,402.6 333.8,408.3 345.3,413.8 350,407.4 358.7,410.9 359,403.1 367.6,408.3 
		373.8,414.6 376.4,407.6 365.7,401.3 372.6,392.5 364.6,394.4 358.6,392.2 368,388.7 363.4,375.1 365.4,367.3 329,367.3 
		328.1,358.5 333.3,351.3 334.1,346.6 339.7,339.8 342.2,334.6 338,329.9 340,326.9 337.3,323.5 339.2,317.5 	"/>
</g>
<g>
	
		<radialGradient id="SVGID_9_" cx="713.9155" cy="300.6" r="289.6625" gradientTransform="matrix(-1 0 0 -1 994.2155 600)" gradientUnits="userSpaceOnUse">
		<stop  offset="0.5764" style="stop-color:#F15C2C"/>
		<stop  offset="0.6234" style="stop-color:#F58052"/>
		<stop  offset="0.6735" style="stop-color:#F89F77"/>
		<stop  offset="0.7251" style="stop-color:#FBBB9B"/>
		<stop  offset="0.7772" style="stop-color:#FDD2BB"/>
		<stop  offset="0.8301" style="stop-color:#FEE4D5"/>
		<stop  offset="0.8841" style="stop-color:#FFF1EA"/>
		<stop  offset="0.9398" style="stop-color:#FFFAF8"/>
		<stop  offset="1" style="stop-color:#FFFFFF"/>
	</radialGradient>
	<path fill="url(#SVGID_9_)" d="M0.5,276.1l79.8,46.2l-0.3,0.1v91.7l80,46.3l0.3-0.1v92l80,46.3l79.9-46.2l79.9,46.2l80-46.3v-91.9
		l80-46.3v-92.3l-80-46.3v-91.7l-80-46.3v-91L320,0.2l-80,46.3L160,0.2L80,46.5v91l0.3,0.1l-0.3,0.1l-79.5,46V276.1z M231,133.6
		l-71,41.1l-71-41.1V51.7l71-41.1l71,41.1V133.6z M240.5,148.2l71,41.1v81.9l-71,41.1l-71-41.1v-81.9L240.5,148.2z M320,450
		l-71-41.1V327l71-41.1l71,41.1v81.9L320,450z M391,133.6l-71,41.1l-71-41.1V51.7l71-41.1l71,41.1V133.6z M471,270.9L400,312
		l-71-41.1V189l71-41.1l71,41.1V270.9z M480,450l-71-41v-82l71-41.1l71,41.1v82L480,450z M329,465.2l71-41.1l71,41.1v81.9l-71,41.1
		l-71-41.1V465.2z M169.2,465.2l71-41.1l71,41.1v81.9l-71,41.1l-71-41.1L169.2,465.2L169.2,465.2z M89,327l71-41.1l71,41.1v81.9
		L160,450l-71-41.1V327z M9.5,189l71-41.1l71,41.1v81.9l-71,41.1l-71-41.1V189z"/>
</g>
</svg>
