<?xml version="1.0" encoding="utf-8"?>
<!-- Generator: Adobe Illustrator 18.0.0, SVG Export Plug-In . SVG Version: 6.00 Build 0)  -->
<!DOCTYPE svg PUBLIC "-//W3C//DTD SVG 1.1//EN" "http://www.w3.org/Graphics/SVG/1.1/DTD/svg11.dtd">
<svg version="1.1" id="Layer_1" xmlns="http://www.w3.org/2000/svg" xmlns:xlink="http://www.w3.org/1999/xlink" x="0px" y="0px"
	 viewBox="0 0 128 128" enable-background="new 0 0 128 128" xml:space="preserve">
<g>
	<polygon fill="#FFFFFF" points="11,95.3 11,34.5 64,3.5 117,33.2 117,95.3 64.6,124.6 	"/>
	<path fill="#F15C2B" d="M64.1,6.9l50,28v58.6l-49.5,27.6L14,93.5V36.3L64.1,6.9 M64,0L8,32.8v64.2L64.6,128L120,97.1V31.4L64,0
		L64,0z"/>
</g>
<g>
	<radialGradient id="SVGID_1_" cx="66.0559" cy="63.9841" r="42.3532" gradientUnits="userSpaceOnUse">
		<stop  offset="0" style="stop-color:#87C541;stop-opacity:0.7"/>
		<stop  offset="0.1951" style="stop-color:#82C042;stop-opacity:0.7585"/>
		<stop  offset="0.4259" style="stop-color:#73B643;stop-opacity:0.8278"/>
		<stop  offset="0.6748" style="stop-color:#58A845;stop-opacity:0.9024"/>
		<stop  offset="0.9349" style="stop-color:#269847;stop-opacity:0.9805"/>
		<stop  offset="1" style="stop-color:#059347"/>
	</radialGradient>
	<circle fill="url(#SVGID_1_)" cx="66.1" cy="64" r="42.4"/>
	<path fill="#FCEE21" d="M108.4,63.8c0,22-16.8,40.1-38.3,42.2c0,0,0,0,0,0c-1.3,0.1-2.7,0.2-4.1,0.2v-1
		c22.4-0.5,40.4-18.9,40.4-41.4c0-22.5-18-40.9-40.4-41.4v-1C89.4,21.5,108.4,40.4,108.4,63.8z"/>
	<radialGradient id="SVGID_2_" cx="66.054" cy="63.8422" r="29.9482" gradientUnits="userSpaceOnUse">
		<stop  offset="0" style="stop-color:#87C541;stop-opacity:0.7"/>
		<stop  offset="0.1951" style="stop-color:#82C042;stop-opacity:0.7585"/>
		<stop  offset="0.4259" style="stop-color:#73B643;stop-opacity:0.8278"/>
		<stop  offset="0.6748" style="stop-color:#58A845;stop-opacity:0.9024"/>
		<stop  offset="0.9349" style="stop-color:#269847;stop-opacity:0.9805"/>
		<stop  offset="1" style="stop-color:#059347"/>
	</radialGradient>
	<path fill="url(#SVGID_2_)" d="M66.1,106.2V21.5"/>
	<radialGradient id="SVGID_3_" cx="77.4716" cy="63.8382" r="18.8802" gradientUnits="userSpaceOnUse">
		<stop  offset="0" style="stop-color:#046938"/>
		<stop  offset="0.735" style="stop-color:#059147"/>
		<stop  offset="0.7634" style="stop-color:#059347"/>
	</radialGradient>
	<polygon fill="url(#SVGID_3_)" points="89.1,68.6 76.9,67.7 87.3,74.1 75.7,70.3 84.2,79 73.9,72.6 80.1,83.1 71.6,74.3 75.1,86 
		68.9,75.5 69.6,87.7 66.1,76 65.5,79.1 65.5,48.8 67.2,40 67.7,52.2 72.8,41.1 70.5,53.1 78.1,43.5 73,54.6 82.6,47.2 75,56.7 
		86.2,51.7 76.5,59.2 88.5,57.1 77.3,61.9 89.5,62.8 77.5,64.8 	"/>
	<polygon fill="#EB2227" points="64.3,62.7 64.2,62.7 64.3,62.5 	"/>
	<g>
		<g>
			<g>
				<rect x="66.8" y="68.1" fill="none" width="3.7" height="3.7"/>
				<circle fill="#231F20" cx="68.6" cy="70" r="1.9"/>
			</g>
			<g>
				<rect x="70" y="66.2" fill="none" width="3.7" height="3.7"/>
				<circle fill="#231F20" cx="71.9" cy="68" r="1.9"/>
			</g>
			<g>
				<rect x="75.7" y="63.9" fill="none" width="3.7" height="3.7"/>
				<circle fill="#231F20" cx="77.5" cy="65.8" r="1.9"/>
			</g>
			<g>
				<rect x="74.8" y="60.1" fill="none" width="3.7" height="3.7"/>
				<circle fill="#231F20" cx="76.6" cy="62" r="1.9"/>
			</g>
			<g>
				<rect x="68.6" y="57.8" fill="none" width="3.7" height="3.7"/>
				<circle fill="#231F20" cx="70.5" cy="59.7" r="1.9"/>
			</g>
			<g>
				<rect x="67.5" y="53.9" fill="none" width="3.7" height="3.7"/>
				<circle fill="#231F20" cx="69.4" cy="55.8" r="1.9"/>
			</g>
			<g>
				<rect x="62.4" y="54.1" fill="none" width="3.7" height="3.7"/>
				<circle fill="#231F20" cx="64.2" cy="55.9" r="1.9"/>
			</g>
			<g>
				<rect x="65.8" y="57.8" fill="none" width="3.7" height="3.7"/>
				<circle fill="#231F20" cx="67.7" cy="59.7" r="1.9"/>
			</g>
			<g>
				<rect x="60.5" y="61.5" fill="none" width="3.7" height="3.7"/>
				<circle fill="#231F20" cx="62.4" cy="63.4" r="1.9"/>
			</g>
			<g>
				<rect x="64.4" y="65.3" fill="none" width="3.7" height="3.7"/>
				<circle fill="#231F20" cx="66.3" cy="67.1" r="1.9"/>
			</g>
			<g>
				<rect x="63.6" y="69" fill="none" width="3.7" height="3.7"/>
				<circle fill="#231F20" cx="65.4" cy="70.9" r="1.9"/>
			</g>
			<g>
				<rect x="66.7" y="71" fill="none" width="3.7" height="3.7"/>
				<circle fill="#231F20" cx="68.6" cy="72.8" r="1.9"/>
			</g>
		</g>
	</g>
	<path fill="#E7EC9F" d="M72.7,63.8c0,3.6-3,6.6-6.6,6.6V57.2C69.7,57.2,72.7,60.2,72.7,63.8z"/>
	<polygon fill="#FFFFFF" points="66,109.3 27,100.1 25.9,29.4 66,18.7 	"/>
	<circle fill="none" cx="65.3" cy="64" r="42.4"/>
	<path fill="#C3974E" d="M109,64c0,22.4-16.7,41-38.9,43.3l-0.6,0.1c-1.3,0.1-2.1,0.2-3.5,0.2c0,0,0.1-1.9,0.1-2.4
		c6.7-0.2,12.8-1.8,18.3-4.7c0.3-0.2,0.7-0.4,1-0.5c4.1-2.2,7.5-5.1,10.6-8.5c6.6-7.3,10.5-16.8,10.5-27.4c0-13-5.8-24.5-15.3-32
		c-0.1-0.1-0.6-0.4-0.7-0.5c-0.3-0.2-0.7-0.5-0.9-0.7c-6.7-5-14.6-7.7-23.5-7.9c0-0.7,0-2.4,0-2.4C90.1,20.5,109,40,109,64z"/>
	<path fill="#BE202E" d="M28.2,39.1C52.9,53.1,61,57.7,61,57.7l0,0v0L28.2,39.1L61,57.7V20.4C46,20.4,33.8,28.6,28.2,39.1z"/>
	<path fill="#1D76BB" d="M61.2,106C61,77.6,61,68.3,61,68.3l0,0l0,0L61.2,106L61,68.3L28.4,87.4C35.9,100.3,49.3,106.4,61.2,106z"/>
	<path fill="#F69321" d="M25.6,81.7c24.5-14.4,32.6-19.1,32.6-19.1l0,0l0,0L25.6,81.7l32.6-19.1L25.3,44
		C17.9,56.9,19.3,71.6,25.6,81.7z"/>
</g>
<g>
	<path fill="#F15C2B" d="M64.1,6.9l50,28v58.6l-49.5,27.6L14,93.5V36.3L64.1,6.9 M64,0L8,32.8v64.2L64.6,128L120,97.1V31.4L64,0
		L64,0z"/>
</g>
</svg>
