<?xml version="1.0" encoding="utf-8"?>
<!-- Generator: Adobe Illustrator 18.0.0, SVG Export Plug-In . SVG Version: 6.00 Build 0)  -->
<!DOCTYPE svg PUBLIC "-//W3C//DTD SVG 1.1//EN" "http://www.w3.org/Graphics/SVG/1.1/DTD/svg11.dtd">
<svg version="1.1" id="Layer_1" xmlns="http://www.w3.org/2000/svg" xmlns:xlink="http://www.w3.org/1999/xlink" x="0px" y="0px"
	 viewBox="0 0 128 128" enable-background="new 0 0 128 128" xml:space="preserve">
<g>
	<g>
		<polygon fill="#FFFFFF" points="11,95.3 11,34.5 64,3.5 117,33.2 117,95.3 64.6,124.6 		"/>
		<path fill="#F15C2B" d="M64.1,6.9l50,28v58.6l-49.5,27.6L14,93.5V36.3L64.1,6.9 M64,0L8,32.8v64.2L64.6,128L120,97.1V31.4L64,0
			L64,0z"/>
	</g>
	<g>
		<g>
			
				<radialGradient id="SVGID_1_" cx="380.177" cy="80.7623" r="8.0041" gradientTransform="matrix(1.5809 0 0 0.18 -537.0151 66.2251)" gradientUnits="userSpaceOnUse">
				<stop  offset="0" style="stop-color:#FFFFFF"/>
				<stop  offset="0.2704" style="stop-color:#FDFDFE"/>
				<stop  offset="0.4159" style="stop-color:#F5F5F9"/>
				<stop  offset="0.5318" style="stop-color:#E7E8F2"/>
				<stop  offset="0.632" style="stop-color:#D4D5E8"/>
				<stop  offset="0.7221" style="stop-color:#BBBDDA"/>
				<stop  offset="0.8049" style="stop-color:#9CA0CA"/>
				<stop  offset="0.8823" style="stop-color:#777CB6"/>
				<stop  offset="0.9533" style="stop-color:#4E54A0"/>
				<stop  offset="1" style="stop-color:#2E368F"/>
			</radialGradient>
			<path fill="url(#SVGID_1_)" d="M80.2,82.6H47.8c-0.8,0-1.4-0.6-1.4-1.4v-0.8c0-0.8,0.6-1.4,1.4-1.4h32.5c0.8,0,1.4,0.6,1.4,1.4
				v0.8C81.7,81.9,81,82.6,80.2,82.6z"/>
			
				<radialGradient id="SVGID_2_" cx="295.281" cy="86.2946" r="8.0041" gradientTransform="matrix(1.3659 0 0 0.18 -339.311 70.7616)" gradientUnits="userSpaceOnUse">
				<stop  offset="0" style="stop-color:#FFFFFF"/>
				<stop  offset="0.2704" style="stop-color:#FDFDFE"/>
				<stop  offset="0.4159" style="stop-color:#F5F5F9"/>
				<stop  offset="0.5318" style="stop-color:#E7E8F2"/>
				<stop  offset="0.632" style="stop-color:#D4D5E8"/>
				<stop  offset="0.7221" style="stop-color:#BBBDDA"/>
				<stop  offset="0.8049" style="stop-color:#9CA0CA"/>
				<stop  offset="0.8823" style="stop-color:#777CB6"/>
				<stop  offset="0.9533" style="stop-color:#4E54A0"/>
				<stop  offset="1" style="stop-color:#2E368F"/>
			</radialGradient>
			<path fill="url(#SVGID_2_)" d="M77.8,88.1H50.2c-0.8,0-1.4-0.6-1.4-1.4v-0.8c0-0.8,0.6-1.4,1.4-1.4h27.7c0.8,0,1.4,0.6,1.4,1.4
				v0.8C79.3,87.5,78.6,88.1,77.8,88.1z"/>
			
				<radialGradient id="SVGID_3_" cx="295.281" cy="75.23" r="8.0041" gradientTransform="matrix(1.3659 0 0 0.18 -339.311 61.6886)" gradientUnits="userSpaceOnUse">
				<stop  offset="0" style="stop-color:#FFFFFF"/>
				<stop  offset="0.2704" style="stop-color:#FDFDFE"/>
				<stop  offset="0.4159" style="stop-color:#F5F5F9"/>
				<stop  offset="0.5318" style="stop-color:#E7E8F2"/>
				<stop  offset="0.632" style="stop-color:#D4D5E8"/>
				<stop  offset="0.7221" style="stop-color:#BBBDDA"/>
				<stop  offset="0.8049" style="stop-color:#9CA0CA"/>
				<stop  offset="0.8823" style="stop-color:#777CB6"/>
				<stop  offset="0.9533" style="stop-color:#4E54A0"/>
				<stop  offset="1" style="stop-color:#2E368F"/>
			</radialGradient>
			<path fill="url(#SVGID_3_)" d="M77.8,77H50.2c-0.8,0-1.4-0.6-1.4-1.4v-0.8c0-0.8,0.6-1.4,1.4-1.4h27.7c0.8,0,1.4,0.6,1.4,1.4v0.8
				C79.3,76.4,78.6,77,77.8,77z"/>
			
				<radialGradient id="SVGID_4_" cx="77.9293" cy="69.6976" r="8.0041" gradientTransform="matrix(1.0142 0 0 0.18 -15.035 57.152)" gradientUnits="userSpaceOnUse">
				<stop  offset="0" style="stop-color:#FFFFFF"/>
				<stop  offset="0.2704" style="stop-color:#FDFDFE"/>
				<stop  offset="0.4159" style="stop-color:#F5F5F9"/>
				<stop  offset="0.5318" style="stop-color:#E7E8F2"/>
				<stop  offset="0.632" style="stop-color:#D4D5E8"/>
				<stop  offset="0.7221" style="stop-color:#BBBDDA"/>
				<stop  offset="0.8049" style="stop-color:#9CA0CA"/>
				<stop  offset="0.8823" style="stop-color:#777CB6"/>
				<stop  offset="0.9533" style="stop-color:#4E54A0"/>
				<stop  offset="1" style="stop-color:#2E368F"/>
			</radialGradient>
			<path fill="url(#SVGID_4_)" d="M73.9,71.5H54.1c-0.8,0-1.4-0.6-1.4-1.4v-0.8c0-0.8,0.6-1.4,1.4-1.4h19.8c0.8,0,1.4,0.6,1.4,1.4
				v0.8C75.3,70.9,74.7,71.5,73.9,71.5z"/>
			
				<radialGradient id="SVGID_5_" cx="77.9293" cy="91.827" r="8.0041" gradientTransform="matrix(1.0142 0 0 0.18 -15.035 75.2981)" gradientUnits="userSpaceOnUse">
				<stop  offset="0" style="stop-color:#FFFFFF"/>
				<stop  offset="0.2704" style="stop-color:#FDFDFE"/>
				<stop  offset="0.4159" style="stop-color:#F5F5F9"/>
				<stop  offset="0.5318" style="stop-color:#E7E8F2"/>
				<stop  offset="0.632" style="stop-color:#D4D5E8"/>
				<stop  offset="0.7221" style="stop-color:#BBBDDA"/>
				<stop  offset="0.8049" style="stop-color:#9CA0CA"/>
				<stop  offset="0.8823" style="stop-color:#777CB6"/>
				<stop  offset="0.9533" style="stop-color:#4E54A0"/>
				<stop  offset="1" style="stop-color:#2E368F"/>
			</radialGradient>
			<path fill="url(#SVGID_5_)" d="M73.9,93.6H54.1c-0.8,0-1.4-0.6-1.4-1.4v-0.8c0-0.8,0.6-1.4,1.4-1.4h19.8c0.8,0,1.4,0.6,1.4,1.4
				v0.8C75.3,93,74.7,93.6,73.9,93.6z"/>
		</g>
		<g>
			
				<radialGradient id="SVGID_6_" cx="380.177" cy="47.2397" r="8.0041" gradientTransform="matrix(1.5809 0 0 0.18 -537.0151 38.7365)" gradientUnits="userSpaceOnUse">
				<stop  offset="0" style="stop-color:#FFFFFF"/>
				<stop  offset="0.2704" style="stop-color:#FDFDFE"/>
				<stop  offset="0.4159" style="stop-color:#F5F5F9"/>
				<stop  offset="0.5318" style="stop-color:#E7E8F2"/>
				<stop  offset="0.632" style="stop-color:#D4D5E8"/>
				<stop  offset="0.7221" style="stop-color:#BBBDDA"/>
				<stop  offset="0.8049" style="stop-color:#9CA0CA"/>
				<stop  offset="0.8823" style="stop-color:#777CB6"/>
				<stop  offset="0.9533" style="stop-color:#4E54A0"/>
				<stop  offset="1" style="stop-color:#2E368F"/>
			</radialGradient>
			<path fill="url(#SVGID_6_)" d="M80.2,49H47.8c-0.8,0-1.4-0.6-1.4-1.4v-0.8c0-0.8,0.6-1.4,1.4-1.4h32.5c0.8,0,1.4,0.6,1.4,1.4v0.8
				C81.7,48.4,81,49,80.2,49z"/>
			
				<radialGradient id="SVGID_7_" cx="295.281" cy="52.772" r="8.0041" gradientTransform="matrix(1.3659 0 0 0.18 -339.311 43.273)" gradientUnits="userSpaceOnUse">
				<stop  offset="0" style="stop-color:#FFFFFF"/>
				<stop  offset="0.2704" style="stop-color:#FDFDFE"/>
				<stop  offset="0.4159" style="stop-color:#F5F5F9"/>
				<stop  offset="0.5318" style="stop-color:#E7E8F2"/>
				<stop  offset="0.632" style="stop-color:#D4D5E8"/>
				<stop  offset="0.7221" style="stop-color:#BBBDDA"/>
				<stop  offset="0.8049" style="stop-color:#9CA0CA"/>
				<stop  offset="0.8823" style="stop-color:#777CB6"/>
				<stop  offset="0.9533" style="stop-color:#4E54A0"/>
				<stop  offset="1" style="stop-color:#2E368F"/>
			</radialGradient>
			<path fill="url(#SVGID_7_)" d="M77.8,54.6H50.2c-0.8,0-1.4-0.6-1.4-1.4v-0.8c0-0.8,0.6-1.4,1.4-1.4h27.7c0.8,0,1.4,0.6,1.4,1.4
				v0.8C79.3,53.9,78.6,54.6,77.8,54.6z"/>
			
				<radialGradient id="SVGID_8_" cx="295.281" cy="41.7073" r="8.0041" gradientTransform="matrix(1.3659 0 0 0.18 -339.311 34.2)" gradientUnits="userSpaceOnUse">
				<stop  offset="0" style="stop-color:#FFFFFF"/>
				<stop  offset="0.2704" style="stop-color:#FDFDFE"/>
				<stop  offset="0.4159" style="stop-color:#F5F5F9"/>
				<stop  offset="0.5318" style="stop-color:#E7E8F2"/>
				<stop  offset="0.632" style="stop-color:#D4D5E8"/>
				<stop  offset="0.7221" style="stop-color:#BBBDDA"/>
				<stop  offset="0.8049" style="stop-color:#9CA0CA"/>
				<stop  offset="0.8823" style="stop-color:#777CB6"/>
				<stop  offset="0.9533" style="stop-color:#4E54A0"/>
				<stop  offset="1" style="stop-color:#2E368F"/>
			</radialGradient>
			<path fill="url(#SVGID_8_)" d="M77.8,43.5H50.2c-0.8,0-1.4-0.6-1.4-1.4v-0.8c0-0.8,0.6-1.4,1.4-1.4h27.7c0.8,0,1.4,0.6,1.4,1.4
				v0.8C79.3,42.9,78.6,43.5,77.8,43.5z"/>
			
				<radialGradient id="SVGID_9_" cx="77.9293" cy="36.175" r="8.0041" gradientTransform="matrix(1.0142 0 0 0.18 -15.035 29.6635)" gradientUnits="userSpaceOnUse">
				<stop  offset="0" style="stop-color:#FFFFFF"/>
				<stop  offset="0.2704" style="stop-color:#FDFDFE"/>
				<stop  offset="0.4159" style="stop-color:#F5F5F9"/>
				<stop  offset="0.5318" style="stop-color:#E7E8F2"/>
				<stop  offset="0.632" style="stop-color:#D4D5E8"/>
				<stop  offset="0.7221" style="stop-color:#BBBDDA"/>
				<stop  offset="0.8049" style="stop-color:#9CA0CA"/>
				<stop  offset="0.8823" style="stop-color:#777CB6"/>
				<stop  offset="0.9533" style="stop-color:#4E54A0"/>
				<stop  offset="1" style="stop-color:#2E368F"/>
			</radialGradient>
			<path fill="url(#SVGID_9_)" d="M73.9,38H54.1c-0.8,0-1.4-0.6-1.4-1.4v-0.8c0-0.8,0.6-1.4,1.4-1.4h19.8c0.8,0,1.4,0.6,1.4,1.4v0.8
				C75.3,37.3,74.7,38,73.9,38z"/>
			
				<radialGradient id="SVGID_10_" cx="77.9293" cy="58.3043" r="8.0041" gradientTransform="matrix(1.0142 0 0 0.18 -15.035 47.8095)" gradientUnits="userSpaceOnUse">
				<stop  offset="0" style="stop-color:#FFFFFF"/>
				<stop  offset="0.2704" style="stop-color:#FDFDFE"/>
				<stop  offset="0.4159" style="stop-color:#F5F5F9"/>
				<stop  offset="0.5318" style="stop-color:#E7E8F2"/>
				<stop  offset="0.632" style="stop-color:#D4D5E8"/>
				<stop  offset="0.7221" style="stop-color:#BBBDDA"/>
				<stop  offset="0.8049" style="stop-color:#9CA0CA"/>
				<stop  offset="0.8823" style="stop-color:#777CB6"/>
				<stop  offset="0.9533" style="stop-color:#4E54A0"/>
				<stop  offset="1" style="stop-color:#2E368F"/>
			</radialGradient>
			<path fill="url(#SVGID_10_)" d="M73.9,60.1H54.1c-0.8,0-1.4-0.6-1.4-1.4v-0.8c0-0.8,0.6-1.4,1.4-1.4h19.8c0.8,0,1.4,0.6,1.4,1.4
				v0.8C75.3,59.5,74.7,60.1,73.9,60.1z"/>
		</g>
		<path fill="#2E368F" stroke="#2E368F" stroke-miterlimit="10" d="M48.4,80.8h-3.9c0-9.6,9.5-14.2,18.6-18.5
			c8.4-4,16.4-7.8,16.4-15h3.9c0,9.6-9.5,14.2-18.6,18.5C56.4,69.8,48.4,73.6,48.4,80.8z"/>
		<path fill="#2E368F" stroke="#2E368F" stroke-miterlimit="10" d="M48.4,47.2h-3.9c0-9.6,9.5-14.2,18.6-18.5
			c8.4-4,16.4-7.8,16.4-15h3.9c0,9.6-9.5,14.2-18.6,18.5C56.4,36.3,48.4,40.1,48.4,47.2z"/>
		
			<linearGradient id="SVGID_11_" gradientUnits="userSpaceOnUse" x1="44.5" y1="1715.2856" x2="83.5" y2="1715.2856" gradientTransform="matrix(1 0 0 -1 0 1745.7649)">
			<stop  offset="9.139785e-002" style="stop-color:#2E368F"/>
			<stop  offset="0.2802" style="stop-color:#9397C5"/>
			<stop  offset="0.4892" style="stop-color:#FFFFFF"/>
			<stop  offset="0.5495" style="stop-color:#FBFBFD"/>
			<stop  offset="0.6092" style="stop-color:#EFF0F6"/>
			<stop  offset="0.6686" style="stop-color:#DBDDEC"/>
			<stop  offset="0.728" style="stop-color:#BFC2DD"/>
			<stop  offset="0.7873" style="stop-color:#9B9FCA"/>
			<stop  offset="0.8466" style="stop-color:#6F75B2"/>
			<stop  offset="0.9048" style="stop-color:#3C4397"/>
			<stop  offset="0.9194" style="stop-color:#2E368F"/>
		</linearGradient>
		<path fill="url(#SVGID_11_)" stroke="#2E368F" stroke-miterlimit="10" d="M83.5,47.2h-3.9c0-7.1-8-10.9-16.4-15
			c-9.2-4.4-18.7-8.9-18.7-18.5h3.9c0,7.1,8,10.9,16.4,15C74,33.1,83.5,37.6,83.5,47.2z"/>
		<path fill="#2E368F" stroke="#2E368F" stroke-miterlimit="10" d="M48.4,114.3h-3.9c0-9.6,9.5-14.2,18.6-18.5
			c8.4-4,16.4-7.8,16.4-15h3.9c0,9.6-9.5,14.2-18.6,18.5C56.4,103.3,48.4,107.1,48.4,114.3z"/>
		
			<linearGradient id="SVGID_12_" gradientUnits="userSpaceOnUse" x1="44.5" y1="1648.2441" x2="83.5" y2="1648.2441" gradientTransform="matrix(1 0 0 -1 0 1745.7649)">
			<stop  offset="9.139785e-002" style="stop-color:#2E368F"/>
			<stop  offset="0.2802" style="stop-color:#9397C5"/>
			<stop  offset="0.4892" style="stop-color:#FFFFFF"/>
			<stop  offset="0.5495" style="stop-color:#FBFBFD"/>
			<stop  offset="0.6092" style="stop-color:#EFF0F6"/>
			<stop  offset="0.6686" style="stop-color:#DBDDEC"/>
			<stop  offset="0.728" style="stop-color:#BFC2DD"/>
			<stop  offset="0.7873" style="stop-color:#9B9FCA"/>
			<stop  offset="0.8466" style="stop-color:#6F75B2"/>
			<stop  offset="0.9048" style="stop-color:#3C4397"/>
			<stop  offset="0.9194" style="stop-color:#2E368F"/>
		</linearGradient>
		<path fill="url(#SVGID_12_)" stroke="#2E368F" stroke-miterlimit="10" d="M83.5,114.3h-3.9c0-7.1-8-10.9-16.4-15
			c-9.2-4.4-18.7-8.9-18.7-18.5h3.9c0,7.1,8,10.9,16.4,15C74,100.1,83.5,104.7,83.5,114.3z"/>
		
			<linearGradient id="SVGID_13_" gradientUnits="userSpaceOnUse" x1="44.5" y1="1681.7649" x2="83.5" y2="1681.7649" gradientTransform="matrix(1 0 0 -1 0 1745.7649)">
			<stop  offset="9.139785e-002" style="stop-color:#2E368F"/>
			<stop  offset="0.2802" style="stop-color:#9397C5"/>
			<stop  offset="0.4892" style="stop-color:#FFFFFF"/>
			<stop  offset="0.5495" style="stop-color:#FBFBFD"/>
			<stop  offset="0.6092" style="stop-color:#EFF0F6"/>
			<stop  offset="0.6686" style="stop-color:#DBDDEC"/>
			<stop  offset="0.728" style="stop-color:#BFC2DD"/>
			<stop  offset="0.7873" style="stop-color:#9B9FCA"/>
			<stop  offset="0.8466" style="stop-color:#6F75B2"/>
			<stop  offset="0.9048" style="stop-color:#3C4397"/>
			<stop  offset="0.9194" style="stop-color:#2E368F"/>
		</linearGradient>
		<path fill="url(#SVGID_13_)" stroke="#2E368F" stroke-miterlimit="10" d="M83.5,80.8h-3.9c0-7.1-8-10.9-16.4-15
			c-9.2-4.4-18.7-8.9-18.7-18.5h3.9c0,7.1,8,10.9,16.4,15C74,66.6,83.5,71.1,83.5,80.8z"/>
	</g>
	<g>
		<path fill="#F15C2B" d="M64.1,6.9l50,28v58.6l-49.5,27.6L14,93.5V36.3L64.1,6.9 M64,0L8,32.8v64.2L64.6,128L120,97.1V31.4L64,0
			L64,0z"/>
	</g>
</g>
</svg>
