<?xml version="1.0" encoding="utf-8"?>
<!-- Generator: Adobe Illustrator 19.1.1, SVG Export Plug-In . SVG Version: 6.00 Build 0)  -->
<svg version="1.1" id="Layer_1" xmlns="http://www.w3.org/2000/svg" xmlns:xlink="http://www.w3.org/1999/xlink" x="0px" y="0px"
	 viewBox="-241 333 128 128" style="enable-background:new -241 333 128 128;" xml:space="preserve">
<style type="text/css">
	.st0{fill:#FFFFFF;}
	.st1{fill:#F15C2B;}
	.st2{fill:url(#SVGID_1_);}
	.st3{fill:none;stroke:#F6B7D3;stroke-miterlimit:10;}
	.st4{fill:url(#SVGID_2_);}
	.st5{fill:#58595B;}
	.st6{fill:#F6B7D3;}
	.st7{fill:#A1798D;}
</style>
<g>
	<polygon class="st0" points="-230,428.3 -230,367.5 -177,336.5 -124,366.2 -124,428.3 -176.4,457.6 	"/>
	<path class="st1" d="M-176.9,339.9l50,28v58.6l-49.5,27.6l-50.6-27.6v-57.2L-176.9,339.9 M-177,333l-56,32.8V430l56.6,31l55.4-30.9
		v-65.7L-177,333L-177,333z"/>
</g>
<g>
	<path class="st1" d="M-176.9,339.9l50,28v58.6l-49.5,27.6l-50.6-27.6v-57.2L-176.9,339.9 M-177,333l-56,32.8V430l56.6,31l55.4-30.9
		v-65.7L-177,333L-177,333z"/>
</g>
<a xlink:href="student.html" >
	
		<radialGradient id="SVGID_1_" cx="-176.1236" cy="400.1876" r="41.1127" gradientTransform="matrix(1 0 0 -1 0 796)" gradientUnits="userSpaceOnUse">
		<stop  offset="0" style="stop-color:#F6B7D3;stop-opacity:0.6"/>
		<stop  offset="0.1498" style="stop-color:#F3B2D1;stop-opacity:0.6599"/>
		<stop  offset="0.3196" style="stop-color:#E9A5CA;stop-opacity:0.7279"/>
		<stop  offset="0.4992" style="stop-color:#D98EBF;stop-opacity:0.7997"/>
		<stop  offset="0.6855" style="stop-color:#C26EB0;stop-opacity:0.8742"/>
		<stop  offset="0.8751" style="stop-color:#A6469D;stop-opacity:0.95"/>
		<stop  offset="1" style="stop-color:#90278E"/>
	</radialGradient>
	<circle class="st2" cx="-176.1" cy="395.8" r="41.1"/>
	<path class="st3" d="M-202,427.8c0,0,59.9-19.1,57.1-58.8"/>
	<path class="st3" d="M-137.3,402.5c0,0-50.8,3.4-70.1-33.5c0,0-0.1,53.8,60.5,55.7"/>
	<path class="st3" d="M-217.2,392.3c0,0,37.2-36.7,82.1,1.7"/>
	
		<linearGradient id="SVGID_2_" gradientUnits="userSpaceOnUse" x1="-146.9129" y1="370.8873" x2="-205.4595" y2="429.4339" gradientTransform="matrix(1 0 0 -1 0 796)">
		<stop  offset="0" style="stop-color:#231F20"/>
		<stop  offset="0.1748" style="stop-color:#272425"/>
		<stop  offset="0.3723" style="stop-color:#333132"/>
		<stop  offset="0.5161" style="stop-color:#404041"/>
	</linearGradient>
	<path class="st4" d="M-138.8,395.8c-0.2,23.2-21.7,41.1-44.7,36.6c-10.8-2.2-20.1-9.1-25.4-18.7c-5.6-9.9-5.8-21.9-1.7-32.4
		c6.5-16.2,24.9-25.4,41.7-22.1C-151.5,362.6-139,378.3-138.8,395.8c0.1,4.9,7.7,4.9,7.7,0c-0.2-24.4-19.9-44.4-44.2-44.9
		c-24.4-0.6-44.7,19.5-45.7,43.6c-1,24.5,18.8,44.9,42.9,46.3c11.8,0.7,23.4-3.8,32.3-11.5c8.8-7.7,13.9-19,14.8-30.6
		c0.1-1,0.1-1.9,0.1-2.9C-131.1,390.9-138.8,390.9-138.8,395.8z"/>
	<g>
		<g>
			<g>
				<path class="st5" d="M-163.2,397.1c0,0,0,0.3,0,0.8c0,0.1,0,0.3,0,0.5s-0.1,0.4-0.1,0.6s-0.1,0.5-0.1,0.7
					c-0.1,0.2-0.1,0.5-0.1,0.8c-0.3,1.1-0.6,2.4-1.5,3.8c-0.8,1.4-1.9,2.9-3.5,4.1c-1.6,1.3-3.7,2.2-6.1,2.5
					c-0.3,0.1-0.6,0.1-0.9,0.1h-0.4h-0.2h-0.1l0,0h-0.1h-0.1c-0.5-0.1-1,0-1.7-0.2c-0.3-0.1-0.7-0.1-1-0.2c-0.3-0.1-0.6-0.2-0.9-0.3
					c-0.3-0.1-0.6-0.2-0.9-0.3c-0.3-0.1-0.6-0.2-0.8-0.4c-1.1-0.6-2.2-1.4-3.1-2.3c-0.9-0.9-1.6-2-2.2-3.1s-1-2.3-1.3-3.6
					c-0.3-1.3-0.4-2.4-0.4-3.7c0-0.7,0-1.1,0.1-1.8c0.1-0.6,0.2-1.3,0.3-1.9c0.3-1.2,0.8-2.4,1.3-3.6c0.6-1.1,1.3-2.2,2.2-3.1
					c0.9-0.9,2-1.7,3.1-2.3c1.1-0.6,2.3-1,3.6-1.3c0.6-0.1,1.3-0.1,1.8-0.2h0.1h0.1l0,0h0.1h0.2h0.3c0.3,0,0.5,0,0.8,0.1
					c0.6,0.1,1.3,0.2,1.8,0.3c0.3,0.1,0.6,0.1,0.8,0.2c0.3,0.1,0.6,0.2,0.8,0.3c1,0.4,2,1,2.7,1.6c1.6,1.3,2.7,2.8,3.5,4.2
					s1.2,2.7,1.5,3.8c0.1,0.6,0.2,1,0.3,1.5c0.1,0.4,0.1,0.8,0.1,1.1C-163.2,396.7-163.2,397.1-163.2,397.1L-163.2,397.1z
					 M-165.9,397.1c0,0,0-0.3-0.1-0.7c0-0.2-0.1-0.6-0.1-0.8c0-0.1-0.1-0.3-0.1-0.6s-0.1-0.4-0.2-0.6c-0.3-0.8-0.8-1.8-1.5-2.7
					c-0.8-0.9-1.8-1.8-3.1-2.4c-0.6-0.3-1.3-0.6-2-0.8c-0.2-0.1-0.3-0.1-0.6-0.1c-0.2-0.1-0.3-0.1-0.6-0.1c-0.4-0.1-0.7-0.1-1-0.1
					c-0.1,0-0.2,0-0.3,0h-0.3h-0.3h-0.2c-0.1,0,0.1,0,0.1,0l0,0h-0.1h-0.1c-0.4,0-0.8,0-1.2,0.1c-0.8,0.1-1.7,0.3-2.5,0.5
					s-1.7,0.6-2.4,1.1s-1.5,1.1-2.2,1.9c-0.6,0.8-1.2,1.6-1.5,2.6l-0.2,0.8c-0.1,0.3-0.1,0.5-0.1,0.7c-0.1,0.4-0.1,1.1-0.1,1.6
					c0.1,1,0.2,2.1,0.6,3.1c0.3,1,0.9,1.8,1.5,2.6c0.7,0.8,1.4,1.4,2.2,1.9c0.8,0.5,1.6,0.9,2.4,1.1c0.2,0.1,0.4,0.1,0.6,0.2
					c0.2,0.1,0.4,0.1,0.6,0.1l0.6,0.1c0.2,0.1,0.3,0.1,0.6,0.1c0.3,0.1,0.9,0.1,1.4,0.1h0.1h0.1l0,0c0.1,0-0.2,0-0.1,0h0.1h0.3
					c0.2,0,0.4,0,0.6-0.1c1.5-0.1,3-0.6,4.3-1.3c1.3-0.6,2.3-1.5,3.1-2.4c0.8-0.9,1.3-1.9,1.5-2.7c0.1-0.2,0.1-0.4,0.2-0.6
					s0.1-0.3,0.1-0.5c0-0.1,0.1-0.3,0.1-0.4c0-0.1,0-0.3,0-0.4C-165.9,397.3-165.9,397-165.9,397.1L-165.9,397.1z"/>
			</g>
			<g>
				<path class="st6" d="M-176.1,403.5c-3.6,0-6.6-2.9-6.6-6.6c0-3.6,2.9-6.6,6.6-6.6s6.6,2.9,6.6,6.6
					C-169.6,400.6-172.6,403.5-176.1,403.5z"/>
				<path class="st7" d="M-176.1,390.9c3.4,0,6.2,2.8,6.2,6.2c0,3.4-2.8,6.2-6.2,6.2s-6.2-2.8-6.2-6.2
					C-182.3,393.7-179.5,390.9-176.1,390.9 M-176.1,390.2c-3.8,0-6.9,3.1-6.9,6.9c0,3.8,3.1,6.9,6.9,6.9s6.9-3.1,6.9-6.9
					C-169.2,393.2-172.4,390.2-176.1,390.2L-176.1,390.2z"/>
			</g>
		</g>
		<g>
			<path class="st5" d="M-182.1,387.6c0,0,0.5-0.4,1.2-1.1c0.3-0.3,0.8-0.8,1.3-1.4c0.2-0.3,0.5-0.6,0.8-0.8c0.3-0.3,0.4-0.8,0.7-1
				c0.7-0.4,1.5-0.8,2.2-1.4c0.8-0.5,1.5-1,2.3-1.7c1.5-1.3,3-2.7,3.7-4.6c0.1-0.5,0.3-0.9,0.3-1.4c0-0.5,0.1-1-0.1-1.4
				c-0.1-0.1-0.1-0.2-0.1-0.3l-0.1-0.3c-0.1-0.1-0.2-0.3-0.3-0.4c-0.3-0.3-0.6-0.5-0.9-0.8c-0.7-0.5-1.6-0.8-2.5-0.9
				c-0.9-0.1-1.8-0.2-2.6-0.2c-1.7,0-3.1,0.2-4.1,0.3c-1,0.1-1.6,0.2-1.6,0.2s0.5-0.3,1.5-0.6s2.4-0.8,4.1-1.2
				c0.9-0.2,1.9-0.3,2.9-0.3s2.2,0.1,3.5,0.6c0.6,0.3,1.2,0.8,1.6,1.3c0.2,0.3,0.4,0.6,0.6,1c0.1,0.2,0.1,0.2,0.1,0.5
				c0.1,0.1,0.1,0.3,0.1,0.5c0.1,0.3,0.1,0.6,0.2,1c0.1,0.3,0.1,0.6,0.1,1c0.1,0.7,0,1.3-0.1,2c-0.2,1.3-0.8,2.6-1.4,3.7
				s-1.4,2.1-2.2,3s-1.6,1.7-2.4,2.3c-0.8,0.6-1.6,1.3-2.4,1.7c-0.4,0.2-1,0.1-1.4,0.2c-0.4,0.1-0.8,0.1-1.2,0.2
				c-0.8,0.1-1.4,0.2-2,0.3C-181.5,387.6-182.1,387.6-182.1,387.6z"/>
		</g>
		<g>
			<path class="st5" d="M-168.9,408.3c0,0-0.1,0.1-0.3,0.3c-0.2,0.2-0.5,0.5-0.8,0.8c-0.8,0.7-1.9,1.5-3.2,2.4
				c-0.7,0.4-1.4,0.9-2.2,1.5c-0.8,0.6-1.5,1.1-2.3,1.7c-0.8,0.6-1.5,1.3-2.2,2.1c-0.7,0.8-1.2,1.6-1.5,2.5
				c-0.1,0.5-0.3,0.9-0.3,1.4c-0.1,0.5-0.1,1,0.1,1.5c0.1,0.1,0.1,0.2,0.1,0.3c0,0.1,0.1,0.1,0.1,0.1l0.1,0.2
				c0.1,0.1,0.2,0.3,0.3,0.4c0.3,0.3,0.6,0.5,0.9,0.8c0.7,0.5,1.6,0.8,2.5,0.9c0.9,0.1,1.8,0.2,2.6,0.2c1.7,0,3.1-0.2,4.1-0.3
				c1-0.1,1.6-0.2,1.6-0.2s-0.6,0.3-1.5,0.6c-1,0.3-2.4,0.8-4.1,1.2c-0.9,0.2-1.9,0.3-2.9,0.3c-1,0-2.2-0.1-3.5-0.7
				c-0.6-0.3-1.2-0.8-1.6-1.4c-0.2-0.3-0.3-0.6-0.6-1l-0.1-0.2c-0.1-0.1-0.1-0.1-0.1-0.3c-0.1-0.3-0.1-0.4-0.1-0.6
				c-0.1-0.3-0.1-0.6-0.2-1s-0.1-0.6-0.1-1c-0.1-0.7,0-1.3,0.1-2c0.2-1.3,0.7-2.6,1.3-3.7c0.6-1.1,1.4-2.2,2.2-3
				c0.8-0.9,1.6-1.7,2.4-2.4c0.8-0.7,1.7-1.3,2.4-1.7c1.6-1,3.1-1.5,4.1-1.7c0.6-0.1,1-0.1,1.3-0.1s0.5,0,0.5,0L-168.9,408.3z"/>
		</g>
	</g>
</a>
</svg>
