<?xml version="1.0" encoding="utf-8"?>
<!-- Generator: Adobe Illustrator 19.1.1, SVG Export Plug-In . SVG Version: 6.00 Build 0)  -->
<svg version="1.1" id="Layer_1" xmlns="http://www.w3.org/2000/svg" xmlns:xlink="http://www.w3.org/1999/xlink" x="0px" y="0px"
	 viewBox="-241 333 128 128" style="enable-background:new -241 333 128 128;" xml:space="preserve">
<style type="text/css">
	.st0{fill:#FFFFFF;}
	.st1{fill:#F15C2B;}
	.st2{fill:#231F20;}
	.st3{fill:#FAAF40;}
</style>
<g>
	<polygon class="st0" points="-230,428.3 -230,367.5 -177,336.5 -124,366.2 -124,428.3 -176.4,457.6 	"/>
	<path class="st1" d="M-176.9,339.9l50,28v58.6l-49.5,27.6l-50.6-27.6v-57.2L-176.9,339.9 M-177,333l-56,32.8V430l56.6,31l55.4-30.9
		v-65.7L-177,333L-177,333z"/>
</g>
<g>
	<path class="st1" d="M-176.9,339.9l50,28v58.6l-49.5,27.6l-50.6-27.6v-57.2L-176.9,339.9 M-177,333l-56,32.8V430l56.6,31l55.4-30.9
		v-65.7L-177,333L-177,333z"/>
</g>
<a xlink:href="student.html" >
	<g>
		<rect x="-224" y="394.8" class="st2" width="12.4" height="5.5"/>
		<rect x="-198.4" y="369.3" class="st2" width="5.5" height="12.4"/>
		<rect x="-198.4" y="414.3" class="st2" width="5.5" height="12.4"/>
		
			<rect x="-207.9" y="411.4" transform="matrix(-0.866 -0.5 0.5 -0.866 -594.4731 676.005)" class="st2" width="2.5" height="12.4"/>
		
			<rect x="-216.1" y="403.2" transform="matrix(-0.5 -0.866 0.866 -0.5 -676.8226 428.1101)" class="st2" width="2.5" height="12.4"/>
		<rect x="-216.3" y="381" transform="matrix(0.5 -0.866 0.866 0.5 -442.8814 7.4028)" class="st2" width="2.5" height="12.4"/>
		<rect x="-208" y="372.8" transform="matrix(0.866 -0.5 0.5 0.866 -217.1979 -52.5691)" class="st2" width="2.5" height="12.4"/>
		<rect x="-183.7" y="411.4" transform="matrix(0.866 -0.5 0.5 0.866 -233.2772 -35.2534)" class="st2" width="2.5" height="12.4"/>
		
			<rect x="-183.7" y="372.8" transform="matrix(-0.866 -0.5 0.5 -0.866 -529.9526 616.0728)" class="st2" width="2.5" height="12.4"/>
	</g>
	<g>
		<rect x="-207.8" y="388.7" class="st2" width="69.4" height="18.9"/>
		<g>
			<path class="st0" d="M-204.9,392.5h6.8v1.5h-2.7v9.6h-1.5V394h-2.7V392.5z"/>
			<path class="st0" d="M-196.9,394.1c0-0.3,0.1-0.6,0.3-0.8c0.2-0.2,0.5-0.3,0.8-0.3c0.3,0,0.6,0.1,0.8,0.3s0.3,0.5,0.3,0.8
				s-0.1,0.6-0.3,0.8c-0.2,0.2-0.5,0.3-0.8,0.3c-0.3,0-0.6-0.1-0.8-0.3C-196.7,394.6-196.9,394.3-196.9,394.1z M-196.4,396.4h1.5
				v7.2h-1.5V396.4z"/>
			<path class="st0" d="M-192.8,403.6v-7.2h1.5v1.1c0.3-0.5,0.7-0.8,1-1c0.3-0.2,0.7-0.3,1.1-0.3c0.5,0,1,0.1,1.3,0.3
				c0.3,0.3,0.5,0.6,0.8,1.2c0.4-0.5,0.8-0.9,1.1-1.2c0.3-0.2,0.8-0.3,1.2-0.3c0.5,0,1.1,0.2,1.5,0.6c0.4,0.4,0.6,1,0.6,1.5v5.3
				h-1.5v-4.9c0-0.8-0.4-1.2-1.2-1.2c-0.5,0-0.8,0.2-1.2,0.6c-0.3,0.4-0.5,0.9-0.5,1.5v3.9h-1.6v-4.6c0-1-0.4-1.4-1.2-1.4
				c-0.5,0-0.8,0.2-1.2,0.5c-0.3,0.4-0.5,0.9-0.5,1.4v4.1h-1.5V403.6z"/>
			<path class="st0" d="M-173.5,400.4h-6.1c0.1,0.8,0.4,1.3,0.9,1.6c0.5,0.3,1,0.5,1.6,0.5c0.9,0,1.6-0.3,2.2-1.1l1.1,0.8
				c-0.8,1.1-2,1.6-3.3,1.6c-1.1,0-2-0.3-2.7-1.1c-0.7-0.8-1.1-1.6-1.1-2.7c0-1,0.3-1.9,1.1-2.7c0.8-0.8,1.6-1.1,2.7-1.1
				c1,0,1.9,0.4,2.7,1.2C-173.8,398.1-173.5,399.1-173.5,400.4z M-179.5,399.1h4.4c-0.5-1-1.2-1.5-2.2-1.5
				C-178.3,397.6-179,398.1-179.5,399.1z"/>
		</g>
		<polygon class="st3" points="-138.5,407.6 -174.1,407.6 -166.6,388.7 -130.9,388.7 		"/>
		<g>
			<path class="st0" d="M-159.2,393.9l-1.4,0.9c-0.4-0.8-1-1.1-1.8-1.1c-0.5,0-1,0.2-1.4,0.5c-0.5,0.3-0.8,0.8-0.8,1.2
				c-0.1,0.3,0,0.7,0.3,1c0.2,0.3,0.8,0.6,1.5,1c0.8,0.4,1.4,0.9,1.7,1.4c0.3,0.5,0.4,1.1,0.3,1.8c-0.1,0.9-0.7,1.7-1.6,2.4
				c-0.9,0.7-1.8,1-2.8,1c-0.8,0-1.5-0.2-2.2-0.7c-0.6-0.4-1-1-1.2-1.8l1.5-0.7c0.4,1,1.2,1.5,2.1,1.5c0.5,0,1.1-0.2,1.6-0.5
				c0.5-0.3,0.8-0.8,0.9-1.2c0.1-0.3,0-0.7-0.3-1s-0.8-0.6-1.5-1c-0.8-0.4-1.4-0.8-1.6-1.4c-0.3-0.5-0.4-1.1-0.3-1.8
				c0.1-0.9,0.6-1.7,1.4-2.3c0.8-0.6,1.7-1,2.7-1C-160.8,392.1-159.8,392.7-159.2,393.9z"/>
			<path class="st0" d="M-156.2,392h1.5l-3.8,11.6h-1.5L-156.2,392z"/>
			<path class="st0" d="M-153.8,396.6h1.5l-2.3,7h-1.5L-153.8,396.6z M-152.9,393.5c0.1-0.3,0.2-0.5,0.4-0.7s0.5-0.3,0.8-0.3
				c0.3,0,0.5,0.1,0.6,0.3c0.1,0.2,0.2,0.4,0.1,0.7c-0.1,0.3-0.2,0.5-0.4,0.7s-0.5,0.3-0.8,0.3c-0.3,0-0.5-0.1-0.6-0.3
				C-152.9,394-153,393.7-152.9,393.5z"/>
			<path class="st0" d="M-146.2,401.7l-0.5,1.8c-0.8,0.3-1.4,0.4-1.8,0.4c-1,0-1.7-0.3-2.2-1.1c-0.5-0.7-0.7-1.6-0.5-2.7
				c0.2-1,0.7-1.9,1.5-2.6c0.8-0.7,1.8-1.1,2.7-1.1c0.8,0,1.4,0.2,2.1,0.6l-0.5,1.6c-0.8-0.5-1.4-0.8-1.8-0.8
				c-0.6,0-1.2,0.2-1.6,0.7c-0.5,0.4-0.8,1-0.9,1.6c-0.1,0.6,0,1.1,0.3,1.5s0.7,0.6,1.2,0.6C-147.8,402.3-147.1,402.1-146.2,401.7z"
				/>
			<path class="st0" d="M-137.9,400.5h-5.5c-0.1,0.7,0.1,1.2,0.4,1.6c0.3,0.3,0.8,0.5,1.4,0.5s1.4-0.3,2.2-1.1l0.7,0.9
				c-0.9,1-2,1.4-3.1,1.4c-1,0-1.8-0.3-2.4-1c-0.5-0.7-0.8-1.5-0.5-2.5c0.2-1.1,0.7-2,1.6-2.7c0.9-0.8,1.8-1.1,2.9-1.1
				c0.9,0,1.6,0.3,2.1,1c0.5,0.7,0.7,1.4,0.5,2.4C-137.8,400.1-137.9,400.3-137.9,400.5z M-143.2,399.4h4.1c0-1.2-0.5-1.7-1.6-1.7
				c-0.5,0-1,0.1-1.4,0.5C-142.6,398.5-143,398.9-143.2,399.4z"/>
		</g>
		<polygon class="st3" points="-165.2,385.2 -129.5,385.2 -130.3,387.2 -166,387.2 		"/>
		<polygon class="st3" points="-164.3,382.9 -128.6,382.9 -129.1,384.2 -164.8,384.2 		"/>
		<polygon class="st3" points="-163.7,381.4 -128,381.4 -128.2,382 -163.9,382 		"/>
		<polygon class="st3" points="-139.7,410.8 -175.4,410.8 -174.6,408.8 -138.9,408.8 		"/>
		<polygon class="st3" points="-140.6,413.1 -176.2,413.1 -175.8,411.8 -140.1,411.8 		"/>
		<polygon class="st3" points="-141.2,414.6 -176.9,414.6 -176.6,414 -141,414 		"/>
	</g>
</a>
</svg>
