<?xml version="1.0" encoding="utf-8"?>
<!-- Generator: Adobe Illustrator 18.0.0, SVG Export Plug-In . SVG Version: 6.00 Build 0)  -->
<!DOCTYPE svg PUBLIC "-//W3C//DTD SVG 1.1//EN" "http://www.w3.org/Graphics/SVG/1.1/DTD/svg11.dtd">
<svg version="1.1" id="Layer_1" xmlns="http://www.w3.org/2000/svg" xmlns:xlink="http://www.w3.org/1999/xlink" x="0px" y="0px"
	 viewBox="-50 -50 250 250" enable-background="new -50 -50 250 250" xml:space="preserve">
<polygon fill="#666766" points="75,-32.3 75,182.3 -17.9,128.6 -17.9,21.4 "/>
<polygon fill="#404041" points="167.9,21.4 167.9,128.6 75,182.3 75,-32.3 "/>
<polygon id="XMLID_21_" fill="#F05A28" points="74.5,154.5 -17.9,128.6 -17.9,21.4 74.5,-4.5 "/>
<polygon id="RightShield" fill="#26A9E0" points="167.9,128.6 74.5,154.5 74.5,-4.5 167.9,21.4 "/>
<g>
	<polygon fill="#FFFFFF" points="252.4,-2.2 298.5,-37.1 344.7,-2.2 	"/>
</g>
<g>
	<g>
		<g>
			<defs>
				<polygon id="SVGID_1_" points="368.9,79 369,78.9 333.7,53.3 263.3,53.4 228.6,79 				"/>
			</defs>
			<clipPath id="SVGID_2_">
				<use xlink:href="#SVGID_1_"  overflow="visible"/>
			</clipPath>
			<g clip-path="url(#SVGID_2_)">
				<rect x="239.4" y="71.3" fill="#A8AAAD" width="118.9" height="4"/>
				<rect x="239.4" y="67.2" fill="#D2D3D4" width="118.9" height="4"/>
				<rect x="239.4" y="63.2" fill="#E7E7E7" width="118.9" height="4"/>
				<rect x="239.4" y="59.2" fill="#F2F2F2" width="118.9" height="4"/>
			</g>
		</g>
	</g>
</g>
<circle fill="#010101" cx="298.5" cy="-17.1" r="8.1"/>
<g>
	<polygon fill="#FFFFFF" points="275.2,10.1 275.2,1.6 255.9,1.6 255.9,10.1 260.6,10.1 260.6,50.8 255.9,50.8 255.9,59.4 
		275.2,59.4 275.2,50.8 270.6,50.8 270.6,10.1 	"/>
</g>
<g>
	<polygon fill="#FFFFFF" points="319.9,10.1 319.9,1.6 300.6,1.6 300.6,10.1 305.2,10.1 305.2,50.8 300.6,50.8 300.6,59.4 
		319.9,59.4 319.9,50.8 315.2,50.8 315.2,10.1 	"/>
</g>
<g>
	<polygon fill="#FFFFFF" points="297.6,10.1 297.6,1.6 278.2,1.6 278.2,10.1 282.9,10.1 282.9,50.8 278.2,50.8 278.2,59.4 
		297.6,59.4 297.6,50.8 292.9,50.8 292.9,10.1 	"/>
</g>
<g>
	<polygon fill="#FFFFFF" points="342.2,10.1 342.2,1.6 322.9,1.6 322.9,10.1 327.5,10.1 327.5,50.8 322.9,50.8 322.9,59.4 
		342.2,59.4 342.2,50.8 337.5,50.8 337.5,10.1 	"/>
</g>
<rect x="252.5" y="-2.4" fill="#939598" width="92.1" height="4.4"/>
<g>
	<path fill="#FFFFFF" d="M22.3,29.8L-6.3,58.5l66-5.1L22.3,29.8z M22.3,51.1c-2.7,0.3-4.9-2.2-4.9-5.6s2.2-6.4,4.9-6.8
		c2.8-0.4,5.1,2.1,5.1,5.5C27.4,47.8,25.1,50.8,22.3,51.1z"/>
	<g>
		<g>
			<g>
				<defs>
					<polygon id="SVGID_3_" points="78.9,130.6 79,130.6 47.5,103.3 1.1,98.6 -16.4,113 					"/>
				</defs>
				<clipPath id="SVGID_4_">
					<use xlink:href="#SVGID_3_"  overflow="visible"/>
				</clipPath>
				<g clip-path="url(#SVGID_4_)">
					<polygon fill="#F2F2F2" points="-11.2,108.9 68.6,121.8 68.6,125.4 -11.2,111.5 					"/>
					<polygon fill="#F2F2F2" points="-11.2,106.3 68.6,118.1 68.6,121.8 -11.2,108.9 					"/>
					<polygon fill="#F2F2F2" points="-11.2,103.6 68.6,114.5 68.6,118.1 -11.2,106.3 					"/>
					<polygon fill="#F2F2F2" points="-11.2,101 68.6,110.9 68.6,114.5 -11.2,103.6 					"/>
				</g>
			</g>
		</g>
	</g>
	<polygon fill="#FFFFFF" points="4.8,100.1 -3,99.2 -3,61 4.8,60.6 	"/>
	<polygon fill="#FFFFFF" points="19.2,101.7 10.4,100.7 10.4,60.2 19.2,59.6 	"/>
	<polygon fill="#FFFFFF" points="35.5,103.5 25.5,102.4 25.5,59.2 35.5,58.6 	"/>
	<polygon fill="#FFFFFF" points="54.3,105.6 42.8,104.3 42.8,58.1 54.3,57.4 	"/>
</g>
<g>
	<path fill="#FFFFFF" d="M297.5,137L264,159.2h67.2L297.5,137z M297.6,154.9c-2.9,0-5.2-2.3-5.2-5.2c0-2.9,2.3-5.2,5.2-5.2
		s5.2,2.3,5.2,5.2C302.8,152.6,300.4,154.9,297.6,154.9z"/>
	<g>
		<g>
			<g>
				<defs>
					<polygon id="SVGID_5_" points="345.2,213 345.3,212.9 321.3,196.6 273.5,196.7 249.9,213 					"/>
				</defs>
				<clipPath id="SVGID_6_">
					<use xlink:href="#SVGID_5_"  overflow="visible"/>
				</clipPath>
				<g clip-path="url(#SVGID_6_)">
					<rect x="257.2" y="208.1" fill="#F2F2F2" width="80.7" height="2.6"/>
					<rect x="257.2" y="205.5" fill="#F2F2F2" width="80.7" height="2.6"/>
					<rect x="257.2" y="202.9" fill="#F2F2F2" width="80.7" height="2.6"/>
					<rect x="257.2" y="200.4" fill="#F2F2F2" width="80.7" height="2.6"/>
				</g>
			</g>
		</g>
	</g>
	<rect x="268.3" y="161.9" fill="#FFFFFF" width="9.7" height="35.8"/>
	<rect x="284.6" y="161.9" fill="#FFFFFF" width="9.7" height="35.8"/>
	<rect x="300.9" y="161.9" fill="#FFFFFF" width="9.7" height="35.8"/>
	<rect x="317.2" y="161.9" fill="#FFFFFF" width="9.7" height="35.8"/>
</g>
<g>
	<path fill="#FCEE21" d="M429.8,187.8c0,5.9-1,5-2.3,5s-2.3,0.9-2.3-5s0.4-10.6,2.3-10.7C429.5,177.2,429.8,181.9,429.8,187.8z"/>
	<g>
		<path fill="#404041" d="M474.4,189.6c0,6.5-9.4,10.8-21,10.8c-11.6,0-21-4.3-21-10.8c0-6.5,9.4-11.8,21-11.8
			C465.1,177.8,474.4,183.1,474.4,189.6z"/>
		<rect x="432.5" y="163.3" fill="#404041" width="41.9" height="26.3"/>
	</g>
	<polygon points="453.5,179.2 414.1,161 453.5,147.5 492.9,161 	"/>
	<path fill="none" stroke="#FCEE21" d="M453.5,161.5l-25.9,5.7c0,0-0.1,4.8-0.1,9"/>
	<circle fill="#404041" cx="453.5" cy="161.5" r="2.3"/>
	<path fill="#FCEE21" d="M428.2,188.7l0.5,0.4l0.4,0.5l0.2,0.6l0,0.6l-0.2,0.6c0,0,1.6,1.1,1.3,1.5c-0.3,0.4-1.7-1-1.7-1
		s1.1,1.6,0.7,1.8s-1.3-1.5-1.3-1.5s0.6,1.8,0.1,1.9c-0.5,0.1-0.7-1.8-0.7-1.8s-0.1,1.9-0.5,1.9c-0.5-0.1-0.1-1.9-0.1-1.9
		s-0.7,1.8-1.1,1.6c-0.4-0.2,0.6-1.9,0.6-1.9s-1.2,1.5-1.6,1.1s1.1-1.6,1.1-1.6l-0.3-0.6l-0.1-0.6l0.1-0.6l0.3-0.5l0.5-0.4l0.6-0.2
		l0.6,0L428.2,188.7z"/>
	<path fill="#C1272D" d="M425.7,180.2v-1.6c0-0.3,0.3-0.6,0.6-0.6h2.5c0.3,0,0.6,0.3,0.6,0.6v1.6c0,0.2-0.9,0.8-1.9,0.8
		C426.6,181,425.7,180.4,425.7,180.2z"/>
	<circle fill="#FCEE21" cx="427.5" cy="176.6" r="2.3"/>
</g>
<g>
	<path fill="#FFFFFF" d="M100.1,100.7c0,8.8-1.4,7.6-3.1,7.8c-1.8,0.2-3.2,1.7-3.2-7.3s0.6-16.3,3.2-16.4
		C99.8,84.9,100.1,91.8,100.1,100.7z"/>
	<g>
		<path fill="#FFFFFF" d="M150.3,96.2c0,7.9-8.9,14.4-21,16.2c-13.4,1.9-25.4-2.6-25.4-12.2s11.9-8.3,25.3-8.6
			C141.2,91.4,150.3,88.3,150.3,96.2z"/>
		<polygon fill="#FFFFFF" points="150.3,78.3 129,87.6 103.9,77.3 103.9,100.2 150.3,96.2 		"/>
	</g>
	<polygon fill="#FFFFFF" points="129.2,82.9 76.7,61.2 129.3,46.9 166,67.5 	"/>
	<path fill="#FFFFFF" d="M100.1,82c0,1.9-1.4,5.4-3.1,5.4c-1.8,0-3.2-3.5-3.2-5.4c0-1.9,1.4-3.4,3.2-3.4
		C98.7,78.7,100.1,80.2,100.1,82z"/>
</g>
<polygon fill="#FFFFFF" points="98.3,82.2 95.5,84.2 95.5,73.2 98.3,71.2 "/>
</svg>
